<svg width="24" height="24" viewBox="0 0 24 24" fill="none" xmlns="http://www.w3.org/2000/svg">
<path fill-rule="evenodd" clip-rule="evenodd" d="M7.2 3.25H7.16957H7.16955C6.6354 3.24999 6.18956 3.24998 5.82533 3.27974C5.44545 3.31078 5.08879 3.37789 4.75153 3.54973C4.23408 3.81339 3.81339 4.23408 3.54973 4.75153C3.37789 5.08879 3.31078 5.44545 3.27974 5.82533C3.24998 6.18956 3.24999 6.63541 3.25 7.16957L3.25 7.2V11.3673C3.07911 11.4091 2.91309 11.4674 2.75153 11.5497C2.23408 11.8134 1.81339 12.2341 1.54973 12.7515C1.37789 13.0888 1.31078 13.4454 1.27974 13.8253C1.25334 14.1485 1.25037 14.5359 1.25004 14.9922C1.25001 14.9948 1.25 14.9974 1.25 15V15.1185C1.25 15.1354 1.25 15.1524 1.25 15.1696V15.1696V15.2V17V21C1.25 21.4142 1.58579 21.75 2 21.75C2.41421 21.75 2.75 21.4142 2.75 21V17.75H21.25V21C21.25 21.4142 21.5858 21.75 22 21.75C22.4142 21.75 22.75 21.4142 22.75 21V17V15.2V15.1695C22.75 15.1515 22.75 15.1336 22.75 15.1157V15C22.75 14.9974 22.75 14.9949 22.75 14.9923C22.7496 14.5359 22.7467 14.1485 22.7203 13.8253C22.6892 13.4454 22.6221 13.0888 22.4503 12.7515C22.1866 12.2341 21.7659 11.8134 21.2485 11.5497C21.0869 11.4674 20.9209 11.4091 20.75 11.3673V7.2V7.16955C20.75 6.6354 20.75 6.18956 20.7203 5.82533C20.6892 5.44545 20.6221 5.08879 20.4503 4.75153C20.1866 4.23408 19.7659 3.81339 19.2485 3.54973C18.9112 3.37789 18.5546 3.31078 18.1747 3.27974C17.8104 3.24998 17.3646 3.24999 16.8305 3.25H16.8304H16.8H7.2ZM18.8 12.75H17H16H14.4L12 12.75L9.6 12.75H8H7H5.2C4.62757 12.75 4.24336 12.7506 3.94748 12.7748C3.66036 12.7982 3.52307 12.8401 3.43251 12.8862C3.19731 13.0061 3.00608 13.1973 2.88624 13.4325C2.8401 13.5231 2.79822 13.6604 2.77476 13.9475C2.75058 14.2434 2.75 14.6276 2.75 15.2V16.25H21.25V15.2C21.25 14.6276 21.2494 14.2434 21.2252 13.9475C21.2018 13.6604 21.1599 13.5231 21.1138 13.4325C20.9939 13.1973 20.8027 13.0061 20.5675 12.8862C20.4769 12.8401 20.3396 12.7982 20.0525 12.7748C19.7566 12.7506 19.3724 12.75 18.8 12.75ZM18.8833 11.25H19.25V7.2C19.25 6.62757 19.2494 6.24336 19.2252 5.94748C19.2018 5.66036 19.1599 5.52307 19.1138 5.43251C18.9939 5.19731 18.8027 5.00608 18.5675 4.88624C18.4769 4.8401 18.3396 4.79822 18.0525 4.77476C17.7566 4.75058 17.3724 4.75 16.8 4.75H7.2C6.62757 4.75 6.24336 4.75058 5.94748 4.77476C5.66036 4.79822 5.52307 4.8401 5.43251 4.88624C5.19731 5.00608 5.00608 5.19731 4.88624 5.43251C4.8401 5.52307 4.79822 5.66036 4.77476 5.94748C4.75058 6.24336 4.75 6.62757 4.75 7.2V11.25H5.11673C5.13425 11.25 5.15186 11.25 5.16957 11.25H5.2H6.25V11.2L6.25 11.1696V11.1696C6.24999 10.6354 6.24998 10.1896 6.27974 9.82533C6.31078 9.44545 6.37789 9.08879 6.54973 8.75153C6.81339 8.23408 7.23408 7.81339 7.75153 7.54973C8.08879 7.37789 8.44545 7.31078 8.82533 7.27974C9.18956 7.24998 9.63541 7.24999 10.1696 7.25L10.2 7.25H11.9988L12 7.25L12.0012 7.25H13.8L13.8304 7.25C14.3646 7.24999 14.8104 7.24998 15.1747 7.27974C15.5546 7.31078 15.9112 7.37789 16.2485 7.54973C16.7659 7.81339 17.1866 8.23408 17.4503 8.75153C17.6221 9.08879 17.6892 9.44545 17.7203 9.82533C17.75 10.1896 17.75 10.6354 17.75 11.1695V11.2V11.25H18.8H18.8304C18.8481 11.25 18.8658 11.25 18.8833 11.25ZM16.25 11.25V11.2C16.25 10.6276 16.2494 10.2434 16.2252 9.94748C16.2018 9.66036 16.1599 9.52307 16.1138 9.43251C15.9939 9.19731 15.8027 9.00608 15.5675 8.88624C15.4769 8.8401 15.3396 8.79822 15.0525 8.77476C14.7566 8.75058 14.3724 8.75 13.8 8.75H12.75V11.25H14.4H16H16.25ZM11.25 11.25V8.75H10.2C9.62757 8.75 9.24336 8.75058 8.94748 8.77476C8.66036 8.79822 8.52307 8.8401 8.43251 8.88624C8.19731 9.00608 8.00608 9.19731 7.88624 9.43251C7.8401 9.52307 7.79822 9.66036 7.77476 9.94748C7.75058 10.2434 7.75 10.6276 7.75 11.2V11.25H8H9.6H11.25Z" fill="#636F7E"/>
</svg>
