<svg width="639" height="135" viewBox="0 0 639 135" fill="none" xmlns="http://www.w3.org/2000/svg">
<path opacity="0.03" fill-rule="evenodd" clip-rule="evenodd" d="M475.899 0.283601C475.899 0.445535 475.061 0.567194 473.944 0.567194C472.826 0.567194 471.989 0.688861 471.989 0.850795C471.989 1.00677 471.486 1.13439 470.871 1.13439C470.257 1.13439 469.754 1.26201 469.754 1.41799C469.754 1.57397 469.377 1.70159 468.917 1.70159C468.456 1.70159 468.079 1.8292 468.079 1.98518C468.079 2.14116 467.827 2.26878 467.52 2.26878C467.213 2.26878 466.962 2.3964 466.962 2.55238C466.962 2.70835 466.459 2.83598 465.844 2.83598C465.23 2.83598 464.727 2.96359 464.727 3.11957C464.727 3.27555 464.504 3.40317 464.23 3.40317C463.957 3.40317 463.552 3.65841 463.331 3.97036C463.109 4.28232 462.705 4.53756 462.431 4.53756C462.158 4.53756 461.934 4.66518 461.934 4.82116C461.934 4.97714 461.711 5.10475 461.438 5.10475C461.164 5.10475 460.759 5.35999 460.538 5.67195C460.317 5.9839 459.94 6.23914 459.7 6.23914C459.461 6.23914 459.084 6.49439 458.862 6.80634C458.641 7.1183 458.286 7.37354 458.075 7.37354C457.863 7.37354 457.338 7.75639 456.907 8.22432C456.477 8.69226 455.985 9.07512 455.815 9.07512C455.644 9.07512 454.061 10.5413 452.296 12.3334C450.531 14.1257 449.087 15.7334 449.087 15.9064C449.087 16.0794 448.71 16.5788 448.25 17.0158C447.789 17.4529 447.412 17.9633 447.412 18.1502C447.412 18.3371 447.035 18.8476 446.574 19.2846C446.113 19.7216 445.736 20.2835 445.736 20.5327C445.736 20.7823 445.61 20.9862 445.457 20.9862C445.303 20.9862 445.177 21.2414 445.177 21.5534C445.177 21.8654 445.052 22.1206 444.898 22.1206C444.745 22.1206 444.619 22.3477 444.619 22.6251C444.619 22.9027 444.368 23.3137 444.06 23.5386C443.753 23.7635 443.502 24.1744 443.502 24.452C443.502 24.7294 443.376 24.9566 443.222 24.9566C443.069 24.9566 442.943 25.2118 442.943 25.5238C442.943 25.8357 442.817 26.091 442.664 26.091C442.51 26.091 442.385 26.4738 442.385 26.9417C442.385 27.4097 442.259 27.7925 442.105 27.7925C441.952 27.7925 441.826 28.0478 441.826 28.3597C441.826 28.6717 441.7 28.9269 441.547 28.9269C441.393 28.9269 441.267 29.1822 441.267 29.4941C441.267 29.8061 441.142 30.0613 440.988 30.0613C440.835 30.0613 440.709 30.4442 440.709 30.9121C440.709 31.38 440.583 31.7629 440.43 31.7629C440.276 31.7629 440.15 32.1458 440.15 32.6137C440.15 33.0816 440.025 33.4645 439.871 33.4645C439.717 33.4645 439.592 33.8473 439.592 34.3153C439.592 34.7832 439.466 35.1661 439.312 35.1661C439.159 35.1661 439.033 35.5489 439.033 36.0169C439.033 36.4848 438.908 36.8677 438.754 36.8677C438.6 36.8677 438.475 37.3781 438.475 38.002C438.475 38.626 438.349 39.1364 438.195 39.1364C438.042 39.1364 437.916 39.5193 437.916 39.9872C437.916 40.4552 437.79 40.838 437.637 40.838C437.483 40.838 437.358 41.4761 437.358 42.256C437.358 43.0359 437.232 43.674 437.078 43.674C436.925 43.674 436.799 44.1845 436.799 44.8084C436.799 45.4323 436.673 45.9428 436.52 45.9428C436.357 45.9428 436.24 46.888 436.24 48.2116C436.24 49.5351 436.124 50.4803 435.961 50.4803C435.802 50.4803 435.682 51.3311 435.682 52.4655C435.682 53.5999 435.562 54.4507 435.403 54.4507C435.231 54.4507 435.123 55.8687 435.123 58.1374C435.123 60.4062 435.016 61.8242 434.844 61.8242C434.666 61.8242 434.565 64.093 434.565 68.0634C434.565 72.0337 434.666 74.3025 434.844 74.3025C435.022 74.3025 435.123 76.5713 435.123 80.5416C435.123 84.512 435.225 86.7808 435.403 86.7808C435.57 86.7808 435.682 87.9152 435.682 89.6168C435.682 91.3183 435.794 92.4527 435.961 92.4527C436.127 92.4527 436.24 93.4927 436.24 95.0051C436.24 96.5175 436.354 97.5575 436.52 97.5575C436.673 97.5575 436.799 98.068 436.799 98.6919C436.799 99.3158 436.925 99.8263 437.078 99.8263C437.232 99.8263 437.358 100.337 437.358 100.961C437.358 101.585 437.483 102.095 437.637 102.095C437.79 102.095 437.916 102.478 437.916 102.946C437.916 103.414 438.042 103.797 438.195 103.797C438.349 103.797 438.475 104.307 438.475 104.931C438.475 105.555 438.6 106.065 438.754 106.065C438.908 106.065 439.033 106.321 439.033 106.633C439.033 106.945 439.159 107.2 439.312 107.2C439.466 107.2 439.592 107.455 439.592 107.767C439.592 108.079 439.717 108.334 439.871 108.334C440.025 108.334 440.15 108.717 440.15 109.185C440.15 109.653 440.276 110.036 440.43 110.036C440.583 110.036 440.709 110.291 440.709 110.603C440.709 110.915 440.835 111.17 440.988 111.17C441.142 111.17 441.267 111.425 441.267 111.737C441.267 112.049 441.393 112.305 441.547 112.305C441.7 112.305 441.826 112.532 441.826 112.809C441.826 113.087 442.077 113.498 442.385 113.723C442.692 113.947 442.943 114.358 442.943 114.636C442.943 114.913 443.069 115.141 443.222 115.141C443.376 115.141 443.502 115.344 443.502 115.594C443.502 115.843 443.879 116.405 444.34 116.842C444.8 117.279 445.177 117.785 445.177 117.967C445.177 118.148 445.806 118.918 446.574 119.678C447.342 120.438 447.97 121.199 447.97 121.371C447.97 121.778 449.815 123.648 450.217 123.648C450.388 123.648 451.011 124.159 451.601 124.783C452.191 125.407 452.845 125.917 453.054 125.917C453.262 125.917 453.614 126.172 453.835 126.484C454.057 126.796 454.434 127.052 454.673 127.052C454.912 127.052 455.289 127.307 455.511 127.619C455.732 127.931 456.109 128.186 456.349 128.186C456.588 128.186 456.965 128.441 457.187 128.753C457.408 129.065 457.813 129.32 458.086 129.32C458.359 129.32 458.583 129.448 458.583 129.604C458.583 129.76 458.807 129.888 459.08 129.888C459.353 129.888 459.758 130.143 459.979 130.455C460.216 130.788 460.703 131.022 461.158 131.022C461.585 131.022 461.934 131.15 461.934 131.306C461.934 131.462 462.186 131.589 462.493 131.589C462.8 131.589 463.052 131.717 463.052 131.873C463.052 132.029 463.303 132.156 463.61 132.156C463.917 132.156 464.169 132.284 464.169 132.44C464.169 132.596 464.546 132.724 465.007 132.724C465.467 132.724 465.844 132.851 465.844 133.007C465.844 133.182 467.241 133.291 469.475 133.291C471.709 133.291 473.106 133.182 473.106 133.007C473.106 132.851 473.357 132.724 473.664 132.724C473.972 132.724 474.223 132.596 474.223 132.44C474.223 132.284 474.42 132.156 474.662 132.156C475.363 132.156 475.899 131.419 475.899 130.455C475.899 129.219 475.331 128.753 473.824 128.753C473.122 128.753 472.547 128.626 472.547 128.47C472.547 128.314 472.044 128.186 471.43 128.186C470.816 128.186 470.313 128.058 470.313 127.902C470.313 127.746 469.936 127.619 469.475 127.619C469.014 127.619 468.637 127.491 468.637 127.335C468.637 127.179 468.386 127.052 468.079 127.052C467.771 127.052 467.52 126.924 467.52 126.768C467.52 126.612 467.269 126.484 466.962 126.484C466.654 126.484 466.403 126.357 466.403 126.201C466.403 126.045 466.179 125.917 465.906 125.917C465.633 125.917 465.228 125.662 465.007 125.35C464.785 125.038 464.408 124.783 464.169 124.783C463.929 124.783 463.552 124.528 463.331 124.216C463.109 123.904 462.765 123.648 462.565 123.648C462.125 123.648 459.142 120.669 459.142 120.229C459.142 120.058 458.639 119.427 458.024 118.827C457.41 118.228 456.907 117.587 456.907 117.404C456.907 117.22 456.53 116.712 456.069 116.275C455.609 115.838 455.232 115.276 455.232 115.027C455.232 114.777 455.106 114.573 454.952 114.573C454.799 114.573 454.673 114.346 454.673 114.069C454.673 113.791 454.422 113.38 454.115 113.155C453.807 112.93 453.556 112.52 453.556 112.242C453.556 111.965 453.43 111.737 453.277 111.737C453.123 111.737 452.997 111.482 452.997 111.17C452.997 110.858 452.872 110.603 452.718 110.603C452.564 110.603 452.439 110.348 452.439 110.036C452.439 109.724 452.313 109.469 452.16 109.469C452.006 109.469 451.88 109.213 451.88 108.901C451.88 108.589 451.755 108.334 451.601 108.334C451.447 108.334 451.322 107.951 451.322 107.483C451.322 107.015 451.196 106.633 451.042 106.633C450.889 106.633 450.763 106.377 450.763 106.065C450.763 105.753 450.637 105.498 450.484 105.498C450.33 105.498 450.205 105.115 450.205 104.647C450.205 104.179 450.079 103.797 449.925 103.797C449.772 103.797 449.646 103.286 449.646 102.662C449.646 102.038 449.52 101.528 449.367 101.528C449.213 101.528 449.087 101.017 449.087 100.393C449.087 99.7695 448.962 99.2591 448.808 99.2591C448.655 99.2591 448.529 98.7486 448.529 98.1247C448.529 97.5008 448.403 96.9903 448.25 96.9903C448.096 96.9903 447.97 96.4798 447.97 95.8559C447.97 95.232 447.845 94.7215 447.691 94.7215C447.537 94.7215 447.412 94.0834 447.412 93.3035C447.412 92.5236 447.286 91.8855 447.132 91.8855C446.973 91.8855 446.853 91.0348 446.853 89.9004C446.853 88.766 446.733 87.9152 446.574 87.9152C446.411 87.9152 446.295 86.9699 446.295 85.6464C446.295 84.3228 446.178 83.3776 446.015 83.3776C445.842 83.3776 445.736 81.8652 445.736 79.4072C445.736 76.9493 445.63 75.4369 445.457 75.4369C445.276 75.4369 445.177 72.2229 445.177 66.3618C445.177 60.5007 445.276 57.2867 445.457 57.2867C445.624 57.2867 445.736 56.1523 445.736 54.4507C445.736 52.7491 445.848 51.6147 446.015 51.6147C446.171 51.6147 446.295 50.8584 446.295 49.9131C446.295 48.9679 446.419 48.2116 446.574 48.2116C446.727 48.2116 446.853 47.5734 446.853 46.7936C446.853 46.0137 446.979 45.3756 447.132 45.3756C447.286 45.3756 447.412 44.8651 447.412 44.2412C447.412 43.6173 447.537 43.1068 447.691 43.1068C447.845 43.1068 447.97 42.5963 447.97 41.9724C447.97 41.3485 448.096 40.838 448.25 40.838C448.403 40.838 448.529 40.4552 448.529 39.9872C448.529 39.5193 448.655 39.1364 448.808 39.1364C448.962 39.1364 449.087 38.7536 449.087 38.2856C449.087 37.8177 449.213 37.4348 449.367 37.4348C449.52 37.4348 449.646 37.052 449.646 36.5841C449.646 36.1161 449.772 35.7333 449.925 35.7333C450.079 35.7333 450.205 35.3504 450.205 34.8825C450.205 34.4145 450.33 34.0317 450.484 34.0317C450.637 34.0317 450.763 33.7764 450.763 33.4645C450.763 33.1525 450.889 32.8973 451.042 32.8973C451.196 32.8973 451.322 32.6421 451.322 32.3301C451.322 32.0181 451.447 31.7629 451.601 31.7629C451.755 31.7629 451.88 31.5077 451.88 31.1957C451.88 30.8837 452.006 30.6285 452.16 30.6285C452.313 30.6285 452.439 30.3733 452.439 30.0613C452.439 29.7494 452.564 29.4941 452.718 29.4941C452.872 29.4941 452.997 29.2389 452.997 28.9269C452.997 28.615 453.123 28.3597 453.277 28.3597C453.43 28.3597 453.556 28.1326 453.556 27.8552C453.556 27.5776 453.807 27.1666 454.115 26.9417C454.422 26.7169 454.673 26.3059 454.673 26.0283C454.673 25.7509 454.799 25.5238 454.952 25.5238C455.106 25.5238 455.232 25.2685 455.232 24.9566C455.232 24.6446 455.357 24.3894 455.511 24.3894C455.665 24.3894 455.79 24.1622 455.79 23.8849C455.79 23.6072 456.042 23.1963 456.349 22.9714C456.656 22.7465 456.907 22.3636 456.907 22.1206C456.907 21.8775 457.159 21.4947 457.466 21.2698C457.773 21.0449 458.024 20.6621 458.024 20.419C458.024 20.176 458.276 19.7931 458.583 19.5682C458.89 19.3433 459.142 18.9891 459.142 18.781C459.142 18.5728 459.896 17.6508 460.817 16.7322C461.739 15.8137 462.493 14.9232 462.493 14.7533C462.493 14.3449 464.341 12.4783 464.745 12.4783C464.919 12.4783 465.414 12.0954 465.844 11.6275C466.275 11.1596 466.8 10.7767 467.012 10.7767C467.224 10.7767 467.578 10.5215 467.799 10.2095C468.021 9.89755 468.426 9.64231 468.699 9.64231C468.972 9.64231 469.196 9.5147 469.196 9.35872C469.196 9.20274 469.447 9.07512 469.754 9.07512C470.062 9.07512 470.313 8.94749 470.313 8.79152C470.313 8.63554 470.564 8.50792 470.871 8.50792C471.179 8.50792 471.43 8.3803 471.43 8.22432C471.43 8.06834 471.933 7.94073 472.547 7.94073C473.162 7.94073 473.664 7.81311 473.664 7.65713C473.664 7.48073 475.247 7.37354 477.854 7.37354C480.46 7.37354 482.043 7.48073 482.043 7.65713C482.043 7.81311 482.42 7.94073 482.881 7.94073C483.341 7.94073 483.719 8.06834 483.719 8.22432C483.719 8.3803 484.221 8.50792 484.836 8.50792C485.45 8.50792 485.953 8.63554 485.953 8.79152C485.953 8.94749 486.204 9.07512 486.511 9.07512C486.819 9.07512 487.07 9.20274 487.07 9.35872C487.07 9.5147 487.447 9.64231 487.908 9.64231C488.369 9.64231 488.746 9.76993 488.746 9.92591C488.746 10.0819 488.997 10.2095 489.304 10.2095C489.611 10.2095 489.863 10.3371 489.863 10.4931C489.863 10.6491 490.114 10.7767 490.421 10.7767C490.729 10.7767 490.98 10.9043 490.98 11.0603C490.98 11.2163 491.204 11.3439 491.477 11.3439C491.75 11.3439 492.155 11.5991 492.376 11.9111C492.598 12.2231 492.975 12.4783 493.214 12.4783C493.454 12.4783 493.831 12.7335 494.052 13.0455C494.273 13.3574 494.625 13.6127 494.834 13.6127C495.042 13.6127 495.696 14.1231 496.286 14.7471C496.877 15.371 497.501 15.8814 497.673 15.8814C498.081 15.8814 499.358 17.1786 499.358 17.5924C499.358 17.7677 499.861 18.4015 500.475 19.001C501.09 19.6005 501.593 20.2642 501.593 20.476C501.593 20.6879 501.844 21.0449 502.151 21.2698C502.458 21.4947 502.71 21.8775 502.71 22.1206C502.71 22.3636 502.961 22.7465 503.268 22.9714C503.576 23.1963 503.827 23.6072 503.827 23.8849C503.827 24.1622 503.953 24.3894 504.106 24.3894C504.26 24.3894 504.385 24.6165 504.385 24.8939C504.385 25.1715 504.637 25.5825 504.944 25.8074C505.251 26.0323 505.503 26.4432 505.503 26.7208C505.503 26.9982 505.628 27.2253 505.782 27.2253C505.935 27.2253 506.061 27.4806 506.061 27.7925C506.061 28.1045 506.187 28.3597 506.34 28.3597C506.494 28.3597 506.62 28.615 506.62 28.9269C506.62 29.2389 506.745 29.4941 506.899 29.4941C507.053 29.4941 507.178 29.7494 507.178 30.0613C507.178 30.3733 507.304 30.6285 507.458 30.6285C507.611 30.6285 507.737 31.0114 507.737 31.4793C507.737 31.9472 507.863 32.3301 508.016 32.3301C508.17 32.3301 508.295 32.5853 508.295 32.8973C508.295 33.2093 508.421 33.4645 508.575 33.4645C508.728 33.4645 508.854 33.7197 508.854 34.0317C508.854 34.3436 508.98 34.5989 509.133 34.5989C509.287 34.5989 509.413 34.9817 509.413 35.4497C509.413 35.9176 509.538 36.3005 509.692 36.3005C509.845 36.3005 509.971 36.6833 509.971 37.1513C509.971 37.6192 510.097 38.002 510.25 38.002C510.404 38.002 510.53 38.3849 510.53 38.8528C510.53 39.3208 510.655 39.7036 510.809 39.7036C510.963 39.7036 511.088 40.2141 511.088 40.838C511.088 41.4619 511.214 41.9724 511.368 41.9724C511.521 41.9724 511.647 42.3553 511.647 42.8232C511.647 43.2911 511.773 43.674 511.926 43.674C512.08 43.674 512.205 44.3121 512.205 45.092C512.205 45.8719 512.331 46.51 512.485 46.51C512.638 46.51 512.764 47.1481 512.764 47.9279C512.764 48.7078 512.89 49.3459 513.043 49.3459C513.199 49.3459 513.323 50.1023 513.323 51.0475C513.323 51.9928 513.447 52.7491 513.602 52.7491C513.776 52.7491 513.881 54.3562 513.881 57.0031C513.881 59.6499 513.987 61.257 514.16 61.257C514.34 61.257 514.44 64.093 514.44 69.1977C514.44 74.3025 514.34 77.1385 514.16 77.1385C513.989 77.1385 513.881 78.5565 513.881 80.8252C513.881 83.094 513.774 84.512 513.602 84.512C513.439 84.512 513.323 85.4572 513.323 86.7808C513.323 88.1043 513.206 89.0496 513.043 89.0496C512.89 89.0496 512.764 89.6877 512.764 90.4676C512.764 91.2474 512.638 91.8855 512.485 91.8855C512.331 91.8855 512.205 92.5236 512.205 93.3035C512.205 94.0834 512.08 94.7215 511.926 94.7215C511.773 94.7215 511.647 95.232 511.647 95.8559C511.647 96.4798 511.521 96.9903 511.368 96.9903C511.214 96.9903 511.088 97.5008 511.088 98.1247C511.088 98.7486 510.963 99.2591 510.809 99.2591C510.655 99.2591 510.53 99.6419 510.53 100.11C510.53 100.578 510.404 100.961 510.25 100.961C510.097 100.961 509.971 101.471 509.971 102.095C509.971 102.719 509.845 103.229 509.692 103.229C509.538 103.229 509.413 103.485 509.413 103.797C509.413 104.109 509.287 104.364 509.133 104.364C508.98 104.364 508.854 104.747 508.854 105.215C508.854 105.683 508.728 106.065 508.575 106.065C508.421 106.065 508.295 106.321 508.295 106.633C508.295 106.945 508.17 107.2 508.016 107.2C507.863 107.2 507.737 107.455 507.737 107.767C507.737 108.079 507.611 108.334 507.458 108.334C507.304 108.334 507.178 108.589 507.178 108.901C507.178 109.213 507.053 109.469 506.899 109.469C506.745 109.469 506.62 109.724 506.62 110.036C506.62 110.348 506.494 110.603 506.34 110.603C506.187 110.603 506.061 110.83 506.061 111.107C506.061 111.385 505.81 111.796 505.503 112.021C505.195 112.246 504.944 112.657 504.944 112.934C504.944 113.212 504.818 113.439 504.665 113.439C504.511 113.439 504.385 113.666 504.385 113.943C504.385 114.221 504.134 114.632 503.827 114.857C503.52 115.082 503.268 115.465 503.268 115.708C503.268 115.951 503.017 116.334 502.71 116.559C502.403 116.783 502.151 117.137 502.151 117.344C502.151 117.551 501.271 118.601 500.196 119.678C499.121 120.755 498.241 121.833 498.241 122.075C498.241 122.316 498.046 122.514 497.807 122.514C497.568 122.514 496.632 123.28 495.728 124.216C494.823 125.152 493.888 125.917 493.648 125.917C493.41 125.917 493.214 126.045 493.214 126.201C493.214 126.357 492.963 126.484 492.656 126.484C492.348 126.484 492.097 126.612 492.097 126.768C492.097 126.924 491.72 127.052 491.259 127.052C490.798 127.052 490.421 127.179 490.421 127.335C490.421 127.491 490.17 127.619 489.863 127.619C489.556 127.619 489.304 127.746 489.304 127.902C489.304 128.058 489.08 128.186 488.807 128.186C488.534 128.186 488.129 128.441 487.908 128.753C487.686 129.065 487.336 129.32 487.128 129.32C486.617 129.32 485.953 130.03 485.953 130.576C485.953 130.821 485.827 131.022 485.674 131.022C485.259 131.022 485.336 131.854 485.793 132.318C486.013 132.541 486.641 132.724 487.19 132.724C487.738 132.724 488.187 132.851 488.187 133.007C488.187 133.169 489.025 133.291 490.142 133.291C491.259 133.291 492.097 133.169 492.097 133.007C492.097 132.851 492.474 132.724 492.935 132.724C493.396 132.724 493.773 132.596 493.773 132.44C493.773 132.284 494.024 132.156 494.331 132.156C494.638 132.156 494.89 132.029 494.89 131.873C494.89 131.717 495.141 131.589 495.448 131.589C495.756 131.589 496.007 131.462 496.007 131.306C496.007 131.15 496.231 131.022 496.504 131.022C496.777 131.022 497.182 130.767 497.403 130.455C497.625 130.143 497.979 129.888 498.191 129.888C498.402 129.888 498.928 129.505 499.358 129.037C499.789 128.569 500.28 128.186 500.45 128.186C500.849 128.186 511.088 117.795 511.088 117.389C511.088 117.22 511.591 116.591 512.205 115.991C512.82 115.392 513.323 114.728 513.323 114.516C513.323 114.304 513.574 113.947 513.881 113.723C514.188 113.498 514.44 113.115 514.44 112.872C514.44 112.629 514.691 112.246 514.998 112.021C515.306 111.795 515.557 111.287 515.557 110.887C515.557 110.486 515.807 109.978 516.115 109.752C516.423 109.527 516.674 109.116 516.674 108.839C516.674 108.561 516.8 108.334 516.953 108.334C517.107 108.334 517.233 108.079 517.233 107.767C517.233 107.455 517.358 107.2 517.512 107.2C517.665 107.2 517.791 106.817 517.791 106.349C517.791 105.881 517.917 105.498 518.07 105.498C518.224 105.498 518.35 105.243 518.35 104.931C518.35 104.619 518.475 104.364 518.629 104.364C518.783 104.364 518.908 104.109 518.908 103.797C518.908 103.485 519.034 103.229 519.188 103.229C519.341 103.229 519.467 102.847 519.467 102.379C519.467 101.911 519.592 101.528 519.746 101.528C519.9 101.528 520.025 101.145 520.025 100.677C520.025 100.209 520.151 99.8263 520.305 99.8263C520.458 99.8263 520.584 99.4434 520.584 98.9755C520.584 98.5075 520.71 98.1247 520.863 98.1247C521.017 98.1247 521.143 97.7418 521.143 97.2739C521.143 96.806 521.268 96.4231 521.422 96.4231C521.575 96.4231 521.701 95.9126 521.701 95.2887C521.701 94.6648 521.827 94.1543 521.98 94.1543C522.134 94.1543 522.26 93.7715 522.26 93.3035C522.26 92.8356 522.385 92.4527 522.539 92.4527C522.693 92.4527 522.818 91.8146 522.818 91.0348C522.818 90.2549 522.944 89.6168 523.097 89.6168C523.251 89.6168 523.377 88.9787 523.377 88.1988C523.377 87.4189 523.502 86.7808 523.656 86.7808C523.811 86.7808 523.935 86.0244 523.935 85.0792C523.935 84.134 524.059 83.3776 524.215 83.3776C524.38 83.3776 524.494 82.3377 524.494 80.8252C524.494 79.3128 524.608 78.2729 524.773 78.2729C524.946 78.2729 525.052 76.7604 525.052 74.3025C525.052 71.8446 525.159 70.3321 525.332 70.3321C525.51 70.3321 525.611 67.9689 525.611 63.8094C525.611 59.6499 525.51 57.2867 525.332 57.2867C525.159 57.2867 525.052 55.7742 525.052 53.3163C525.052 50.8584 524.946 49.3459 524.773 49.3459C524.61 49.3459 524.494 48.4007 524.494 47.0772C524.494 45.7536 524.377 44.8084 524.215 44.8084C524.059 44.8084 523.935 44.052 523.935 43.1068C523.935 42.1616 523.811 41.4052 523.656 41.4052C523.502 41.4052 523.377 40.7671 523.377 39.9872C523.377 39.2073 523.251 38.5692 523.097 38.5692C522.944 38.5692 522.818 38.0588 522.818 37.4348C522.818 36.8109 522.693 36.3005 522.539 36.3005C522.385 36.3005 522.26 35.79 522.26 35.1661C522.26 34.5422 522.134 34.0317 521.98 34.0317C521.827 34.0317 521.701 33.5212 521.701 32.8973C521.701 32.2734 521.575 31.7629 521.422 31.7629C521.268 31.7629 521.143 31.38 521.143 30.9121C521.143 30.4442 521.017 30.0613 520.863 30.0613C520.71 30.0613 520.584 29.6785 520.584 29.2105C520.584 28.7426 520.458 28.3597 520.305 28.3597C520.151 28.3597 520.025 27.9769 520.025 27.5089C520.025 27.041 519.9 26.6581 519.746 26.6581C519.592 26.6581 519.467 26.4029 519.467 26.091C519.467 25.779 519.341 25.5238 519.188 25.5238C519.034 25.5238 518.908 25.1409 518.908 24.673C518.908 24.205 518.783 23.8222 518.629 23.8222C518.475 23.8222 518.35 23.5669 518.35 23.255C518.35 22.943 518.224 22.6878 518.07 22.6878C517.917 22.6878 517.791 22.4325 517.791 22.1206C517.791 21.8086 517.665 21.5534 517.512 21.5534C517.358 21.5534 517.233 21.2982 517.233 20.9862C517.233 20.6742 517.107 20.419 516.953 20.419C516.8 20.419 516.674 20.1638 516.674 19.8518C516.674 19.5399 516.548 19.2846 516.395 19.2846C516.241 19.2846 516.115 19.0294 516.115 18.7174C516.115 18.4055 515.99 18.1502 515.836 18.1502C515.682 18.1502 515.557 17.895 515.557 17.583C515.557 17.2711 515.431 17.0158 515.278 17.0158C515.124 17.0158 514.998 16.8119 514.998 16.5624C514.998 16.3131 514.621 15.7513 514.16 15.3143C513.7 14.8772 513.323 14.3778 513.323 14.2045C513.323 13.7936 507.559 7.94073 507.154 7.94073C506.983 7.94073 506.492 7.55787 506.061 7.08993C505.631 6.622 505.105 6.23914 504.894 6.23914C504.682 6.23914 504.328 5.9839 504.106 5.67195C503.885 5.35999 503.508 5.10475 503.268 5.10475C503.029 5.10475 502.652 4.84952 502.43 4.53756C502.209 4.2256 501.804 3.97036 501.531 3.97036C501.258 3.97036 501.034 3.84274 501.034 3.68676C501.034 3.53079 500.783 3.40317 500.475 3.40317C500.168 3.40317 499.917 3.27555 499.917 3.11957C499.917 2.96359 499.414 2.83598 498.8 2.83598C498.185 2.83598 497.683 2.70835 497.683 2.55238C497.683 2.3964 497.306 2.26878 496.845 2.26878C496.384 2.26878 496.007 2.14116 496.007 1.98518C496.007 1.8292 495.504 1.70159 494.89 1.70159C494.275 1.70159 493.773 1.57397 493.773 1.41799C493.773 1.26201 493.144 1.13439 492.376 1.13439C491.608 1.13439 490.98 1.00677 490.98 0.850795C490.98 0.685458 490.049 0.567194 488.746 0.567194C487.442 0.567194 486.511 0.448938 486.511 0.283601C486.511 0.104368 484.556 0 481.205 0C477.854 0 475.899 0.104368 475.899 0.283601ZM527.287 0.283601C527.287 0.43958 527.664 0.567194 528.125 0.567194C528.585 0.567194 528.962 0.694816 528.962 0.850795C528.962 1.00677 529.465 1.13439 530.08 1.13439C530.694 1.13439 531.197 1.26201 531.197 1.41799C531.197 1.57397 531.448 1.70159 531.755 1.70159C532.062 1.70159 532.314 1.8292 532.314 1.98518C532.314 2.14116 532.565 2.26878 532.872 2.26878C533.18 2.26878 533.431 2.3964 533.431 2.55238C533.431 2.70835 533.78 2.83598 534.207 2.83598C534.663 2.83598 535.149 3.07023 535.386 3.40317C535.607 3.71513 535.951 3.97036 536.149 3.97036C536.657 3.97036 541.809 9.25889 541.809 9.78042C541.809 10.0164 541.935 10.2095 542.089 10.2095C542.242 10.2095 542.368 10.4647 542.368 10.7767C542.368 11.0887 542.494 11.3439 542.647 11.3439C542.801 11.3439 542.927 11.5991 542.927 11.9111C542.927 12.2231 543.052 12.4783 543.206 12.4783C543.359 12.4783 543.485 12.8611 543.485 13.3291C543.485 13.797 543.611 14.1799 543.764 14.1799C543.918 14.1799 544.044 14.6903 544.044 15.3143C544.044 15.9382 544.169 16.4486 544.323 16.4486C544.508 16.4486 544.602 35.9763 544.602 74.4644C544.602 124.367 544.658 132.537 545.001 132.886C545.282 133.171 546.076 133.291 547.674 133.291C549.273 133.291 550.067 133.171 550.347 132.886C550.69 132.537 550.746 124.934 550.746 78.7184V24.9566H552.012C553.085 24.9566 553.427 25.1072 554.247 25.9398C554.779 26.4803 555.215 27.0674 555.215 27.2438C555.215 27.4205 555.592 27.9227 556.053 28.3597C556.514 28.7968 556.891 29.3072 556.891 29.4941C556.891 29.681 557.268 30.1915 557.729 30.6285C558.189 31.0655 558.566 31.5993 558.566 31.814C558.566 32.0289 558.818 32.3888 559.125 32.6137C559.432 32.8386 559.684 33.1985 559.684 33.4134C559.684 33.6281 560.061 34.1619 560.521 34.5989C560.982 35.0359 561.359 35.5696 561.359 35.7843C561.359 35.9993 561.611 36.3592 561.918 36.5841C562.225 36.809 562.476 37.1918 562.476 37.4348C562.476 37.6779 562.728 38.0607 563.035 38.2856C563.342 38.5105 563.594 38.8934 563.594 39.1364C563.594 39.3795 563.845 39.7623 564.152 39.9872C564.459 40.2121 564.711 40.595 564.711 40.838C564.711 41.0811 564.962 41.4639 565.269 41.6888C565.576 41.9137 565.828 42.2736 565.828 42.4886C565.828 42.7032 566.205 43.237 566.666 43.674C567.126 44.111 567.503 44.6447 567.503 44.8594C567.503 45.0744 567.755 45.4343 568.062 45.6592C568.369 45.8841 568.621 46.2669 568.621 46.51C568.621 46.753 568.872 47.1359 569.179 47.3608C569.486 47.5856 569.738 47.9685 569.738 48.2116C569.738 48.4546 569.989 48.8375 570.296 49.0623C570.604 49.2872 570.855 49.6701 570.855 49.9131C570.855 50.1562 571.106 50.539 571.413 50.7639C571.721 50.9888 571.972 51.3487 571.972 51.5637C571.972 51.7784 572.349 52.3121 572.81 52.7491C573.271 53.1861 573.648 53.7199 573.648 53.9345C573.648 54.1495 573.899 54.5094 574.206 54.7343C574.513 54.9592 574.765 55.3191 574.765 55.534C574.765 55.7487 575.142 56.2824 575.603 56.7195C576.064 57.1565 576.441 57.6902 576.441 57.9049C576.441 58.1199 576.692 58.4798 576.999 58.7047C577.306 58.9295 577.558 59.3124 577.558 59.5554C577.558 59.7985 577.809 60.1813 578.116 60.4062C578.423 60.6311 578.675 61.014 578.675 61.257C578.675 61.5001 578.926 61.8829 579.233 62.1078C579.541 62.3327 579.792 62.6926 579.792 62.9076C579.792 63.1223 580.169 63.656 580.63 64.093C581.091 64.53 581.468 65.0918 581.468 65.3411C581.468 65.5907 581.593 65.7946 581.747 65.7946C581.901 65.7946 582.026 66.0217 582.026 66.2991C582.026 66.5767 582.278 66.9877 582.585 67.2126C582.892 67.4375 583.143 67.8203 583.143 68.0634C583.143 68.3064 583.395 68.6893 583.702 68.9142C584.009 69.139 584.26 69.4989 584.26 69.7139C584.26 69.9286 584.638 70.4623 585.098 70.8993C585.559 71.3364 585.936 71.8701 585.936 72.0848C585.936 72.2997 586.188 72.6596 586.495 72.8845C586.802 73.1094 587.053 73.4693 587.053 73.6843C587.053 73.8989 587.43 74.4327 587.891 74.8697C588.352 75.3067 588.729 75.8405 588.729 76.0551C588.729 76.2701 588.98 76.63 589.288 76.8549C589.595 77.0798 589.846 77.4626 589.846 77.7057C589.846 77.9487 590.098 78.3316 590.405 78.5565C590.712 78.7813 590.963 79.1642 590.963 79.4072C590.963 79.6503 591.215 80.0331 591.522 80.258C591.829 80.4829 592.08 80.8428 592.08 81.0578C592.08 81.2725 592.457 81.8062 592.918 82.2432C593.379 82.6803 593.756 83.214 593.756 83.4287C593.756 83.6436 594.008 84.0035 594.315 84.2284C594.622 84.4533 594.873 84.8642 594.873 85.1419C594.873 85.4192 594.999 85.6464 595.153 85.6464C595.306 85.6464 595.432 85.8503 595.432 86.0999C595.432 86.3492 595.809 86.9109 596.27 87.348C596.73 87.785 597.107 88.3188 597.107 88.5334C597.107 88.7484 597.359 89.1083 597.666 89.3332C597.973 89.5581 598.225 89.9409 598.225 90.184C598.225 90.427 598.476 90.8099 598.783 91.0348C599.09 91.2596 599.342 91.6195 599.342 91.8345C599.342 92.0492 599.719 92.5829 600.18 93.0199C600.64 93.457 601.017 93.9907 601.017 94.2054C601.017 94.4203 601.269 94.7802 601.576 95.0051C601.883 95.23 602.135 95.6129 602.135 95.8559C602.135 96.0989 602.386 96.4818 602.693 96.7067C603 96.9316 603.252 97.3144 603.252 97.5575C603.252 97.8005 603.503 98.1834 603.81 98.4083C604.117 98.6332 604.369 98.993 604.369 99.208C604.369 99.4227 604.746 99.9564 605.207 100.393C605.668 100.83 606.045 101.364 606.045 101.579C606.045 101.794 606.296 102.154 606.603 102.379C606.91 102.604 607.162 102.986 607.162 103.229C607.162 103.472 607.413 103.855 607.72 104.08C608.027 104.305 608.279 104.688 608.279 104.931C608.279 105.174 608.53 105.557 608.837 105.782C609.145 106.007 609.396 106.39 609.396 106.633C609.396 106.876 609.647 107.259 609.955 107.483C610.262 107.708 610.513 108.091 610.513 108.334C610.513 108.577 610.764 108.96 611.072 109.185C611.379 109.41 611.63 109.77 611.63 109.985C611.63 110.199 612.007 110.733 612.468 111.17C612.929 111.607 613.306 112.141 613.306 112.356C613.306 112.571 613.557 112.93 613.864 113.155C614.172 113.38 614.423 113.763 614.423 114.006C614.423 114.249 614.674 114.632 614.982 114.857C615.289 115.082 615.54 115.442 615.54 115.657C615.54 115.871 615.917 116.405 616.378 116.842C616.839 117.279 617.216 117.813 617.216 118.028C617.216 118.243 617.467 118.602 617.774 118.827C618.082 119.052 618.333 119.435 618.333 119.678C618.333 119.921 618.584 120.304 618.892 120.529C619.199 120.754 619.45 121.114 619.45 121.329C619.45 121.543 619.827 122.077 620.288 122.514C620.749 122.951 621.126 123.513 621.126 123.762C621.126 124.012 621.252 124.216 621.405 124.216C621.559 124.216 621.684 124.42 621.684 124.669C621.684 124.918 622.061 125.48 622.522 125.917C622.983 126.354 623.36 126.888 623.36 127.103C623.36 127.318 623.612 127.678 623.919 127.902C624.226 128.127 624.477 128.51 624.477 128.753C624.477 128.996 624.729 129.379 625.036 129.604C625.343 129.829 625.594 130.212 625.594 130.455C625.594 130.698 625.846 131.081 626.153 131.306C626.46 131.53 626.712 131.884 626.712 132.09C626.712 132.452 627.923 133.858 628.235 133.858C628.319 133.858 628.387 105.654 628.387 71.1829C628.387 29.5886 628.481 8.50792 628.667 8.50792C628.82 8.50792 628.946 8.25269 628.946 7.94073C628.946 7.62877 629.071 7.37354 629.225 7.37354C629.379 7.37354 629.504 7.17644 629.504 6.93538C629.504 6.3679 630.748 5.10475 631.307 5.10475C631.545 5.10475 631.739 4.97714 631.739 4.82116C631.739 4.66518 632.116 4.53756 632.576 4.53756C633.037 4.53756 633.414 4.40994 633.414 4.25397C633.414 4.09799 633.917 3.97036 634.531 3.97036C635.146 3.97036 635.649 3.84274 635.649 3.68676C635.649 3.52908 636.393 3.40317 637.324 3.40317H639V1.70159V0H625.874C617.309 0 612.747 0.0986958 612.747 0.283601C612.747 0.43958 612.999 0.567194 613.306 0.567194C613.613 0.567194 613.864 0.694816 613.864 0.850795C613.864 1.00677 614.242 1.13439 614.702 1.13439C615.163 1.13439 615.54 1.26201 615.54 1.41799C615.54 1.57397 615.792 1.70159 616.099 1.70159C616.406 1.70159 616.657 1.8292 616.657 1.98518C616.657 2.14116 616.909 2.26878 617.216 2.26878C617.523 2.26878 617.774 2.3964 617.774 2.55238C617.774 2.70835 618.092 2.83598 618.48 2.83598C619.269 2.83598 621.684 5.07497 621.684 5.80637C621.684 6.04431 621.81 6.23914 621.964 6.23914C622.117 6.23914 622.243 6.49439 622.243 6.80634C622.243 7.1183 622.369 7.37354 622.522 7.37354C622.676 7.37354 622.802 7.62877 622.802 7.94073C622.802 8.25269 622.927 8.50792 623.081 8.50792C623.266 8.50792 623.36 24.2949 623.36 55.3015C623.36 86.308 623.266 102.095 623.081 102.095C622.927 102.095 622.802 101.868 622.802 101.59C622.802 101.313 622.55 100.902 622.243 100.677C621.936 100.452 621.684 100.041 621.684 99.7636C621.684 99.4863 621.559 99.2591 621.405 99.2591C621.252 99.2591 621.126 99.0552 621.126 98.8056C621.126 98.5563 620.749 97.9945 620.288 97.5575C619.827 97.1205 619.45 96.5867 619.45 96.372C619.45 96.1571 619.199 95.7972 618.892 95.5723C618.584 95.3474 618.333 94.9875 618.333 94.7726C618.333 94.5579 617.956 94.0241 617.495 93.5871C617.034 93.1501 616.657 92.6163 616.657 92.4017C616.657 92.1867 616.406 91.8268 616.099 91.6019C615.792 91.377 615.54 91.0172 615.54 90.8022C615.54 90.5875 615.163 90.0538 614.702 89.6168C614.242 89.1797 613.864 88.646 613.864 88.4313C613.864 88.2163 613.613 87.8565 613.306 87.6316C612.999 87.4067 612.747 87.0238 612.747 86.7808C612.747 86.5377 612.496 86.1549 612.189 85.93C611.882 85.7051 611.63 85.3452 611.63 85.1303C611.63 84.9156 611.253 84.3818 610.792 83.9448C610.332 83.5078 609.955 82.9741 609.955 82.7594C609.955 82.5444 609.703 82.1845 609.396 81.9596C609.089 81.7347 608.837 81.3519 608.837 81.1088C608.837 80.8658 608.586 80.4829 608.279 80.258C607.972 80.0331 607.72 79.6503 607.72 79.4072C607.72 79.1642 607.469 78.7813 607.162 78.5565C606.855 78.3316 606.603 77.9487 606.603 77.7057C606.603 77.4626 606.352 77.0798 606.045 76.8549C605.737 76.63 605.486 76.2701 605.486 76.0551C605.486 75.8405 605.109 75.3067 604.648 74.8697C604.187 74.4327 603.81 73.9222 603.81 73.7353C603.81 73.5484 603.433 73.038 602.972 72.6009C602.512 72.1639 602.135 71.6302 602.135 71.4155C602.135 71.2005 601.883 70.8406 601.576 70.6157C601.269 70.3909 601.017 70.008 601.017 69.7649C601.017 69.5219 600.766 69.139 600.459 68.9142C600.152 68.6893 599.9 68.3294 599.9 68.1144C599.9 67.8997 599.523 67.366 599.062 66.929C598.602 66.4919 598.225 65.9582 598.225 65.7435C598.225 65.5286 597.973 65.1687 597.666 64.9438C597.359 64.7189 597.107 64.336 597.107 64.093C597.107 63.85 596.856 63.4671 596.549 63.2422C596.242 63.0173 595.99 62.6345 595.99 62.3914C595.99 62.1484 595.739 61.7655 595.432 61.5406C595.125 61.3157 594.873 60.9329 594.873 60.6898C594.873 60.4468 594.622 60.0639 594.315 59.839C594.008 59.6141 593.756 59.2543 593.756 59.0393C593.756 58.8246 593.379 58.2909 592.918 57.8539C592.457 57.4168 592.08 56.9064 592.08 56.7195C592.08 56.5326 591.703 56.0221 591.243 55.5851C590.782 55.1481 590.405 54.6143 590.405 54.3996C590.405 54.1847 590.153 53.8248 589.846 53.5999C589.539 53.375 589.288 52.9921 589.288 52.7491C589.288 52.5061 589.036 52.1232 588.729 51.8983C588.422 51.6734 588.17 51.2906 588.17 51.0475C588.17 50.8045 587.919 50.4216 587.612 50.1967C587.305 49.9718 587.053 49.6119 587.053 49.397C587.053 49.1823 586.676 48.6486 586.216 48.2116C585.755 47.7745 585.378 47.2408 585.378 47.0261C585.378 46.8111 585.126 46.4513 584.819 46.2264C584.512 46.0015 584.26 45.6186 584.26 45.3756C584.26 45.1325 584.009 44.7497 583.702 44.5248C583.395 44.2999 583.143 43.917 583.143 43.674C583.143 43.4309 582.892 43.0481 582.585 42.8232C582.278 42.5983 582.026 42.2155 582.026 41.9724C582.026 41.7294 581.775 41.3465 581.468 41.1216C581.16 40.8967 580.909 40.5368 580.909 40.3219C580.909 40.1072 580.532 39.5735 580.071 39.1364C579.61 38.6994 579.233 38.1889 579.233 38.002C579.233 37.8152 578.856 37.3047 578.396 36.8677C577.935 36.4306 577.558 35.8969 577.558 35.6822C577.558 35.4673 577.306 35.1074 576.999 34.8825C576.692 34.6576 576.441 34.2747 576.441 34.0317C576.441 33.7886 576.189 33.4058 575.882 33.1809C575.575 32.956 575.323 32.5731 575.323 32.3301C575.323 32.0871 575.072 31.7042 574.765 31.4793C574.458 31.2544 574.206 30.8945 574.206 30.6796C574.206 30.4649 573.829 29.9311 573.368 29.4941C572.908 29.0571 572.531 28.5234 572.531 28.3087C572.531 28.0937 572.279 27.7338 571.972 27.5089C571.665 27.284 571.413 26.9242 571.413 26.7092C571.413 26.4945 571.036 25.9608 570.576 25.5238C570.115 25.0867 569.738 24.553 569.738 24.3383C569.738 24.1234 569.486 23.7635 569.179 23.5386C568.872 23.3137 568.621 22.9308 568.621 22.6878C568.621 22.4447 568.369 22.0619 568.062 21.837C567.755 21.6121 567.503 21.2292 567.503 20.9862C567.503 20.7432 567.252 20.3603 566.945 20.1354C566.638 19.9105 566.386 19.5277 566.386 19.2846C566.386 19.0416 566.135 18.6587 565.828 18.4338C565.521 18.2089 565.269 17.8519 565.269 17.64C565.269 17.4282 564.767 16.7646 564.152 16.1651C563.538 15.5655 563.035 14.9019 563.035 14.6901C563.035 14.4782 562.784 14.1212 562.476 13.8963C562.169 13.6714 561.918 13.2885 561.918 13.0455C561.918 12.8024 561.666 12.4196 561.359 12.1947C561.052 11.9698 560.801 11.5869 560.801 11.3439C560.801 11.1008 560.549 10.718 560.242 10.4931C559.935 10.2682 559.684 9.90832 559.684 9.69335C559.684 9.47867 559.307 8.94495 558.846 8.50792C558.385 8.0709 558.008 7.53717 558.008 7.32248C558.008 7.10752 557.756 6.74763 557.449 6.52274C557.142 6.29785 556.891 5.91499 556.891 5.67195C556.891 5.4289 556.639 5.04605 556.332 4.82116C556.025 4.59627 555.774 4.21341 555.774 3.97036C555.774 3.72732 555.522 3.34446 555.215 3.11957C554.908 2.89468 554.656 2.54329 554.656 2.33853C554.656 2.13378 554.221 1.52377 553.688 0.98323L552.72 0H540.003C531.712 0 527.287 0.0986958 527.287 0.283601ZM118.975 56.4359C118.975 93.4927 118.881 112.305 118.695 112.305C118.536 112.305 118.416 113.155 118.416 114.29C118.416 115.424 118.296 116.275 118.137 116.275C117.983 116.275 117.858 116.785 117.858 117.409C117.858 118.033 117.732 118.544 117.578 118.544C117.425 118.544 117.299 119.026 117.299 119.615C117.299 120.362 117.129 120.811 116.74 121.096C116.433 121.321 116.182 121.732 116.182 122.01C116.182 122.287 116.056 122.514 115.903 122.514C115.749 122.514 115.623 122.71 115.623 122.949C115.623 123.48 113.829 125.35 113.32 125.35C113.119 125.35 112.773 125.605 112.551 125.917C112.33 126.229 111.925 126.484 111.652 126.484C111.378 126.484 111.155 126.612 111.155 126.768C111.155 126.924 110.903 127.052 110.596 127.052C110.289 127.052 110.038 127.179 110.038 127.335C110.038 127.491 109.661 127.619 109.2 127.619C108.739 127.619 108.362 127.746 108.362 127.902C108.362 128.058 107.985 128.186 107.524 128.186C107.063 128.186 106.686 128.314 106.686 128.47C106.686 128.626 106.309 128.753 105.848 128.753C105.388 128.753 105.01 128.881 105.01 129.037C105.01 129.193 104.633 129.32 104.173 129.32C103.712 129.32 103.335 129.448 103.335 129.604C103.335 129.76 102.958 129.888 102.497 129.888C102.036 129.888 101.659 130.015 101.659 130.171C101.659 130.327 101.408 130.455 101.101 130.455C100.793 130.455 100.542 130.582 100.542 130.738C100.542 130.894 100.348 131.022 100.11 131.022C99.5516 131.022 98.3077 132.285 98.3077 132.853C98.3077 133.246 103.009 133.291 144.366 133.291C180.951 133.291 190.454 133.218 190.566 132.936C190.673 132.669 190.787 132.686 191.03 133.007C191.273 133.328 191.386 133.346 191.493 133.078C191.571 132.883 191.819 132.724 192.043 132.724C192.583 132.724 193.823 131.449 193.823 130.893C193.823 130.652 193.948 130.455 194.102 130.455C194.255 130.455 194.381 130.072 194.381 129.604C194.381 129.136 194.507 128.753 194.66 128.753C194.814 128.753 194.94 128.115 194.94 127.335C194.94 126.555 195.065 125.917 195.219 125.917C195.374 125.917 195.498 125.161 195.498 124.216C195.498 123.27 195.622 122.514 195.778 122.514C195.943 122.514 196.057 121.474 196.057 119.962C196.057 118.449 196.17 117.409 196.336 117.409C196.515 117.409 196.615 114.762 196.615 110.036C196.615 105.309 196.515 102.662 196.336 102.662C196.182 102.662 196.057 102.407 196.057 102.095C196.057 101.773 195.871 101.528 195.625 101.528C195.097 101.528 193.823 102.778 193.823 103.296C193.823 103.502 193.571 103.855 193.264 104.08C192.957 104.305 192.705 104.716 192.705 104.994C192.705 105.271 192.58 105.498 192.426 105.498C192.273 105.498 192.147 105.753 192.147 106.065C192.147 106.377 192.021 106.633 191.868 106.633C191.714 106.633 191.588 106.888 191.588 107.2C191.588 107.512 191.463 107.767 191.309 107.767C191.155 107.767 191.03 108.022 191.03 108.334C191.03 108.646 190.904 108.901 190.75 108.901C190.597 108.901 190.471 109.129 190.471 109.406C190.471 109.684 190.22 110.094 189.913 110.319C189.605 110.544 189.354 110.955 189.354 111.233C189.354 111.51 189.228 111.737 189.075 111.737C188.921 111.737 188.795 111.965 188.795 112.242C188.795 112.52 188.544 112.93 188.237 113.155C187.93 113.38 187.678 113.74 187.678 113.955C187.678 114.17 187.301 114.703 186.84 115.141C186.38 115.578 186.003 116.088 186.003 116.275C186.003 116.462 185.626 116.972 185.165 117.409C184.704 117.846 184.327 118.346 184.327 118.52C184.327 119 180.207 123.081 179.723 123.081C179.49 123.081 179.3 123.209 179.3 123.365C179.3 123.521 179.048 123.648 178.741 123.648C178.434 123.648 178.183 123.776 178.183 123.932C178.183 124.088 177.931 124.216 177.624 124.216C177.317 124.216 177.066 124.343 177.066 124.499C177.066 124.655 176.689 124.783 176.228 124.783C175.767 124.783 175.39 124.91 175.39 125.066C175.39 125.222 175.013 125.35 174.552 125.35C174.091 125.35 173.714 125.478 173.714 125.634C173.714 125.79 173.337 125.917 172.876 125.917C172.415 125.917 172.038 126.045 172.038 126.201C172.038 126.357 171.41 126.484 170.642 126.484C169.874 126.484 169.246 126.612 169.246 126.768C169.246 126.933 168.315 127.052 167.011 127.052C165.708 127.052 164.777 127.17 164.777 127.335C164.777 127.519 161.053 127.619 154.164 127.619C147.275 127.619 143.552 127.519 143.552 127.335C143.552 127.179 142.923 127.052 142.155 127.052C141.387 127.052 140.759 126.924 140.759 126.768C140.759 126.612 140.409 126.484 139.983 126.484C139.527 126.484 139.04 126.25 138.804 125.917C138.582 125.605 138.178 125.35 137.904 125.35C137.631 125.35 137.407 125.146 137.407 124.897C137.407 124.647 137.03 124.085 136.569 123.648C136.054 123.16 135.732 122.57 135.732 122.117C135.732 121.711 135.606 121.38 135.452 121.38C135.299 121.38 135.173 120.869 135.173 120.245C135.173 119.621 135.047 119.111 134.894 119.111C134.74 119.111 134.615 118.473 134.615 117.693C134.615 116.913 134.489 116.275 134.335 116.275C134.165 116.275 134.056 114.951 134.056 112.872C134.056 110.792 133.947 109.469 133.777 109.469C133.592 109.469 133.497 95.5723 133.497 68.347C133.497 41.1216 133.592 27.2253 133.777 27.2253C133.954 27.2253 134.056 25.0034 134.056 21.1266V15.0275L127.773 8.6483C124.318 5.13964 121.302 2.26878 121.071 2.26878C120.839 2.26878 120.65 2.06828 120.65 1.82326C120.65 1.57794 120.471 1.19509 120.251 0.972462C120.032 0.749554 119.655 0.567194 119.413 0.567194C119.016 0.567194 118.975 5.8353 118.975 56.4359ZM243.256 2.26878C243.034 2.58074 242.63 2.83598 242.356 2.83598C242.046 2.83598 241.859 3.04839 241.859 3.40317C241.859 3.89465 242.046 3.97036 243.256 3.97036C244.024 3.97036 244.652 4.09799 244.652 4.25397C244.652 4.40994 245.155 4.53756 245.769 4.53756C246.384 4.53756 246.886 4.66518 246.886 4.82116C246.886 4.97714 247.361 5.10475 247.942 5.10475C248.677 5.10475 249.12 5.27689 249.4 5.67195C249.621 5.9839 249.969 6.23914 250.172 6.23914C250.682 6.23914 251.913 7.53377 251.913 8.06977C251.913 8.31082 252.039 8.50792 252.193 8.50792C252.346 8.50792 252.472 8.76316 252.472 9.07512C252.472 9.38707 252.598 9.64231 252.751 9.64231C252.921 9.64231 253.031 10.8711 253.031 12.7619C253.031 14.6526 252.921 15.8814 252.751 15.8814C252.592 15.8814 252.472 16.7322 252.472 17.8666C252.472 19.001 252.352 19.8518 252.193 19.8518C252.039 19.8518 251.913 20.3623 251.913 20.9862C251.913 21.6101 251.788 22.1206 251.634 22.1206C251.481 22.1206 251.355 22.6311 251.355 23.255C251.355 23.8789 251.229 24.3894 251.076 24.3894C250.922 24.3894 250.796 24.8998 250.796 25.5238C250.796 26.1477 250.671 26.6581 250.517 26.6581C250.363 26.6581 250.238 27.041 250.238 27.5089C250.238 27.9769 250.112 28.3597 249.958 28.3597C249.805 28.3597 249.679 28.7426 249.679 29.2105C249.679 29.6785 249.554 30.0613 249.4 30.0613C249.246 30.0613 249.121 30.4442 249.121 30.9121C249.121 31.38 248.995 31.7629 248.841 31.7629C248.688 31.7629 248.562 32.1458 248.562 32.6137C248.562 33.0816 248.436 33.4645 248.283 33.4645C248.129 33.4645 248.003 33.975 248.003 34.5989C248.003 35.2228 247.878 35.7333 247.724 35.7333C247.571 35.7333 247.445 36.1161 247.445 36.5841C247.445 37.052 247.319 37.4348 247.166 37.4348C247.012 37.4348 246.886 37.8177 246.886 38.2856C246.886 38.7536 246.761 39.1364 246.607 39.1364C246.453 39.1364 246.328 39.5193 246.328 39.9872C246.328 40.4552 246.202 40.838 246.049 40.838C245.895 40.838 245.769 41.2209 245.769 41.6888C245.769 42.1567 245.644 42.5396 245.49 42.5396C245.336 42.5396 245.211 43.0501 245.211 43.674C245.211 44.2979 245.085 44.8084 244.931 44.8084C244.778 44.8084 244.652 45.1912 244.652 45.6592C244.652 46.1271 244.526 46.51 244.373 46.51C244.219 46.51 244.094 46.8928 244.094 47.3608C244.094 47.8287 243.968 48.2116 243.814 48.2116C243.661 48.2116 243.535 48.5944 243.535 49.0623C243.535 49.5303 243.409 49.9131 243.256 49.9131C243.102 49.9131 242.976 50.296 242.976 50.7639C242.976 51.2319 242.851 51.6147 242.697 51.6147C242.544 51.6147 242.418 51.9976 242.418 52.4655C242.418 52.9334 242.292 53.3163 242.139 53.3163C241.985 53.3163 241.859 53.6992 241.859 54.1671C241.859 54.635 241.734 55.0179 241.58 55.0179C241.426 55.0179 241.301 55.5284 241.301 56.1523C241.301 56.7762 241.175 57.2867 241.021 57.2867C240.868 57.2867 240.742 57.5419 240.742 57.8539C240.742 58.1658 240.616 58.4211 240.463 58.4211C240.309 58.4211 240.184 58.9315 240.184 59.5554C240.184 60.1794 240.058 60.6898 239.904 60.6898C239.751 60.6898 239.625 61.0727 239.625 61.5406C239.625 62.0086 239.499 62.3914 239.346 62.3914C239.192 62.3914 239.066 62.7743 239.066 63.2422C239.066 63.7101 238.941 64.093 238.787 64.093C238.634 64.093 238.508 64.4759 238.508 64.9438C238.508 65.4117 238.382 65.7946 238.229 65.7946C238.075 65.7946 237.949 66.3051 237.949 66.929C237.949 67.5529 237.824 68.0634 237.67 68.0634C237.516 68.0634 237.391 68.4462 237.391 68.9142C237.391 69.3821 237.265 69.7649 237.111 69.7649C236.958 69.7649 236.832 70.1478 236.832 70.6157C236.832 71.0837 236.706 71.4665 236.553 71.4665C236.399 71.4665 236.274 71.977 236.274 72.6009C236.274 73.2248 236.148 73.7353 235.994 73.7353C235.841 73.7353 235.715 74.1182 235.715 74.5861C235.715 75.054 235.589 75.4369 235.436 75.4369C235.282 75.4369 235.156 75.8197 235.156 76.2877C235.156 76.7556 235.031 77.1385 234.877 77.1385C234.724 77.1385 234.598 77.5213 234.598 77.9893C234.598 78.4572 234.472 78.8401 234.319 78.8401C234.165 78.8401 234.039 79.2229 234.039 79.6909C234.039 80.1588 233.914 80.5416 233.76 80.5416C233.606 80.5416 233.481 81.0521 233.481 81.676C233.481 82.2999 233.355 82.8104 233.201 82.8104C233.048 82.8104 232.922 83.1933 232.922 83.6612C232.922 84.1291 232.797 84.512 232.643 84.512C232.489 84.512 232.364 84.8949 232.364 85.3628C232.364 85.8307 232.238 86.2136 232.084 86.2136C231.931 86.2136 231.805 86.5965 231.805 87.0644C231.805 87.5323 231.679 87.9152 231.526 87.9152C231.372 87.9152 231.246 88.298 231.246 88.766C231.246 89.2339 231.121 89.6168 230.967 89.6168C230.814 89.6168 230.688 89.9996 230.688 90.4676C230.688 90.9355 230.562 91.3183 230.409 91.3183C230.255 91.3183 230.129 91.8288 230.129 92.4527C230.129 93.0766 230.004 93.5871 229.85 93.5871C229.696 93.5871 229.571 93.97 229.571 94.4379C229.571 94.9058 229.445 95.2887 229.292 95.2887C229.138 95.2887 229.012 95.6716 229.012 96.1395C229.012 96.6074 228.887 96.9903 228.733 96.9903C228.579 96.9903 228.454 97.3731 228.454 97.8411C228.454 98.309 228.328 98.6919 228.174 98.6919C228.021 98.6919 227.895 99.0747 227.895 99.5427C227.895 100.011 227.769 100.393 227.616 100.393C227.462 100.393 227.337 100.776 227.337 101.244C227.337 101.712 227.211 102.095 227.057 102.095C226.904 102.095 226.778 102.478 226.778 102.946C226.778 103.414 226.652 103.797 226.499 103.797C226.345 103.797 226.219 104.307 226.219 104.931C226.219 105.555 226.094 106.065 225.94 106.065C225.787 106.065 225.661 106.321 225.661 106.633C225.661 106.945 225.535 107.2 225.382 107.2C225.228 107.2 225.102 107.71 225.102 108.334C225.102 108.958 224.977 109.469 224.823 109.469C224.669 109.469 224.544 109.979 224.544 110.603C224.544 111.227 224.418 111.737 224.264 111.737C224.111 111.737 223.985 112.12 223.985 112.588C223.985 113.056 223.859 113.439 223.706 113.439C223.552 113.439 223.427 113.822 223.427 114.29C223.427 114.758 223.301 115.141 223.147 115.141C222.994 115.141 222.868 115.523 222.868 115.991C222.868 116.459 222.742 116.842 222.589 116.842C222.435 116.842 222.309 117.353 222.309 117.976C222.309 118.6 222.184 119.111 222.03 119.111C221.877 119.111 221.751 119.494 221.751 119.962C221.751 120.43 221.625 120.812 221.472 120.812C221.318 120.812 221.192 121.195 221.192 121.663C221.192 122.131 221.067 122.514 220.913 122.514C220.759 122.514 220.634 122.897 220.634 123.365C220.634 123.833 220.508 124.216 220.354 124.216C220.201 124.216 220.075 124.598 220.075 125.066C220.075 125.534 219.95 125.917 219.796 125.917C219.642 125.917 219.517 126.428 219.517 127.052C219.517 127.676 219.391 128.186 219.237 128.186C219.084 128.186 218.958 128.569 218.958 129.037C218.958 129.505 218.832 129.888 218.679 129.888C218.525 129.888 218.399 130.471 218.399 131.184C218.399 132.522 218.851 133.291 219.636 133.291C219.878 133.291 220.075 133.418 220.075 133.574C220.075 133.73 220.578 133.858 221.192 133.858C221.807 133.858 222.309 133.73 222.309 133.574C222.309 133.418 222.561 133.291 222.868 133.291C223.24 133.291 223.427 133.102 223.427 132.724C223.427 132.412 223.552 132.156 223.706 132.156C223.859 132.156 223.985 131.774 223.985 131.306C223.985 130.838 224.111 130.455 224.264 130.455C224.418 130.455 224.544 130.072 224.544 129.604C224.544 129.136 224.669 128.753 224.823 128.753C224.977 128.753 225.102 128.243 225.102 127.619C225.102 126.995 225.228 126.484 225.382 126.484C225.535 126.484 225.661 125.974 225.661 125.35C225.661 124.726 225.787 124.216 225.94 124.216C226.094 124.216 226.219 123.833 226.219 123.365C226.219 122.897 226.345 122.514 226.499 122.514C226.652 122.514 226.778 122.131 226.778 121.663C226.778 121.195 226.904 120.812 227.057 120.812C227.211 120.812 227.337 120.302 227.337 119.678C227.337 119.054 227.462 118.544 227.616 118.544C227.769 118.544 227.895 118.033 227.895 117.409C227.895 116.785 228.021 116.275 228.174 116.275C228.328 116.275 228.454 115.892 228.454 115.424C228.454 114.956 228.579 114.573 228.733 114.573C228.887 114.573 229.012 114.19 229.012 113.723C229.012 113.255 229.138 112.872 229.292 112.872C229.445 112.872 229.571 112.361 229.571 111.737C229.571 111.113 229.696 110.603 229.85 110.603C230.004 110.603 230.129 110.22 230.129 109.752C230.129 109.284 230.255 108.901 230.409 108.901C230.562 108.901 230.688 108.391 230.688 107.767C230.688 107.143 230.814 106.633 230.967 106.633C231.121 106.633 231.246 106.25 231.246 105.782C231.246 105.314 231.372 104.931 231.526 104.931C231.679 104.931 231.805 104.421 231.805 103.797C231.805 103.173 231.931 102.662 232.084 102.662C232.238 102.662 232.364 102.279 232.364 101.811C232.364 101.344 232.489 100.961 232.643 100.961C232.797 100.961 232.922 100.45 232.922 99.8263C232.922 99.2023 233.048 98.6919 233.201 98.6919C233.355 98.6919 233.481 98.309 233.481 97.8411C233.481 97.3731 233.606 96.9903 233.76 96.9903C233.914 96.9903 234.039 96.6074 234.039 96.1395C234.039 95.6716 234.165 95.2887 234.319 95.2887C234.472 95.2887 234.598 94.7782 234.598 94.1543C234.598 93.5304 234.724 93.0199 234.877 93.0199C235.031 93.0199 235.156 92.6371 235.156 92.1691C235.156 91.7012 235.282 91.3183 235.436 91.3183C235.589 91.3183 235.715 90.8079 235.715 90.184C235.715 89.56 235.841 89.0496 235.994 89.0496C236.148 89.0496 236.274 88.6667 236.274 88.1988C236.274 87.7308 236.399 87.348 236.553 87.348C236.706 87.348 236.832 86.8375 236.832 86.2136C236.832 85.5897 236.958 85.0792 237.111 85.0792C237.265 85.0792 237.391 84.8787 237.391 84.6337C237.391 83.3555 237.03 83.3776 257.898 83.3776C270.852 83.3776 277.608 83.4749 277.608 83.6612C277.608 83.8172 277.931 83.9448 278.326 83.9448C279.242 83.9448 279.842 84.554 279.842 85.4844C279.842 85.8855 279.967 86.2136 280.121 86.2136C280.275 86.2136 280.4 86.5965 280.4 87.0644C280.4 87.5323 280.526 87.9152 280.68 87.9152C280.833 87.9152 280.959 88.4257 280.959 89.0496C280.959 89.6735 281.085 90.184 281.238 90.184C281.392 90.184 281.517 90.5668 281.517 91.0348C281.517 91.5027 281.643 91.8855 281.797 91.8855C281.95 91.8855 282.076 92.2684 282.076 92.7363C282.076 93.2043 282.202 93.5871 282.355 93.5871C282.509 93.5871 282.635 94.0976 282.635 94.7215C282.635 95.3454 282.76 95.8559 282.914 95.8559C283.068 95.8559 283.193 96.2388 283.193 96.7067C283.193 97.1746 283.319 97.5575 283.472 97.5575C283.626 97.5575 283.752 97.9403 283.752 98.4083C283.752 98.8762 283.877 99.2591 284.031 99.2591C284.185 99.2591 284.31 99.7695 284.31 100.393C284.31 101.017 284.436 101.528 284.59 101.528C284.743 101.528 284.869 101.911 284.869 102.379C284.869 102.847 284.995 103.229 285.148 103.229C285.302 103.229 285.427 103.612 285.427 104.08C285.427 104.548 285.553 104.931 285.707 104.931C285.86 104.931 285.986 105.441 285.986 106.065C285.986 106.689 286.112 107.2 286.265 107.2C286.419 107.2 286.545 107.583 286.545 108.051C286.545 108.519 286.67 108.901 286.824 108.901C286.977 108.901 287.103 109.284 287.103 109.752C287.103 110.22 287.229 110.603 287.382 110.603C287.536 110.603 287.662 111.113 287.662 111.737C287.662 112.361 287.787 112.872 287.941 112.872C288.095 112.872 288.22 113.255 288.22 113.723C288.22 114.19 288.346 114.573 288.5 114.573C288.653 114.573 288.779 114.956 288.779 115.424C288.779 115.892 288.905 116.275 289.058 116.275C289.212 116.275 289.337 116.785 289.337 117.409C289.337 118.033 289.463 118.544 289.617 118.544C289.77 118.544 289.896 118.741 289.896 118.982C289.896 119.482 291.113 120.812 291.571 120.812C291.738 120.812 292.87 121.833 294.085 123.081C295.301 124.329 296.43 125.35 296.594 125.35C296.758 125.35 298.645 127.137 300.788 129.32C302.931 131.504 304.825 133.291 304.998 133.291C305.171 133.291 305.664 133.674 306.094 134.142C306.857 134.97 307.77 135.279 307.77 134.709C307.77 134.553 307.644 134.425 307.491 134.425C307.337 134.425 307.212 134.042 307.212 133.574C307.212 133.106 307.086 132.724 306.932 132.724C306.779 132.724 306.653 132.341 306.653 131.873C306.653 131.405 306.527 131.022 306.374 131.022C306.22 131.022 306.094 130.512 306.094 129.888C306.094 129.264 305.969 128.753 305.815 128.753C305.662 128.753 305.536 128.37 305.536 127.902C305.536 127.434 305.41 127.052 305.257 127.052C305.103 127.052 304.977 126.669 304.977 126.201C304.977 125.733 304.852 125.35 304.698 125.35C304.544 125.35 304.419 124.967 304.419 124.499C304.419 124.031 304.293 123.648 304.139 123.648C303.986 123.648 303.86 123.138 303.86 122.514C303.86 121.89 303.734 121.38 303.581 121.38C303.427 121.38 303.302 120.997 303.302 120.529C303.302 120.061 303.176 119.678 303.022 119.678C302.869 119.678 302.743 119.295 302.743 118.827C302.743 118.359 302.617 117.976 302.464 117.976C302.31 117.976 302.184 117.594 302.184 117.126C302.184 116.658 302.059 116.275 301.905 116.275C301.752 116.275 301.626 115.764 301.626 115.141C301.626 114.517 301.5 114.006 301.347 114.006C301.193 114.006 301.067 113.623 301.067 113.155C301.067 112.687 300.942 112.305 300.788 112.305C300.634 112.305 300.509 111.922 300.509 111.454C300.509 110.986 300.383 110.603 300.229 110.603C300.076 110.603 299.95 110.22 299.95 109.752C299.95 109.284 299.824 108.901 299.671 108.901C299.517 108.901 299.392 108.519 299.392 108.051C299.392 107.583 299.266 107.2 299.112 107.2C298.959 107.2 298.833 106.817 298.833 106.349C298.833 105.881 298.707 105.498 298.554 105.498C298.4 105.498 298.274 105.115 298.274 104.647C298.274 104.179 298.149 103.797 297.995 103.797C297.842 103.797 297.716 103.414 297.716 102.946C297.716 102.478 297.59 102.095 297.437 102.095C297.283 102.095 297.157 101.585 297.157 100.961C297.157 100.337 297.032 99.8263 296.878 99.8263C296.724 99.8263 296.599 99.4434 296.599 98.9755C296.599 98.5075 296.473 98.1247 296.319 98.1247C296.166 98.1247 296.04 97.7418 296.04 97.2739C296.04 96.806 295.915 96.4231 295.761 96.4231C295.607 96.4231 295.482 96.0402 295.482 95.5723C295.482 95.1044 295.356 94.7215 295.202 94.7215C295.049 94.7215 294.923 94.3386 294.923 93.8707C294.923 93.4028 294.797 93.0199 294.644 93.0199C294.49 93.0199 294.365 92.6371 294.365 92.1691C294.365 91.7012 294.239 91.3183 294.085 91.3183C293.932 91.3183 293.806 90.8079 293.806 90.184C293.806 89.56 293.68 89.0496 293.527 89.0496C293.373 89.0496 293.247 88.6667 293.247 88.1988C293.247 87.7308 293.122 87.348 292.968 87.348C292.814 87.348 292.689 86.9651 292.689 86.4972C292.689 86.0293 292.563 85.6464 292.41 85.6464C292.256 85.6464 292.13 85.2635 292.13 84.7956C292.13 84.3277 292.005 83.9448 291.851 83.9448C291.697 83.9448 291.572 83.562 291.572 83.094C291.572 82.6261 291.446 82.2432 291.292 82.2432C291.139 82.2432 291.013 81.7328 291.013 81.1088C291.013 80.4849 290.887 79.9744 290.734 79.9744C290.58 79.9744 290.455 79.5916 290.455 79.1237C290.455 78.6557 290.329 78.2729 290.175 78.2729C290.022 78.2729 289.896 77.89 289.896 77.4221C289.896 76.9541 289.77 76.5713 289.617 76.5713C289.463 76.5713 289.337 76.0608 289.337 75.4369C289.337 74.813 289.212 74.3025 289.058 74.3025C288.905 74.3025 288.779 73.9196 288.779 73.4517C288.779 72.9838 288.653 72.6009 288.5 72.6009C288.346 72.6009 288.22 72.2181 288.22 71.7501C288.22 71.2822 288.095 70.8993 287.941 70.8993C287.787 70.8993 287.662 70.5165 287.662 70.0485C287.662 69.5806 287.536 69.1977 287.382 69.1977C287.229 69.1977 287.103 68.8149 287.103 68.347C287.103 67.879 286.977 67.4962 286.824 67.4962C286.67 67.4962 286.545 67.1133 286.545 66.6454C286.545 66.1774 286.419 65.7946 286.265 65.7946C286.112 65.7946 285.986 65.4117 285.986 64.9438C285.986 64.4759 285.86 64.093 285.707 64.093C285.553 64.093 285.427 63.5825 285.427 62.9586C285.427 62.3347 285.302 61.8242 285.148 61.8242C284.995 61.8242 284.869 61.4414 284.869 60.9734C284.869 60.5055 284.743 60.1226 284.59 60.1226C284.436 60.1226 284.31 59.7398 284.31 59.2719C284.31 58.8039 284.185 58.4211 284.031 58.4211C283.877 58.4211 283.752 58.0382 283.752 57.5703C283.752 57.1023 283.626 56.7195 283.472 56.7195C283.319 56.7195 283.193 56.3366 283.193 55.8687C283.193 55.4007 283.068 55.0179 282.914 55.0179C282.76 55.0179 282.635 54.635 282.635 54.1671C282.635 53.6992 282.509 53.3163 282.355 53.3163C282.202 53.3163 282.076 52.9334 282.076 52.4655C282.076 51.9976 281.95 51.6147 281.797 51.6147C281.643 51.6147 281.517 51.2319 281.517 50.7639C281.517 50.296 281.392 49.9131 281.238 49.9131C281.085 49.9131 280.959 49.5303 280.959 49.0623C280.959 48.5944 280.833 48.2116 280.68 48.2116C280.526 48.2116 280.4 47.7011 280.4 47.0772C280.4 46.4533 280.275 45.9428 280.121 45.9428C279.967 45.9428 279.842 45.5599 279.842 45.092C279.842 44.624 279.716 44.2412 279.562 44.2412C279.409 44.2412 279.283 43.8583 279.283 43.3904C279.283 42.9225 279.158 42.5396 279.004 42.5396C278.85 42.5396 278.725 42.0291 278.725 41.4052C278.725 40.7813 278.599 40.2708 278.445 40.2708C278.292 40.2708 278.166 40.0156 278.166 39.7036C278.166 39.3917 278.04 39.1364 277.887 39.1364C277.733 39.1364 277.608 38.4983 277.608 37.7184C277.608 36.9386 277.482 36.3005 277.328 36.3005C277.175 36.3005 277.049 35.9176 277.049 35.4497C277.049 34.9817 276.923 34.5989 276.77 34.5989C276.616 34.5989 276.49 34.216 276.49 33.7481C276.49 33.2801 276.365 32.8973 276.211 32.8973C276.057 32.8973 275.932 32.5144 275.932 32.0465C275.932 31.5786 275.806 31.1957 275.653 31.1957C275.499 31.1957 275.373 30.8129 275.373 30.3449C275.373 29.877 275.248 29.4941 275.094 29.4941C274.94 29.4941 274.815 29.1113 274.815 28.6433C274.815 28.1754 274.689 27.7925 274.535 27.7925C274.382 27.7925 274.256 27.2821 274.256 26.6581C274.256 26.0342 274.13 25.5238 273.977 25.5238C273.823 25.5238 273.698 25.2685 273.698 24.9566C273.698 24.6446 273.572 24.3894 273.418 24.3894C273.265 24.3894 273.139 24.0065 273.139 23.5386C273.139 23.0706 273.013 22.6878 272.86 22.6878C272.706 22.6878 272.58 22.3049 272.58 21.837C272.58 21.3691 272.455 20.9862 272.301 20.9862C272.148 20.9862 272.022 20.4757 272.022 19.8518C272.022 19.2279 271.896 18.7174 271.743 18.7174C271.589 18.7174 271.463 18.3346 271.463 17.8666C271.463 17.3987 271.338 17.0158 271.184 17.0158C271.03 17.0158 270.905 16.633 270.905 16.1651C270.905 15.6971 270.779 15.3143 270.625 15.3143C270.472 15.3143 270.346 14.9314 270.346 14.4635C270.346 13.9955 270.22 13.6127 270.067 13.6127C269.913 13.6127 269.788 13.2298 269.788 12.7619C269.788 12.2939 269.662 11.9111 269.508 11.9111C269.355 11.9111 269.229 11.5282 269.229 11.0603C269.229 10.5924 269.103 10.2095 268.95 10.2095C268.796 10.2095 268.67 9.69903 268.67 9.07512C268.67 8.4512 268.545 7.94073 268.391 7.94073C268.238 7.94073 268.112 7.55787 268.112 7.08993C268.112 6.622 267.986 6.23914 267.833 6.23914C267.679 6.23914 267.553 5.85629 267.553 5.38835C267.553 4.92042 267.428 4.53756 267.274 4.53756C267.12 4.53756 266.995 4.1547 266.995 3.68676C266.995 3.0603 266.864 2.83598 266.498 2.83598C266.224 2.83598 265.82 2.58074 265.598 2.26878C265.208 1.7186 264.875 1.70159 254.427 1.70159C243.979 1.70159 243.646 1.7186 243.256 2.26878ZM317.824 2.55238C317.824 2.70835 317.573 2.83598 317.266 2.83598C316.959 2.83598 316.707 2.96359 316.707 3.11957C316.707 3.27555 316.456 3.40317 316.149 3.40317C315.776 3.40317 315.59 3.59233 315.59 3.97036C315.59 4.28232 315.464 4.53756 315.311 4.53756C315.157 4.53756 315.031 4.7928 315.031 5.10475C315.031 5.41671 314.906 5.67195 314.752 5.67195C314.599 5.67195 314.473 6.31004 314.473 7.08993C314.473 7.86983 314.347 8.50792 314.194 8.50792C314.034 8.50792 313.914 9.35872 313.914 10.4931C313.914 11.6275 313.795 12.4783 313.635 12.4783C313.48 12.4783 313.356 13.2346 313.356 14.1799C313.356 15.1251 313.232 15.8814 313.077 15.8814C312.921 15.8814 312.797 16.6378 312.797 17.583C312.797 18.5283 312.673 19.2846 312.518 19.2846C312.363 19.2846 312.239 20.041 312.239 20.9862C312.239 21.9314 312.115 22.6878 311.959 22.6878C311.804 22.6878 311.68 23.4441 311.68 24.3894C311.68 25.3346 311.556 26.091 311.401 26.091C311.246 26.091 311.122 26.8473 311.122 27.7925C311.122 28.7378 310.997 29.4941 310.842 29.4941C310.687 29.4941 310.563 30.2505 310.563 31.1957C310.563 32.1409 310.439 32.8973 310.284 32.8973C310.13 32.8973 310.004 33.1525 310.004 33.4645C310.004 33.7764 310.076 34.0317 310.164 34.0317C310.573 34.0317 311.122 33.1491 311.122 32.492C311.122 32.091 311.247 31.7629 311.401 31.7629C311.554 31.7629 311.68 31.4081 311.68 30.9748C311.68 30.512 311.911 30.0179 312.239 29.7777C312.546 29.5528 312.797 29.1419 312.797 28.8643C312.797 28.5869 312.923 28.3597 313.077 28.3597C313.23 28.3597 313.356 28.1045 313.356 27.7925C313.356 27.4806 313.481 27.2253 313.635 27.2253C313.789 27.2253 313.914 26.9701 313.914 26.6581C313.914 26.3462 314.04 26.091 314.194 26.091C314.347 26.091 314.473 25.8638 314.473 25.5864C314.473 25.3088 314.724 24.8979 315.031 24.673C315.339 24.4481 315.59 24.0882 315.59 23.8732C315.59 23.6585 315.967 23.1248 316.428 22.6878C316.889 22.2508 317.266 21.717 317.266 21.5024C317.266 21.2874 317.517 20.9275 317.824 20.7026C318.132 20.4777 318.383 20.1246 318.383 19.9182C318.383 19.4006 319.658 18.1502 320.186 18.1502C320.431 18.1502 320.617 17.9055 320.617 17.583C320.617 17.2524 320.803 17.0158 321.064 17.0158C321.309 17.0158 321.862 16.633 322.293 16.1651C322.723 15.6971 323.249 15.3143 323.46 15.3143C323.672 15.3143 324.026 15.059 324.248 14.7471C324.469 14.4351 324.846 14.1799 325.086 14.1799C325.325 14.1799 325.702 13.9246 325.924 13.6127C326.145 13.3007 326.55 13.0455 326.823 13.0455C327.096 13.0455 327.32 12.9179 327.32 12.7619C327.32 12.6059 327.571 12.4783 327.878 12.4783C328.186 12.4783 328.437 12.3507 328.437 12.1947C328.437 12.0387 328.688 11.9111 328.996 11.9111C329.303 11.9111 329.554 11.7835 329.554 11.6275C329.554 11.4715 329.931 11.3439 330.392 11.3439C330.853 11.3439 331.23 11.2163 331.23 11.0603C331.23 10.9043 331.607 10.7767 332.068 10.7767C332.529 10.7767 332.906 10.6491 332.906 10.4931C332.906 10.3371 333.283 10.2095 333.743 10.2095C334.204 10.2095 334.581 10.0819 334.581 9.92591C334.581 9.76993 335.084 9.64231 335.698 9.64231C336.313 9.64231 336.816 9.5147 336.816 9.35872C336.816 9.20104 337.56 9.07512 338.491 9.07512C339.422 9.07512 340.167 8.9492 340.167 8.79152C340.167 8.61228 342.122 8.50792 345.473 8.50792C348.825 8.50792 350.78 8.61228 350.78 8.79152C350.78 8.94749 351.031 9.07512 351.338 9.07512C351.646 9.07512 351.897 9.20274 351.897 9.35872C351.897 9.5147 352.09 9.64231 352.325 9.64231C353.029 9.64231 354.69 11.5282 354.69 12.3271C354.69 12.7222 354.815 13.0455 354.969 13.0455C355.154 13.0455 355.248 33.1809 355.248 72.8845C355.248 132.534 355.25 132.724 355.807 132.724C356.156 132.724 356.365 132.534 356.365 132.219C356.365 131.941 356.617 131.53 356.924 131.306C357.231 131.081 357.483 130.721 357.483 130.506C357.483 130.291 357.86 129.757 358.32 129.32C358.781 128.883 359.158 128.375 359.158 128.192C359.158 128.008 359.661 127.368 360.275 126.768C360.89 126.168 361.392 125.53 361.392 125.35C361.392 125.17 361.895 124.532 362.51 123.932C363.124 123.333 363.627 122.669 363.627 122.457C363.627 122.245 363.878 121.888 364.185 121.663C364.493 121.438 364.744 121.081 364.744 120.869C364.744 120.658 365.247 119.994 365.861 119.394C366.475 118.795 366.978 118.157 366.978 117.976C366.978 117.796 367.481 117.158 368.095 116.559C368.71 115.959 369.212 115.295 369.212 115.084C369.212 114.872 369.464 114.515 369.771 114.29C370.326 113.884 370.33 113.555 370.33 62.9586C370.33 12.3617 370.333 12.0336 370.888 11.6275C371.195 11.4026 371.447 11.0495 371.447 10.8431C371.447 10.3255 372.722 9.07512 373.249 9.07512C373.487 9.07512 373.681 8.94749 373.681 8.79152C373.681 8.6137 375.45 8.50792 378.429 8.50792C381.408 8.50792 383.177 8.6137 383.177 8.79152C383.177 8.9492 383.921 9.07512 384.852 9.07512C385.783 9.07512 386.528 9.20104 386.528 9.35872C386.528 9.5147 387.031 9.64231 387.645 9.64231C388.26 9.64231 388.762 9.76993 388.762 9.92591C388.762 10.0819 389.265 10.2095 389.879 10.2095C390.494 10.2095 390.997 10.3371 390.997 10.4931C390.997 10.6491 391.374 10.7767 391.834 10.7767C392.295 10.7767 392.672 10.9043 392.672 11.0603C392.672 11.2163 393.049 11.3439 393.51 11.3439C393.971 11.3439 394.348 11.4715 394.348 11.6275C394.348 11.7835 394.599 11.9111 394.906 11.9111C395.214 11.9111 395.465 12.0387 395.465 12.1947C395.465 12.3507 395.716 12.4783 396.024 12.4783C396.331 12.4783 396.582 12.6059 396.582 12.7619C396.582 12.9179 396.834 13.0455 397.141 13.0455C397.448 13.0455 397.699 13.1731 397.699 13.3291C397.699 13.4851 397.951 13.6127 398.258 13.6127C398.565 13.6127 398.816 13.7403 398.816 13.8963C398.816 14.0522 399.04 14.1799 399.313 14.1799C399.587 14.1799 399.991 14.4351 400.213 14.7471C400.434 15.059 400.839 15.3143 401.112 15.3143C401.386 15.3143 401.609 15.4419 401.609 15.5979C401.609 15.7538 401.799 15.8814 402.031 15.8814C402.544 15.8814 408.871 22.2482 408.871 22.7641C408.871 22.9651 409.122 23.3137 409.429 23.5386C409.736 23.7635 409.988 24.1463 409.988 24.3894C409.988 24.6324 410.239 25.0153 410.546 25.2402C410.854 25.4651 411.105 25.876 411.105 26.1536C411.105 26.431 411.231 26.6581 411.384 26.6581C411.538 26.6581 411.663 26.9134 411.663 27.2253C411.663 27.5373 411.789 27.7925 411.943 27.7925C412.096 27.7925 412.222 28.0478 412.222 28.3597C412.222 28.6717 412.348 28.9269 412.501 28.9269C412.655 28.9269 412.781 29.1822 412.781 29.4941C412.781 29.8061 412.906 30.0613 413.06 30.0613C413.213 30.0613 413.339 30.3166 413.339 30.6285C413.339 30.9405 413.465 31.1957 413.618 31.1957C413.772 31.1957 413.898 31.5786 413.898 32.0465C413.898 32.5144 414.023 32.8973 414.177 32.8973C414.331 32.8973 414.456 33.1525 414.456 33.4645C414.456 33.7764 414.582 34.0317 414.736 34.0317C414.889 34.0317 415.015 33.6488 415.015 33.1809C415.015 32.713 414.889 32.3301 414.736 32.3301C414.58 32.3301 414.456 31.5737 414.456 30.6285C414.456 29.6833 414.332 28.9269 414.177 28.9269C414.022 28.9269 413.898 28.1706 413.898 27.2253C413.898 26.2801 413.774 25.5238 413.618 25.5238C413.463 25.5238 413.339 24.7674 413.339 23.8222C413.339 22.8769 413.215 22.1206 413.06 22.1206C412.905 22.1206 412.781 21.3642 412.781 20.419C412.781 19.4738 412.657 18.7174 412.501 18.7174C412.346 18.7174 412.222 17.9611 412.222 17.0158C412.222 16.0706 412.098 15.3143 411.943 15.3143C411.783 15.3143 411.663 14.4635 411.663 13.3291C411.663 12.1947 411.544 11.3439 411.384 11.3439C411.221 11.3439 411.105 10.3987 411.105 9.07512C411.105 7.75157 410.988 6.80634 410.826 6.80634C410.672 6.80634 410.546 6.42348 410.546 5.95555C410.546 5.48761 410.421 5.10475 410.267 5.10475C410.113 5.10475 409.988 4.90766 409.988 4.6666C409.988 3.97746 408.69 2.83598 407.906 2.83598C407.515 2.83598 407.195 2.70835 407.195 2.55238C407.195 2.36435 392.114 2.26878 362.51 2.26878C332.906 2.26878 317.824 2.36435 317.824 2.55238ZM0 3.11957C0 3.27555 0.377032 3.40317 0.83785 3.40317C1.29867 3.40317 1.6757 3.53079 1.6757 3.68676C1.6757 3.84274 2.17841 3.97036 2.79283 3.97036C3.40726 3.97036 3.90996 4.09799 3.90996 4.25397C3.90996 4.40994 4.41267 4.53756 5.0271 4.53756C5.64152 4.53756 6.14423 4.66518 6.14423 4.82116C6.14423 4.97714 6.52126 5.10475 6.98208 5.10475C7.4429 5.10475 7.81993 5.23237 7.81993 5.38835C7.81993 5.54433 8.19696 5.67195 8.65778 5.67195C9.1186 5.67195 9.49563 5.79957 9.49563 5.95555C9.49563 6.11153 9.74698 6.23914 10.0542 6.23914C10.3614 6.23914 10.6128 6.36676 10.6128 6.52274C10.6128 6.67872 10.8641 6.80634 11.1713 6.80634C11.4785 6.80634 11.7299 6.93396 11.7299 7.08993C11.7299 7.24591 11.9536 7.37354 12.2267 7.37354C12.5002 7.37354 12.9048 7.62877 13.1263 7.94073C13.3478 8.25269 13.7022 8.50792 13.9139 8.50792C14.1253 8.50792 14.6509 8.89078 15.0813 9.35872C15.5117 9.82665 16.011 10.2095 16.1909 10.2095C16.6347 10.2095 17.3156 10.9321 17.3156 11.4029C17.3156 11.6136 17.5669 11.9698 17.8741 12.1947C18.1813 12.4196 18.4327 12.8305 18.4327 13.1082C18.4327 13.3855 18.5584 13.6127 18.712 13.6127C18.8656 13.6127 18.9913 13.8679 18.9913 14.1799C18.9913 14.4918 19.1169 14.7471 19.2705 14.7471C19.4241 14.7471 19.5498 15.0023 19.5498 15.3143C19.5498 15.6262 19.6755 15.8814 19.8291 15.8814C20.0143 15.8814 20.1084 35.6388 20.1084 74.5861C20.1084 106.874 20.1802 133.291 20.2679 133.291C20.5485 133.291 21.2255 132.492 21.2255 132.161C21.2255 131.985 21.9796 131.09 22.9012 130.171C23.8229 129.253 24.5769 128.354 24.5769 128.174C24.5769 127.994 24.954 127.489 25.4148 127.052C25.8756 126.615 26.2526 126.109 26.2526 125.929C26.2526 125.75 27.0067 124.851 27.9283 123.932C28.85 123.013 29.604 122.117 29.604 121.94C29.604 121.763 30.1067 121.128 30.7212 120.529C31.3356 119.929 31.8383 119.293 31.8383 119.115C31.8383 118.936 32.4667 118.169 33.2347 117.409L34.6311 116.028V65.9548C34.6311 32.7617 34.7252 15.8814 34.9104 15.8814C35.064 15.8814 35.1897 15.6543 35.1897 15.3769C35.1897 15.0993 35.441 14.6884 35.7483 14.4635C36.0555 14.2386 36.3068 13.8824 36.3068 13.6717C36.3068 13.1524 37.0053 12.4783 37.5438 12.4783C37.7851 12.4783 37.9825 12.3507 37.9825 12.1947C37.9825 12.0387 38.2339 11.9111 38.5411 11.9111C38.8483 11.9111 39.0996 11.7835 39.0996 11.6275C39.0996 11.4715 39.351 11.3439 39.6582 11.3439C39.9654 11.3439 40.2168 11.2163 40.2168 11.0603C40.2168 10.9043 40.5938 10.7767 41.0546 10.7767C41.5154 10.7767 41.8925 10.6491 41.8925 10.4931C41.8925 10.3371 42.5209 10.2095 43.2889 10.2095C44.0569 10.2095 44.6853 10.0819 44.6853 9.92591C44.6853 9.75575 45.8024 9.64231 47.4781 9.64231C49.1538 9.64231 50.271 9.52888 50.271 9.35872C50.271 9.18686 51.4811 9.07512 53.3431 9.07512C55.2051 9.07512 56.4152 9.18686 56.4152 9.35872C56.4152 9.52689 57.4393 9.64231 58.9288 9.64231C60.4182 9.64231 61.4423 9.75774 61.4423 9.92591C61.4423 10.0819 61.945 10.2095 62.5594 10.2095C63.1739 10.2095 63.6766 10.3371 63.6766 10.4931C63.6766 10.6491 64.0536 10.7767 64.5144 10.7767C64.9752 10.7767 65.3523 10.9043 65.3523 11.0603C65.3523 11.2163 65.7293 11.3439 66.1901 11.3439C66.6509 11.3439 67.028 11.4715 67.028 11.6275C67.028 11.7835 67.2793 11.9111 67.5865 11.9111C67.8937 11.9111 68.1451 12.0387 68.1451 12.1947C68.1451 12.3507 68.3965 12.4783 68.7037 12.4783C69.0109 12.4783 69.2622 12.6059 69.2622 12.7619C69.2622 12.9179 69.6116 13.0455 70.0384 13.0455C70.4941 13.0455 70.9807 13.2797 71.2172 13.6127C71.4387 13.9246 71.8157 14.1799 72.0551 14.1799C72.2944 14.1799 72.6714 14.4351 72.8929 14.7471C73.1144 15.059 73.5191 15.3143 73.7925 15.3143C74.0656 15.3143 74.2893 15.4419 74.2893 15.5979C74.2893 15.7538 74.4798 15.8814 74.7127 15.8814C75.2646 15.8814 79.3164 19.9959 79.3164 20.5563C79.3164 20.7928 79.4421 20.9862 79.5957 20.9862C79.7493 20.9862 79.875 21.2414 79.875 21.5534C79.875 21.8654 80.0007 22.1206 80.1543 22.1206C80.3079 22.1206 80.4336 22.3758 80.4336 22.6878C80.4336 22.9997 80.5592 23.255 80.7128 23.255C80.8664 23.255 80.9921 23.5102 80.9921 23.8222C80.9921 24.1341 81.1178 24.3894 81.2714 24.3894C81.425 24.3894 81.5507 24.6446 81.5507 24.9566C81.5507 25.2685 81.6764 25.5238 81.83 25.5238C81.9836 25.5238 82.1093 26.1619 82.1093 26.9417C82.1093 27.7216 82.2349 28.3597 82.3885 28.3597C82.5614 28.3597 82.6678 29.8722 82.6678 32.3301C82.6678 34.788 82.5614 36.3005 82.3885 36.3005C82.2349 36.3005 82.1093 36.9386 82.1093 37.7184C82.1093 38.4983 81.9836 39.1364 81.83 39.1364C81.6764 39.1364 81.5507 39.6469 81.5507 40.2708C81.5507 40.8947 81.425 41.4052 81.2714 41.4052C81.1178 41.4052 80.9921 41.9157 80.9921 42.5396C80.9921 43.1635 80.8664 43.674 80.7128 43.674C80.5592 43.674 80.4336 43.9292 80.4336 44.2412C80.4336 44.5531 80.3079 44.8084 80.1543 44.8084C80.0007 44.8084 79.875 45.1912 79.875 45.6592C79.875 46.1271 79.7493 46.51 79.5957 46.51C79.4421 46.51 79.3164 46.8928 79.3164 47.3608C79.3164 47.8287 79.1908 48.2116 79.0371 48.2116C78.8835 48.2116 78.7579 48.4668 78.7579 48.7787C78.7579 49.0907 78.6322 49.3459 78.4786 49.3459C78.325 49.3459 78.1993 49.5456 78.1993 49.7898C78.1993 50.0339 77.5709 50.855 76.8029 51.6147C76.0349 52.3745 75.4065 53.1342 75.4065 53.3033C75.4065 53.7023 71.8788 57.2867 71.4862 57.2867C71.3211 57.2867 70.4461 58.0524 69.5415 58.9882C68.6369 59.9241 67.729 60.6898 67.524 60.6898C67.319 60.6898 66.9702 60.9451 66.7487 61.257C66.5272 61.569 66.1502 61.8242 65.9108 61.8242C65.6715 61.8242 65.2945 62.0795 65.073 62.3914C64.8515 62.7034 64.4468 62.9586 64.1734 62.9586C63.9003 62.9586 63.6766 63.0862 63.6766 63.2422C63.6766 63.3982 63.4529 63.5258 63.1797 63.5258C62.9063 63.5258 62.5016 63.781 62.2802 64.093C62.0587 64.405 61.654 64.6602 61.3806 64.6602C61.1074 64.6602 60.8837 64.7878 60.8837 64.9438C60.8837 65.0998 60.6324 65.2274 60.3252 65.2274C60.018 65.2274 59.7666 65.355 59.7666 65.511C59.7666 65.667 59.5153 65.7946 59.208 65.7946C58.9008 65.7946 58.6495 65.9222 58.6495 66.0782C58.6495 66.2342 58.2724 66.3618 57.8116 66.3618C57.3508 66.3618 56.9738 66.4894 56.9738 66.6454C56.9738 66.8014 56.7224 66.929 56.4152 66.929C56.108 66.929 55.8566 67.0566 55.8566 67.2126C55.8566 67.3685 55.4796 67.4962 55.0188 67.4962C54.558 67.4962 54.1809 67.6238 54.1809 67.7798C54.1809 67.9357 53.9296 68.0634 53.6224 68.0634C53.3152 68.0634 53.0638 68.191 53.0638 68.347C53.0638 68.5029 52.6868 68.6306 52.226 68.6306C51.7651 68.6306 51.3881 68.7582 51.3881 68.9142C51.3881 69.0701 50.8854 69.1977 50.271 69.1977C49.6566 69.1977 49.1538 69.3254 49.1538 69.4814C49.1538 69.6373 48.5255 69.7649 47.7574 69.7649C46.9894 69.7649 46.361 69.8926 46.361 70.0485C46.361 70.2045 45.8583 70.3321 45.2439 70.3321C44.6295 70.3321 44.1268 70.4598 44.1268 70.6157C44.1268 70.7717 43.624 70.8993 43.0096 70.8993C42.3952 70.8993 41.8925 71.027 41.8925 71.1829C41.8925 71.3389 41.5154 71.4665 41.0546 71.4665C40.5938 71.4665 40.2168 71.5942 40.2168 71.7501C40.2168 71.9061 39.9654 72.0337 39.6582 72.0337C39.2859 72.0337 39.0996 72.2229 39.0996 72.6009C39.0996 73.1389 39.2859 73.1681 42.7303 73.1681C44.9646 73.1681 46.361 73.0589 46.361 72.8845C46.361 72.7127 47.5711 72.6009 49.4331 72.6009C51.2951 72.6009 52.5052 72.4892 52.5052 72.3173C52.5052 72.1491 53.5294 72.0337 55.0188 72.0337C56.5082 72.0337 57.5323 71.9183 57.5323 71.7501C57.5323 71.5942 58.0351 71.4665 58.6495 71.4665C59.2639 71.4665 59.7666 71.3389 59.7666 71.1829C59.7666 71.027 60.395 70.8993 61.163 70.8993C61.9311 70.8993 62.5594 70.7717 62.5594 70.6157C62.5594 70.4598 62.9365 70.3321 63.3973 70.3321C63.8581 70.3321 64.2351 70.2045 64.2351 70.0485C64.2351 69.8926 64.7378 69.7649 65.3523 69.7649C65.9667 69.7649 66.4694 69.6373 66.4694 69.4814C66.4694 69.3254 66.8464 69.1977 67.3073 69.1977C67.7681 69.1977 68.1451 69.0701 68.1451 68.9142C68.1451 68.7582 68.5221 68.6306 68.983 68.6306C69.4438 68.6306 69.8208 68.5029 69.8208 68.347C69.8208 68.191 70.0722 68.0634 70.3794 68.0634C70.6866 68.0634 70.9379 67.9357 70.9379 67.7798C70.9379 67.6238 71.315 67.4962 71.7758 67.4962C72.2366 67.4962 72.6136 67.3685 72.6136 67.2126C72.6136 67.0566 72.865 66.929 73.1722 66.929C73.4794 66.929 73.7308 66.8014 73.7308 66.6454C73.7308 66.4894 73.9821 66.3618 74.2893 66.3618C74.5965 66.3618 74.8479 66.2342 74.8479 66.0782C74.8479 65.9222 75.0993 65.7946 75.4065 65.7946C75.7137 65.7946 75.965 65.667 75.965 65.511C75.965 65.355 76.2164 65.2274 76.5236 65.2274C76.8308 65.2274 77.0822 65.0998 77.0822 64.9438C77.0822 64.7878 77.3059 64.6602 77.579 64.6602C77.8524 64.6602 78.2571 64.405 78.4786 64.093C78.7001 63.781 79.0771 63.5258 79.3164 63.5258C79.5558 63.5258 79.9328 63.2706 80.1543 62.9586C80.3758 62.6466 80.7528 62.3914 80.9921 62.3914C81.2315 62.3914 81.6085 62.1362 81.83 61.8242C82.0515 61.5123 82.3947 61.257 82.593 61.257C83.0636 61.257 88.8121 55.4197 88.8121 54.9419C88.8121 54.7405 89.0634 54.392 89.3706 54.1671C89.6778 53.9422 89.9292 53.5593 89.9292 53.3163C89.9292 53.0733 90.1805 52.6904 90.4878 52.4655C90.8156 52.2253 91.0463 51.7313 91.0463 51.2684C91.0463 50.8351 91.172 50.4803 91.3256 50.4803C91.4792 50.4803 91.6049 50.2251 91.6049 49.9131C91.6049 49.6012 91.7306 49.3459 91.8842 49.3459C92.0378 49.3459 92.1635 49.0907 92.1635 48.7787C92.1635 48.4668 92.2891 48.2116 92.4427 48.2116C92.5963 48.2116 92.722 47.7011 92.722 47.0772C92.722 46.4533 92.8477 45.9428 93.0013 45.9428C93.1549 45.9428 93.2806 45.4323 93.2806 44.8084C93.2806 44.1845 93.4063 43.674 93.5599 43.674C93.7274 43.674 93.8392 42.5396 93.8392 40.838C93.8392 39.1364 93.9509 38.002 94.1184 38.002C94.272 38.002 94.3977 37.6192 94.3977 37.1513C94.3977 36.6833 94.272 36.3005 94.1184 36.3005C93.9492 36.3005 93.8392 35.0716 93.8392 33.1809C93.8392 31.2901 93.7291 30.0613 93.5599 30.0613C93.4063 30.0613 93.2806 29.4232 93.2806 28.6433C93.2806 27.8634 93.1549 27.2253 93.0013 27.2253C92.8477 27.2253 92.722 26.7149 92.722 26.091C92.722 25.467 92.5963 24.9566 92.4427 24.9566C92.2891 24.9566 92.1635 24.5737 92.1635 24.1058C92.1635 23.6378 92.0378 23.255 91.8842 23.255C91.7306 23.255 91.6049 22.9997 91.6049 22.6878C91.6049 22.3758 91.4792 22.1206 91.3256 22.1206C91.172 22.1206 91.0463 21.8654 91.0463 21.5534C91.0463 21.2414 90.9206 20.9862 90.767 20.9862C90.6134 20.9862 90.4878 20.759 90.4878 20.4817C90.4878 20.204 90.2364 19.7931 89.9292 19.5682C89.622 19.3433 89.3706 18.9863 89.3706 18.7744C89.3706 18.5626 88.8679 17.899 88.2535 17.2994C87.6391 16.6999 87.1364 16.0701 87.1364 15.8996C87.1364 15.4609 82.4723 10.7767 82.0352 10.7767C81.8367 10.7767 81.4929 10.5215 81.2714 10.2095C81.0499 9.89755 80.6453 9.64231 80.3718 9.64231C80.0987 9.64231 79.875 9.5147 79.875 9.35872C79.875 9.20274 79.6513 9.07512 79.3782 9.07512C79.1047 9.07512 78.7001 8.81988 78.4786 8.50792C78.242 8.17498 77.7555 7.94073 77.2997 7.94073C76.873 7.94073 76.5236 7.81311 76.5236 7.65713C76.5236 7.50115 76.2722 7.37354 75.965 7.37354C75.6578 7.37354 75.4065 7.24591 75.4065 7.08993C75.4065 6.93396 75.0294 6.80634 74.5686 6.80634C74.1078 6.80634 73.7308 6.67872 73.7308 6.52274C73.7308 6.36676 73.3537 6.23914 72.8929 6.23914C72.4321 6.23914 72.0551 6.11153 72.0551 5.95555C72.0551 5.79957 71.678 5.67195 71.2172 5.67195C70.7564 5.67195 70.3794 5.54433 70.3794 5.38835C70.3794 5.23237 69.8767 5.10475 69.2622 5.10475C68.6478 5.10475 68.1451 4.97714 68.1451 4.82116C68.1451 4.66518 67.5167 4.53756 66.7487 4.53756C65.9807 4.53756 65.3523 4.40994 65.3523 4.25397C65.3523 4.09203 64.5144 3.97036 63.3973 3.97036C62.2802 3.97036 61.4423 3.8487 61.4423 3.68676C61.4423 3.52143 60.5115 3.40317 59.208 3.40317C57.9046 3.40317 56.9738 3.28491 56.9738 3.11957C56.9738 2.9324 47.2919 2.83598 28.4869 2.83598C9.68191 2.83598 0 2.9324 0 3.11957ZM262.117 25.3726C262.649 25.9131 263.085 26.5512 263.085 26.7906C263.085 27.0297 263.21 27.2253 263.364 27.2253C263.518 27.2253 263.643 27.7358 263.643 28.3597C263.643 28.9837 263.769 29.4941 263.923 29.4941C264.076 29.4941 264.202 30.1322 264.202 30.9121C264.202 31.692 264.328 32.3301 264.481 32.3301C264.635 32.3301 264.76 32.8406 264.76 33.4645C264.76 34.0884 264.886 34.5989 265.04 34.5989C265.193 34.5989 265.319 34.9817 265.319 35.4497C265.319 35.9176 265.445 36.3005 265.598 36.3005C265.752 36.3005 265.878 36.8109 265.878 37.4348C265.878 38.0588 266.003 38.5692 266.157 38.5692C266.31 38.5692 266.436 38.9521 266.436 39.42C266.436 39.888 266.562 40.2708 266.715 40.2708C266.869 40.2708 266.995 40.7813 266.995 41.4052C266.995 42.0291 267.12 42.5396 267.274 42.5396C267.428 42.5396 267.553 42.9225 267.553 43.3904C267.553 43.8583 267.679 44.2412 267.833 44.2412C267.986 44.2412 268.112 44.7517 268.112 45.3756C268.112 45.9995 268.238 46.51 268.391 46.51C268.545 46.51 268.67 47.0204 268.67 47.6443C268.67 48.2683 268.796 48.7787 268.95 48.7787C269.103 48.7787 269.229 49.1616 269.229 49.6295C269.229 50.0975 269.355 50.4803 269.508 50.4803C269.662 50.4803 269.788 50.9908 269.788 51.6147C269.788 52.2386 269.913 52.7491 270.067 52.7491C270.22 52.7491 270.346 53.2596 270.346 53.8835C270.346 54.5074 270.472 55.0179 270.625 55.0179C270.779 55.0179 270.905 55.4007 270.905 55.8687C270.905 56.3366 271.03 56.7195 271.184 56.7195C271.338 56.7195 271.463 57.2299 271.463 57.8539C271.463 58.4778 271.589 58.9882 271.743 58.9882C271.896 58.9882 272.022 59.4987 272.022 60.1226C272.022 60.7465 272.148 61.257 272.301 61.257C272.455 61.257 272.58 61.7675 272.58 62.3914C272.58 63.0153 272.706 63.5258 272.86 63.5258C273.013 63.5258 273.139 63.9087 273.139 64.3766C273.139 64.8445 273.265 65.2274 273.418 65.2274C273.572 65.2274 273.698 65.7379 273.698 66.3618C273.698 66.9857 273.823 67.4962 273.977 67.4962C274.13 67.4962 274.256 67.879 274.256 68.347C274.256 68.8149 274.382 69.1977 274.535 69.1977C274.689 69.1977 274.815 69.7082 274.815 70.3321C274.815 70.956 274.94 71.4665 275.094 71.4665C275.248 71.4665 275.373 71.977 275.373 72.6009C275.373 73.2248 275.499 73.7353 275.653 73.7353C275.806 73.7353 275.932 74.1182 275.932 74.5861C275.932 75.054 276.057 75.4369 276.211 75.4369C276.365 75.4369 276.49 75.9474 276.49 76.5713C276.49 77.1952 276.616 77.7057 276.77 77.7057C276.923 77.7057 277.049 77.9609 277.049 78.2729C277.049 78.8341 276.863 78.8401 258.896 78.8401H240.742V77.9893C240.742 77.5213 240.868 77.1385 241.021 77.1385C241.175 77.1385 241.301 76.7556 241.301 76.2877C241.301 75.8197 241.426 75.4369 241.58 75.4369C241.734 75.4369 241.859 75.054 241.859 74.5861C241.859 74.1182 241.985 73.7353 242.139 73.7353C242.292 73.7353 242.418 73.3525 242.418 72.8845C242.418 72.4166 242.544 72.0337 242.697 72.0337C242.851 72.0337 242.976 71.6509 242.976 71.1829C242.976 70.715 243.102 70.3321 243.256 70.3321C243.409 70.3321 243.535 69.9493 243.535 69.4814C243.535 69.0134 243.661 68.6306 243.814 68.6306C243.968 68.6306 244.094 68.1201 244.094 67.4962C244.094 66.8723 244.219 66.3618 244.373 66.3618C244.526 66.3618 244.652 65.9789 244.652 65.511C244.652 65.0431 244.778 64.6602 244.931 64.6602C245.085 64.6602 245.211 64.405 245.211 64.093C245.211 63.781 245.336 63.5258 245.49 63.5258C245.644 63.5258 245.769 63.143 245.769 62.675C245.769 62.2071 245.895 61.8242 246.049 61.8242C246.202 61.8242 246.328 61.4414 246.328 60.9734C246.328 60.5055 246.453 60.1226 246.607 60.1226C246.761 60.1226 246.886 59.7398 246.886 59.2719C246.886 58.8039 247.012 58.4211 247.166 58.4211C247.319 58.4211 247.445 58.0382 247.445 57.5703C247.445 57.1023 247.571 56.7195 247.724 56.7195C247.878 56.7195 248.003 56.3366 248.003 55.8687C248.003 55.4007 248.129 55.0179 248.283 55.0179C248.436 55.0179 248.562 54.635 248.562 54.1671C248.562 53.6992 248.688 53.3163 248.841 53.3163C248.995 53.3163 249.121 52.9334 249.121 52.4655C249.121 51.9976 249.246 51.6147 249.4 51.6147C249.554 51.6147 249.679 51.2319 249.679 50.7639C249.679 50.296 249.805 49.9131 249.958 49.9131C250.112 49.9131 250.238 49.5303 250.238 49.0623C250.238 48.5944 250.363 48.2116 250.517 48.2116C250.671 48.2116 250.796 47.8287 250.796 47.3608C250.796 46.8928 250.922 46.51 251.076 46.51C251.229 46.51 251.355 45.8719 251.355 45.092C251.355 44.3121 251.481 43.674 251.634 43.674C251.788 43.674 251.913 43.4188 251.913 43.1068C251.913 42.7948 252.039 42.5396 252.193 42.5396C252.346 42.5396 252.472 42.1567 252.472 41.6888C252.472 41.2209 252.598 40.838 252.751 40.838C252.905 40.838 253.031 40.4552 253.031 39.9872C253.031 39.5193 253.156 39.1364 253.31 39.1364C253.463 39.1364 253.589 38.7536 253.589 38.2856C253.589 37.8177 253.715 37.4348 253.868 37.4348C254.022 37.4348 254.148 37.052 254.148 36.5841C254.148 36.1161 254.273 35.7333 254.427 35.7333C254.581 35.7333 254.706 35.3504 254.706 34.8825C254.706 34.4145 254.832 34.0317 254.986 34.0317C255.139 34.0317 255.265 33.6488 255.265 33.1809C255.265 32.713 255.391 32.3301 255.544 32.3301C255.698 32.3301 255.823 31.8196 255.823 31.1957C255.823 30.5718 255.949 30.0613 256.103 30.0613C256.256 30.0613 256.382 29.8061 256.382 29.4941C256.382 29.1822 256.508 28.9269 256.661 28.9269C256.815 28.9269 256.941 28.5441 256.941 28.0761C256.941 27.6082 257.066 27.2253 257.22 27.2253C257.373 27.2253 257.499 26.9018 257.499 26.5061C257.499 25.3355 258.561 24.4268 259.952 24.4067C260.956 24.3922 261.304 24.5471 262.117 25.3726Z" fill="white"/>
</svg>
