<svg width="108" height="59" viewBox="0 0 108 59" fill="none" xmlns="http://www.w3.org/2000/svg">
<path fill-rule="evenodd" clip-rule="evenodd" d="M7.36364 7.17483V13.9659H7.78846H8.21329V7.6114V1.25692H53.6696H99.1259V7.6114V13.9659H99.4832C99.7301 13.9659 99.8615 13.9444 99.9081 13.8966C99.9854 13.8171 99.9984 13.6748 99.9283 13.6748C99.8971 13.6748 99.8811 11.4758 99.8811 7.17483C99.8811 2.87382 99.8971 0.674834 99.9283 0.674834C99.9984 0.674834 99.9854 0.532561 99.9081 0.453106C99.8497 0.393102 93.6126 0.383789 53.6021 0.383789H7.36364V7.17483ZM80.4336 18.3801C80.4336 18.4078 80.292 18.4286 80.1031 18.4286C79.9143 18.4286 79.7727 18.4494 79.7727 18.4771C79.7727 18.5038 79.6878 18.5256 79.5839 18.5256C79.4801 18.5256 79.3951 18.5474 79.3951 18.5741C79.3951 18.6008 79.3314 18.6226 79.2535 18.6226C79.1756 18.6226 79.1119 18.6444 79.1119 18.6711C79.1119 18.6978 79.0694 18.7196 79.0175 18.7196C78.9656 18.7196 78.9231 18.7414 78.9231 18.7681C78.9231 18.7948 78.8381 18.8166 78.7343 18.8166C78.6304 18.8166 78.5454 18.8385 78.5454 18.8651C78.5454 18.8918 78.5076 18.9136 78.4615 18.9136C78.4153 18.9136 78.3469 18.9573 78.3094 19.0107C78.272 19.064 78.2036 19.1077 78.1574 19.1077C78.1112 19.1077 78.0734 19.1295 78.0734 19.1562C78.0734 19.1829 78.0356 19.2047 77.9894 19.2047C77.9432 19.2047 77.8748 19.2483 77.8374 19.3017C77.8 19.3551 77.7363 19.3987 77.6958 19.3987C77.6553 19.3987 77.5916 19.4424 77.5542 19.4957C77.5168 19.5491 77.4569 19.5927 77.4211 19.5927C77.3854 19.5927 77.2965 19.6582 77.2238 19.7383C77.151 19.8183 77.0679 19.8838 77.0391 19.8838C77.0103 19.8838 76.7427 20.1346 76.4444 20.4411C76.1461 20.7477 75.9021 21.0226 75.9021 21.0522C75.9021 21.0818 75.8384 21.1672 75.7605 21.242C75.6826 21.3167 75.6189 21.4041 75.6189 21.436C75.6189 21.468 75.5552 21.5553 75.4773 21.6301C75.3994 21.7048 75.3357 21.8009 75.3357 21.8435C75.3357 21.8862 75.3144 21.9211 75.2885 21.9211C75.2625 21.9211 75.2413 21.9648 75.2413 22.0181C75.2413 22.0715 75.22 22.1151 75.1941 22.1151C75.1681 22.1151 75.1469 22.154 75.1469 22.2014C75.1469 22.2489 75.1044 22.3192 75.0524 22.3577C75.0005 22.3961 74.958 22.4664 74.958 22.5139C74.958 22.5614 74.9368 22.6002 74.9108 22.6002C74.8849 22.6002 74.8636 22.6439 74.8636 22.6972C74.8636 22.7506 74.8424 22.7942 74.8164 22.7942C74.7905 22.7942 74.7692 22.8597 74.7692 22.9398C74.7692 23.0198 74.748 23.0853 74.722 23.0853C74.6961 23.0853 74.6748 23.1289 74.6748 23.1823C74.6748 23.2357 74.6536 23.2793 74.6276 23.2793C74.6017 23.2793 74.5804 23.323 74.5804 23.3763C74.5804 23.4297 74.5592 23.4733 74.5332 23.4733C74.5072 23.4733 74.486 23.5388 74.486 23.6189C74.486 23.6989 74.4648 23.7644 74.4388 23.7644C74.4128 23.7644 74.3916 23.8299 74.3916 23.9099C74.3916 23.9899 74.3704 24.0554 74.3444 24.0554C74.3184 24.0554 74.2972 24.1209 74.2972 24.201C74.2972 24.281 74.276 24.3465 74.25 24.3465C74.224 24.3465 74.2028 24.412 74.2028 24.492C74.2028 24.572 74.1816 24.6375 74.1556 24.6375C74.1296 24.6375 74.1084 24.7248 74.1084 24.8315C74.1084 24.9383 74.0872 25.0256 74.0612 25.0256C74.0352 25.0256 74.014 25.0911 74.014 25.1711C74.014 25.2511 73.9927 25.3166 73.9668 25.3166C73.9408 25.3166 73.9196 25.4258 73.9196 25.5592C73.9196 25.6926 73.8983 25.8017 73.8724 25.8017C73.8464 25.8017 73.8252 25.889 73.8252 25.9957C73.8252 26.1024 73.8039 26.1898 73.778 26.1898C73.7505 26.1898 73.7308 26.3514 73.7308 26.5778C73.7308 26.8042 73.7111 26.9659 73.6836 26.9659C73.6566 26.9659 73.6364 27.1114 73.6364 27.3054C73.6364 27.4995 73.6161 27.645 73.5892 27.645C73.5601 27.645 73.542 27.8875 73.542 28.2756C73.542 28.6636 73.5238 28.9062 73.4948 28.9062C73.4647 28.9062 73.4475 29.2942 73.4475 29.9733C73.4475 30.6524 73.4647 31.0405 73.4948 31.0405C73.5248 31.0405 73.542 31.4286 73.542 32.1077C73.542 32.7868 73.5591 33.1748 73.5892 33.1748C73.6175 33.1748 73.6364 33.3689 73.6364 33.6599C73.6364 33.951 73.6552 34.145 73.6836 34.145C73.7116 34.145 73.7308 34.3229 73.7308 34.5816C73.7308 34.8402 73.75 35.0181 73.778 35.0181C73.8039 35.0181 73.8252 35.1054 73.8252 35.2121C73.8252 35.3189 73.8464 35.4062 73.8724 35.4062C73.8983 35.4062 73.9196 35.4935 73.9196 35.6002C73.9196 35.7069 73.9408 35.7942 73.9668 35.7942C73.9927 35.7942 74.014 35.8597 74.014 35.9398C74.014 36.0198 74.0352 36.0853 74.0612 36.0853C74.0872 36.0853 74.1084 36.1726 74.1084 36.2793C74.1084 36.386 74.1296 36.4733 74.1556 36.4733C74.1816 36.4733 74.2028 36.517 74.2028 36.5704C74.2028 36.6237 74.224 36.6674 74.25 36.6674C74.276 36.6674 74.2972 36.711 74.2972 36.7644C74.2972 36.8177 74.3184 36.8614 74.3444 36.8614C74.3704 36.8614 74.3916 36.9269 74.3916 37.0069C74.3916 37.087 74.4128 37.1524 74.4388 37.1524C74.4648 37.1524 74.486 37.1961 74.486 37.2495C74.486 37.3028 74.5072 37.3465 74.5332 37.3465C74.5592 37.3465 74.5804 37.3901 74.5804 37.4435C74.5804 37.4968 74.6017 37.5405 74.6276 37.5405C74.6536 37.5405 74.6748 37.5794 74.6748 37.6268C74.6748 37.6743 74.7173 37.7446 74.7692 37.783C74.8212 37.8215 74.8636 37.8918 74.8636 37.9393C74.8636 37.9867 74.8849 38.0256 74.9108 38.0256C74.9368 38.0256 74.958 38.0605 74.958 38.1031C74.958 38.1458 75.0218 38.2419 75.0996 38.3166C75.1775 38.3914 75.2413 38.478 75.2413 38.509C75.2413 38.54 75.3475 38.6717 75.4773 38.8017C75.6071 38.9316 75.7133 39.0619 75.7133 39.0912C75.7133 39.1609 76.0252 39.4808 76.093 39.4808C76.1219 39.4808 76.2271 39.5681 76.3269 39.6748C76.4267 39.7815 76.5372 39.8689 76.5724 39.8689C76.6077 39.8689 76.6671 39.9125 76.7045 39.9659C76.742 40.0192 76.8057 40.0629 76.8462 40.0629C76.8866 40.0629 76.9503 40.1066 76.9878 40.1599C77.0252 40.2133 77.0889 40.2569 77.1294 40.2569C77.1698 40.2569 77.2335 40.3006 77.271 40.3539C77.3084 40.4073 77.3768 40.451 77.423 40.451C77.4692 40.451 77.507 40.4728 77.507 40.4995C77.507 40.5261 77.5448 40.548 77.591 40.548C77.6372 40.548 77.7056 40.5916 77.743 40.645C77.783 40.7019 77.8652 40.742 77.9422 40.742C78.0144 40.742 78.0734 40.7638 78.0734 40.7905C78.0734 40.8172 78.1159 40.839 78.1678 40.839C78.2198 40.839 78.2622 40.8608 78.2622 40.8875C78.2622 40.9142 78.3047 40.936 78.3566 40.936C78.4086 40.936 78.451 40.9579 78.451 40.9845C78.451 41.0112 78.5148 41.033 78.5927 41.033C78.6705 41.033 78.7343 41.0549 78.7343 41.0816C78.7343 41.1114 78.9703 41.1301 79.3479 41.1301C79.7255 41.1301 79.9615 41.1114 79.9615 41.0816C79.9615 41.0549 80.004 41.033 80.0559 41.033C80.1079 41.033 80.1503 41.0112 80.1503 40.9845C80.1503 40.9579 80.1837 40.936 80.2245 40.936C80.343 40.936 80.4336 40.8099 80.4336 40.645C80.4336 40.4335 80.3377 40.3539 80.0829 40.3539C79.9642 40.3539 79.8671 40.3321 79.8671 40.3054C79.8671 40.2788 79.7822 40.2569 79.6783 40.2569C79.5745 40.2569 79.4895 40.2351 79.4895 40.2084C79.4895 40.1817 79.4258 40.1599 79.3479 40.1599C79.27 40.1599 79.2063 40.1381 79.2063 40.1114C79.2063 40.0847 79.1638 40.0629 79.1119 40.0629C79.06 40.0629 79.0175 40.0411 79.0175 40.0144C79.0175 39.9877 78.975 39.9659 78.9231 39.9659C78.8712 39.9659 78.8287 39.944 78.8287 39.9174C78.8287 39.8907 78.7909 39.8689 78.7447 39.8689C78.6985 39.8689 78.6301 39.8252 78.5927 39.7719C78.5552 39.7185 78.4915 39.6748 78.451 39.6748C78.4106 39.6748 78.3469 39.6312 78.3094 39.5778C78.272 39.5245 78.2138 39.4808 78.18 39.4808C78.1056 39.4808 77.6014 38.9712 77.6014 38.8959C77.6014 38.8666 77.5164 38.7587 77.4126 38.6562C77.3087 38.5536 77.2238 38.4441 77.2238 38.4127C77.2238 38.3812 77.16 38.2944 77.0822 38.2196C77.0043 38.1449 76.9406 38.0488 76.9406 38.0061C76.9406 37.9634 76.9193 37.9286 76.8934 37.9286C76.8674 37.9286 76.8462 37.8897 76.8462 37.8423C76.8462 37.7948 76.8037 37.7245 76.7517 37.686C76.6998 37.6476 76.6573 37.5773 76.6573 37.5298C76.6573 37.4823 76.6361 37.4435 76.6101 37.4435C76.5842 37.4435 76.5629 37.3998 76.5629 37.3465C76.5629 37.2931 76.5417 37.2495 76.5157 37.2495C76.4898 37.2495 76.4685 37.2058 76.4685 37.1524C76.4685 37.0991 76.4473 37.0554 76.4213 37.0554C76.3954 37.0554 76.3741 37.0118 76.3741 36.9584C76.3741 36.9051 76.3529 36.8614 76.3269 36.8614C76.301 36.8614 76.2797 36.7959 76.2797 36.7159C76.2797 36.6358 76.2585 36.5704 76.2325 36.5704C76.2066 36.5704 76.1853 36.5267 76.1853 36.4733C76.1853 36.42 76.1641 36.3763 76.1381 36.3763C76.1122 36.3763 76.0909 36.3108 76.0909 36.2308C76.0909 36.1508 76.0697 36.0853 76.0437 36.0853C76.0177 36.0853 75.9965 35.998 75.9965 35.8913C75.9965 35.7845 75.9753 35.6972 75.9493 35.6972C75.9233 35.6972 75.9021 35.6099 75.9021 35.5032C75.9021 35.3965 75.8809 35.3092 75.8549 35.3092C75.8289 35.3092 75.8077 35.2218 75.8077 35.1151C75.8077 35.0084 75.7864 34.9211 75.7605 34.9211C75.7345 34.9211 75.7133 34.8338 75.7133 34.7271C75.7133 34.6204 75.692 34.533 75.6661 34.533C75.6401 34.533 75.6189 34.4239 75.6189 34.2905C75.6189 34.1571 75.5976 34.048 75.5717 34.048C75.5447 34.048 75.5245 33.9024 75.5245 33.7084C75.5245 33.5144 75.5042 33.3689 75.4773 33.3689C75.4497 33.3689 75.4301 33.2072 75.4301 32.9808C75.4301 32.7544 75.4104 32.5927 75.3829 32.5927C75.3536 32.5927 75.3357 32.3341 75.3357 31.9136C75.3357 31.4932 75.3177 31.2345 75.2885 31.2345C75.258 31.2345 75.2413 30.6848 75.2413 29.6823C75.2413 28.6798 75.258 28.1301 75.2885 28.1301C75.3168 28.1301 75.3357 27.936 75.3357 27.645C75.3357 27.3539 75.3545 27.1599 75.3829 27.1599C75.4091 27.1599 75.4301 27.0305 75.4301 26.8689C75.4301 26.7072 75.451 26.5778 75.4773 26.5778C75.5032 26.5778 75.5245 26.4687 75.5245 26.3353C75.5245 26.2019 75.5457 26.0927 75.5717 26.0927C75.5976 26.0927 75.6189 26.0054 75.6189 25.8987C75.6189 25.792 75.6401 25.7047 75.6661 25.7047C75.692 25.7047 75.7133 25.6174 75.7133 25.5107C75.7133 25.4039 75.7345 25.3166 75.7605 25.3166C75.7864 25.3166 75.8077 25.2511 75.8077 25.1711C75.8077 25.0911 75.8289 25.0256 75.8549 25.0256C75.8809 25.0256 75.9021 24.9601 75.9021 24.8801C75.9021 24.8 75.9233 24.7345 75.9493 24.7345C75.9753 24.7345 75.9965 24.6691 75.9965 24.589C75.9965 24.509 76.0177 24.4435 76.0437 24.4435C76.0697 24.4435 76.0909 24.378 76.0909 24.298C76.0909 24.2179 76.1122 24.1524 76.1381 24.1524C76.1641 24.1524 76.1853 24.1088 76.1853 24.0554C76.1853 24.0021 76.2066 23.9584 76.2325 23.9584C76.2585 23.9584 76.2797 23.9148 76.2797 23.8614C76.2797 23.808 76.301 23.7644 76.3269 23.7644C76.3529 23.7644 76.3741 23.7207 76.3741 23.6674C76.3741 23.614 76.3954 23.5704 76.4213 23.5704C76.4473 23.5704 76.4685 23.5267 76.4685 23.4733C76.4685 23.42 76.4898 23.3763 76.5157 23.3763C76.5417 23.3763 76.5629 23.3327 76.5629 23.2793C76.5629 23.226 76.5842 23.1823 76.6101 23.1823C76.6361 23.1823 76.6573 23.1434 76.6573 23.096C76.6573 23.0485 76.6998 22.9782 76.7517 22.9398C76.8037 22.9013 76.8462 22.831 76.8462 22.7835C76.8462 22.7361 76.8674 22.6972 76.8934 22.6972C76.9193 22.6972 76.9406 22.6536 76.9406 22.6002C76.9406 22.5468 76.9618 22.5032 76.9878 22.5032C77.0137 22.5032 77.035 22.4643 77.035 22.4169C77.035 22.3694 77.0774 22.2991 77.1294 22.2607C77.1813 22.2222 77.2238 22.1567 77.2238 22.1151C77.2238 22.0736 77.2663 22.0081 77.3182 21.9696C77.3701 21.9311 77.4126 21.8657 77.4126 21.8241C77.4126 21.7825 77.4551 21.717 77.507 21.6786C77.5589 21.6401 77.6014 21.5795 77.6014 21.5439C77.6014 21.5083 77.7288 21.3506 77.8846 21.1935C78.0404 21.0364 78.1678 20.8841 78.1678 20.855C78.1678 20.7852 78.4802 20.4659 78.5485 20.4659C78.5779 20.4659 78.6615 20.4004 78.7343 20.3204C78.807 20.2403 78.8958 20.1748 78.9316 20.1748C78.9674 20.1748 79.0273 20.1312 79.0647 20.0778C79.1021 20.0245 79.1705 19.9808 79.2167 19.9808C79.2629 19.9808 79.3007 19.959 79.3007 19.9323C79.3007 19.9056 79.3432 19.8838 79.3951 19.8838C79.447 19.8838 79.4895 19.862 79.4895 19.8353C79.4895 19.8086 79.532 19.7868 79.5839 19.7868C79.6358 19.7868 79.6783 19.7649 79.6783 19.7383C79.6783 19.7116 79.7633 19.6898 79.8671 19.6898C79.971 19.6898 80.0559 19.6679 80.0559 19.6413C80.0559 19.6111 80.3234 19.5927 80.764 19.5927C81.2045 19.5927 81.472 19.6111 81.472 19.6413C81.472 19.6679 81.5358 19.6898 81.6136 19.6898C81.6915 19.6898 81.7552 19.7116 81.7552 19.7383C81.7552 19.7649 81.8402 19.7868 81.9441 19.7868C82.0479 19.7868 82.1329 19.8086 82.1329 19.8353C82.1329 19.862 82.1753 19.8838 82.2273 19.8838C82.2792 19.8838 82.3217 19.9056 82.3217 19.9323C82.3217 19.959 82.3854 19.9808 82.4633 19.9808C82.5412 19.9808 82.6049 20.0026 82.6049 20.0293C82.6049 20.056 82.6474 20.0778 82.6993 20.0778C82.7512 20.0778 82.7937 20.0996 82.7937 20.1263C82.7937 20.153 82.8362 20.1748 82.8881 20.1748C82.94 20.1748 82.9825 20.1967 82.9825 20.2233C82.9825 20.25 83.0203 20.2718 83.0665 20.2718C83.1127 20.2718 83.1811 20.3155 83.2185 20.3689C83.256 20.4222 83.3197 20.4659 83.3601 20.4659C83.4006 20.4659 83.4643 20.5095 83.5017 20.5629C83.5392 20.6163 83.5986 20.6599 83.6339 20.6599C83.6691 20.6599 83.7796 20.7472 83.8794 20.8539C83.9792 20.9607 84.0847 21.048 84.1138 21.048C84.1827 21.048 84.3986 21.2698 84.3986 21.3406C84.3986 21.3706 84.4836 21.479 84.5874 21.5815C84.6913 21.6841 84.7762 21.7976 84.7762 21.8338C84.7762 21.8701 84.8187 21.9311 84.8706 21.9696C84.9225 22.0081 84.965 22.0736 84.965 22.1151C84.965 22.1567 85.0075 22.2222 85.0594 22.2607C85.1114 22.2991 85.1538 22.3694 85.1538 22.4169C85.1538 22.4643 85.1751 22.5032 85.201 22.5032C85.227 22.5032 85.2482 22.542 85.2482 22.5895C85.2482 22.637 85.2907 22.7073 85.3427 22.7457C85.3946 22.7842 85.4371 22.8545 85.4371 22.902C85.4371 22.9494 85.4583 22.9883 85.4843 22.9883C85.5102 22.9883 85.5315 23.0319 85.5315 23.0853C85.5315 23.1386 85.5527 23.1823 85.5787 23.1823C85.6046 23.1823 85.6259 23.226 85.6259 23.2793C85.6259 23.3327 85.6471 23.3763 85.6731 23.3763C85.699 23.3763 85.7203 23.42 85.7203 23.4733C85.7203 23.5267 85.7415 23.5704 85.7675 23.5704C85.7934 23.5704 85.8147 23.6358 85.8147 23.7159C85.8147 23.7959 85.8359 23.8614 85.8619 23.8614C85.8878 23.8614 85.9091 23.9051 85.9091 23.9584C85.9091 24.0118 85.9303 24.0554 85.9563 24.0554C85.9823 24.0554 86.0035 24.0991 86.0035 24.1524C86.0035 24.2058 86.0247 24.2495 86.0507 24.2495C86.0767 24.2495 86.0979 24.3149 86.0979 24.395C86.0979 24.475 86.1191 24.5405 86.1451 24.5405C86.1711 24.5405 86.1923 24.606 86.1923 24.686C86.1923 24.7661 86.2135 24.8315 86.2395 24.8315C86.2655 24.8315 86.2867 24.897 86.2867 24.9771C86.2867 25.0571 86.308 25.1226 86.3339 25.1226C86.3599 25.1226 86.3811 25.2099 86.3811 25.3166C86.3811 25.4233 86.4024 25.5107 86.4283 25.5107C86.4543 25.5107 86.4755 25.5761 86.4755 25.6562C86.4755 25.7362 86.4968 25.8017 86.5227 25.8017C86.5487 25.8017 86.5699 25.9108 86.5699 26.0442C86.5699 26.1776 86.5912 26.2868 86.6171 26.2868C86.6431 26.2868 86.6643 26.3959 86.6643 26.5293C86.6643 26.6627 86.6856 26.7718 86.7115 26.7718C86.7378 26.7718 86.7587 26.9012 86.7587 27.0629C86.7587 27.2246 86.7797 27.3539 86.8059 27.3539C86.8353 27.3539 86.8531 27.6288 86.8531 28.0815C86.8531 28.5343 86.871 28.8092 86.9003 28.8092C86.9307 28.8092 86.9475 29.2942 86.9475 30.1674C86.9475 31.0405 86.9307 31.5256 86.9003 31.5256C86.8713 31.5256 86.8531 31.7681 86.8531 32.1562C86.8531 32.5442 86.835 32.7868 86.8059 32.7868C86.7784 32.7868 86.7587 32.9484 86.7587 33.1748C86.7587 33.4012 86.7391 33.5629 86.7115 33.5629C86.6856 33.5629 86.6643 33.672 86.6643 33.8054C86.6643 33.9388 86.6431 34.048 86.6171 34.048C86.5912 34.048 86.5699 34.1571 86.5699 34.2905C86.5699 34.4239 86.5487 34.533 86.5227 34.533C86.4968 34.533 86.4755 34.6204 86.4755 34.7271C86.4755 34.8338 86.4543 34.9211 86.4283 34.9211C86.4024 34.9211 86.3811 35.0084 86.3811 35.1151C86.3811 35.2218 86.3599 35.3092 86.3339 35.3092C86.308 35.3092 86.2867 35.3746 86.2867 35.4547C86.2867 35.5347 86.2655 35.6002 86.2395 35.6002C86.2135 35.6002 86.1923 35.6875 86.1923 35.7942C86.1923 35.901 86.1711 35.9883 86.1451 35.9883C86.1191 35.9883 86.0979 36.0319 86.0979 36.0853C86.0979 36.1386 86.0767 36.1823 86.0507 36.1823C86.0247 36.1823 86.0035 36.2478 86.0035 36.3278C86.0035 36.4079 85.9823 36.4733 85.9563 36.4733C85.9303 36.4733 85.9091 36.517 85.9091 36.5704C85.9091 36.6237 85.8878 36.6674 85.8619 36.6674C85.8359 36.6674 85.8147 36.711 85.8147 36.7644C85.8147 36.8177 85.7934 36.8614 85.7675 36.8614C85.7415 36.8614 85.7203 36.9051 85.7203 36.9584C85.7203 37.0118 85.699 37.0554 85.6731 37.0554C85.6471 37.0554 85.6259 37.0991 85.6259 37.1524C85.6259 37.2058 85.6046 37.2495 85.5787 37.2495C85.5527 37.2495 85.5315 37.2883 85.5315 37.3358C85.5315 37.3832 85.489 37.4535 85.4371 37.492C85.3851 37.5305 85.3427 37.6007 85.3427 37.6482C85.3427 37.6957 85.3214 37.7345 85.2954 37.7345C85.2695 37.7345 85.2482 37.7734 85.2482 37.8208C85.2482 37.8683 85.2058 37.9386 85.1538 37.9771C85.1019 38.0155 85.0594 38.081 85.0594 38.1226C85.0594 38.1642 85.017 38.2296 84.965 38.2681C84.9131 38.3066 84.8706 38.367 84.8706 38.4024C84.8706 38.4378 84.7219 38.6175 84.5402 38.8017C84.3585 38.9859 84.2098 39.1704 84.2098 39.2117C84.2098 39.253 84.1767 39.2868 84.1364 39.2868C84.096 39.2868 83.9379 39.4177 83.785 39.5778C83.6321 39.7379 83.4739 39.8689 83.4335 39.8689C83.3932 39.8689 83.3601 39.8907 83.3601 39.9174C83.3601 39.944 83.3176 39.9659 83.2657 39.9659C83.2138 39.9659 83.1713 39.9877 83.1713 40.0144C83.1713 40.0411 83.1076 40.0629 83.0297 40.0629C82.9518 40.0629 82.8881 40.0847 82.8881 40.1114C82.8881 40.1381 82.8456 40.1599 82.7937 40.1599C82.7418 40.1599 82.6993 40.1817 82.6993 40.2084C82.6993 40.2351 82.6615 40.2569 82.6153 40.2569C82.5691 40.2569 82.5007 40.3006 82.4633 40.3539C82.4259 40.4073 82.3666 40.451 82.3315 40.451C82.2451 40.451 82.1329 40.5723 82.1329 40.6658C82.1329 40.7077 82.1116 40.742 82.0857 40.742C82.0156 40.742 82.0285 40.8843 82.1059 40.9637C82.143 41.0019 82.2492 41.033 82.3419 41.033C82.4346 41.033 82.5105 41.0549 82.5105 41.0816C82.5105 41.1092 82.6521 41.1301 82.8409 41.1301C83.0297 41.1301 83.1713 41.1092 83.1713 41.0816C83.1713 41.0549 83.235 41.033 83.3129 41.033C83.3908 41.033 83.4545 41.0112 83.4545 40.9845C83.4545 40.9579 83.497 40.936 83.5489 40.936C83.6009 40.936 83.6434 40.9142 83.6434 40.8875C83.6434 40.8608 83.6858 40.839 83.7378 40.839C83.7897 40.839 83.8322 40.8172 83.8322 40.7905C83.8322 40.7638 83.87 40.742 83.9161 40.742C83.9623 40.742 84.0307 40.6983 84.0682 40.645C84.1056 40.5916 84.1655 40.548 84.2013 40.548C84.237 40.548 84.3259 40.4825 84.3986 40.4024C84.4713 40.3224 84.5544 40.2569 84.5831 40.2569C84.6506 40.2569 86.3811 38.4796 86.3811 38.4101C86.3811 38.3812 86.4661 38.2736 86.5699 38.1711C86.6738 38.0686 86.7587 37.955 86.7587 37.9188C86.7587 37.8826 86.8012 37.8215 86.8531 37.783C86.9051 37.7446 86.9475 37.6791 86.9475 37.6375C86.9475 37.5959 86.99 37.5305 87.042 37.492C87.094 37.4534 87.1364 37.3664 87.1364 37.298C87.1364 37.2295 87.1787 37.1425 87.2308 37.1039C87.2827 37.0655 87.3252 36.9952 87.3252 36.9477C87.3252 36.9003 87.3464 36.8614 87.3724 36.8614C87.3983 36.8614 87.4196 36.8177 87.4196 36.7644C87.4196 36.711 87.4408 36.6674 87.4668 36.6674C87.4927 36.6674 87.514 36.6019 87.514 36.5218C87.514 36.4418 87.5352 36.3763 87.5612 36.3763C87.5871 36.3763 87.6084 36.3327 87.6084 36.2793C87.6084 36.226 87.6296 36.1823 87.6556 36.1823C87.6816 36.1823 87.7028 36.1386 87.7028 36.0853C87.7028 36.0319 87.724 35.9883 87.75 35.9883C87.776 35.9883 87.7972 35.9228 87.7972 35.8427C87.7972 35.7627 87.8184 35.6972 87.8444 35.6972C87.8704 35.6972 87.8916 35.6317 87.8916 35.5517C87.8916 35.4717 87.9128 35.4062 87.9388 35.4062C87.9648 35.4062 87.986 35.3407 87.986 35.2607C87.986 35.1806 88.0072 35.1151 88.0332 35.1151C88.0592 35.1151 88.0804 35.0496 88.0804 34.9696C88.0804 34.8896 88.1017 34.8241 88.1276 34.8241C88.1536 34.8241 88.1748 34.7368 88.1748 34.6301C88.1748 34.5233 88.1961 34.436 88.222 34.436C88.248 34.436 88.2692 34.3705 88.2692 34.2905C88.2692 34.2105 88.2905 34.145 88.3164 34.145C88.3424 34.145 88.3636 34.0358 88.3636 33.9024C88.3636 33.7691 88.3849 33.6599 88.4108 33.6599C88.4368 33.6599 88.458 33.5508 88.458 33.4174C88.458 33.284 88.4793 33.1748 88.5052 33.1748C88.5315 33.1748 88.5524 33.0455 88.5524 32.8838C88.5524 32.7221 88.5734 32.5927 88.5996 32.5927C88.6276 32.5927 88.6469 32.4149 88.6469 32.1562C88.6469 31.8975 88.6661 31.7196 88.6941 31.7196C88.7233 31.7196 88.7413 31.4609 88.7413 31.0405C88.7413 30.6201 88.7592 30.3614 88.7885 30.3614C88.8186 30.3614 88.8357 29.9572 88.8357 29.2457C88.8357 28.5343 88.8186 28.1301 88.7885 28.1301C88.7592 28.1301 88.7413 27.8714 88.7413 27.451C88.7413 27.0305 88.7233 26.7718 88.6941 26.7718C88.6665 26.7718 88.6469 26.6102 88.6469 26.3838C88.6469 26.1574 88.6272 25.9957 88.5996 25.9957C88.5734 25.9957 88.5524 25.8664 88.5524 25.7047C88.5524 25.543 88.5315 25.4136 88.5052 25.4136C88.4793 25.4136 88.458 25.3045 88.458 25.1711C88.458 25.0377 88.4368 24.9286 88.4108 24.9286C88.3849 24.9286 88.3636 24.8413 88.3636 24.7345C88.3636 24.6278 88.3424 24.5405 88.3164 24.5405C88.2905 24.5405 88.2692 24.4532 88.2692 24.3465C88.2692 24.2398 88.248 24.1524 88.222 24.1524C88.1961 24.1524 88.1748 24.0651 88.1748 23.9584C88.1748 23.8517 88.1536 23.7644 88.1276 23.7644C88.1017 23.7644 88.0804 23.6989 88.0804 23.6189C88.0804 23.5388 88.0592 23.4733 88.0332 23.4733C88.0072 23.4733 87.986 23.4079 87.986 23.3278C87.986 23.2478 87.9648 23.1823 87.9388 23.1823C87.9128 23.1823 87.8916 23.1168 87.8916 23.0368C87.8916 22.9567 87.8704 22.8913 87.8444 22.8913C87.8184 22.8913 87.7972 22.8476 87.7972 22.7942C87.7972 22.7409 87.776 22.6972 87.75 22.6972C87.724 22.6972 87.7028 22.6317 87.7028 22.5517C87.7028 22.4717 87.6816 22.4062 87.6556 22.4062C87.6296 22.4062 87.6084 22.3625 87.6084 22.3092C87.6084 22.2558 87.5871 22.2121 87.5612 22.2121C87.5352 22.2121 87.514 22.1685 87.514 22.1151C87.514 22.0618 87.4927 22.0181 87.4668 22.0181C87.4408 22.0181 87.4196 21.9745 87.4196 21.9211C87.4196 21.8677 87.3983 21.8241 87.3724 21.8241C87.3464 21.8241 87.3252 21.7804 87.3252 21.7271C87.3252 21.6737 87.3039 21.6301 87.278 21.6301C87.252 21.6301 87.2308 21.5864 87.2308 21.533C87.2308 21.4797 87.2095 21.436 87.1836 21.436C87.1576 21.436 87.1364 21.3924 87.1364 21.339C87.1364 21.2857 87.1151 21.242 87.0892 21.242C87.0632 21.242 87.042 21.2071 87.042 21.1644C87.042 21.1218 86.9782 21.0257 86.9003 20.951C86.8225 20.8762 86.7587 20.7908 86.7587 20.7611C86.7587 20.6909 85.7846 19.6898 85.7162 19.6898C85.6873 19.6898 85.6042 19.6243 85.5315 19.5442C85.4587 19.4642 85.3699 19.3987 85.3342 19.3987C85.2984 19.3987 85.2385 19.3551 85.201 19.3017C85.1636 19.2483 85.0999 19.2047 85.0594 19.2047C85.019 19.2047 84.9553 19.161 84.9178 19.1077C84.8804 19.0543 84.812 19.0107 84.7658 19.0107C84.7196 19.0107 84.6818 18.9888 84.6818 18.9621C84.6818 18.9355 84.6393 18.9136 84.5874 18.9136C84.5355 18.9136 84.493 18.8918 84.493 18.8651C84.493 18.8385 84.408 18.8166 84.3042 18.8166C84.2003 18.8166 84.1154 18.7948 84.1154 18.7681C84.1154 18.7414 84.0517 18.7196 83.9738 18.7196C83.8959 18.7196 83.8322 18.6978 83.8322 18.6711C83.8322 18.6444 83.7472 18.6226 83.6434 18.6226C83.5395 18.6226 83.4545 18.6008 83.4545 18.5741C83.4545 18.5474 83.3483 18.5256 83.2185 18.5256C83.0887 18.5256 82.9825 18.5038 82.9825 18.4771C82.9825 18.4488 82.8252 18.4286 82.6049 18.4286C82.3846 18.4286 82.2273 18.4083 82.2273 18.3801C82.2273 18.3494 81.8969 18.3316 81.3304 18.3316C80.764 18.3316 80.4336 18.3494 80.4336 18.3801ZM89.1189 18.3801C89.1189 18.4067 89.1826 18.4286 89.2605 18.4286C89.3384 18.4286 89.4021 18.4504 89.4021 18.4771C89.4021 18.5038 89.4871 18.5256 89.5909 18.5256C89.6947 18.5256 89.7797 18.5474 89.7797 18.5741C89.7797 18.6008 89.8222 18.6226 89.8741 18.6226C89.926 18.6226 89.9685 18.6444 89.9685 18.6711C89.9685 18.6978 90.011 18.7196 90.0629 18.7196C90.1149 18.7196 90.1573 18.7414 90.1573 18.7681C90.1573 18.7948 90.2164 18.8166 90.2885 18.8166C90.3656 18.8166 90.4478 18.8567 90.4878 18.9136C90.5252 18.967 90.5833 19.0107 90.6168 19.0107C90.7026 19.0107 91.5734 19.9152 91.5734 20.0044C91.5734 20.0448 91.5947 20.0778 91.6206 20.0778C91.6466 20.0778 91.6678 20.1215 91.6678 20.1748C91.6678 20.2282 91.6891 20.2718 91.715 20.2718C91.741 20.2718 91.7622 20.3155 91.7622 20.3689C91.7622 20.4222 91.7835 20.4659 91.8094 20.4659C91.8354 20.4659 91.8566 20.5314 91.8566 20.6114C91.8566 20.6914 91.8779 20.7569 91.9038 20.7569C91.9298 20.7569 91.951 20.8442 91.951 20.951C91.951 21.0577 91.9723 21.145 91.9983 21.145C92.0295 21.145 92.0454 24.4851 92.0454 31.0682C92.0454 39.6037 92.0549 41.0012 92.1129 41.0607C92.1603 41.1095 92.2945 41.1301 92.5647 41.1301C92.8349 41.1301 92.9691 41.1095 93.0165 41.0607C93.0744 41.0012 93.0839 39.7007 93.0839 31.7958V22.6002H93.2979C93.4791 22.6002 93.5369 22.626 93.6755 22.7684C93.7655 22.8608 93.8392 22.9612 93.8392 22.9914C93.8392 23.0216 93.9029 23.1075 93.9808 23.1823C94.0587 23.257 94.1224 23.3444 94.1224 23.3763C94.1224 23.4083 94.1861 23.4956 94.264 23.5704C94.3419 23.6451 94.4056 23.7364 94.4056 23.7731C94.4056 23.8099 94.4481 23.8714 94.5 23.9099C94.5519 23.9484 94.5944 24.0099 94.5944 24.0467C94.5944 24.0834 94.6581 24.1747 94.736 24.2495C94.8139 24.3242 94.8776 24.4155 94.8776 24.4522C94.8776 24.489 94.9201 24.5505 94.972 24.589C95.0239 24.6275 95.0664 24.693 95.0664 24.7345C95.0664 24.7761 95.1089 24.8416 95.1608 24.8801C95.2128 24.9185 95.2552 24.984 95.2552 25.0256C95.2552 25.0672 95.2977 25.1326 95.3496 25.1711C95.4016 25.2096 95.4441 25.2751 95.4441 25.3166C95.4441 25.3582 95.4865 25.4237 95.5385 25.4621C95.5904 25.5006 95.6329 25.5622 95.6329 25.5989C95.6329 25.6357 95.6966 25.7269 95.7745 25.8017C95.8524 25.8764 95.9161 25.9677 95.9161 26.0045C95.9161 26.0412 95.9586 26.1028 96.0105 26.1413C96.0624 26.1797 96.1049 26.2452 96.1049 26.2868C96.1049 26.3283 96.1474 26.3938 96.1993 26.4323C96.2512 26.4708 96.2937 26.5362 96.2937 26.5778C96.2937 26.6194 96.3362 26.6849 96.3881 26.7233C96.44 26.7618 96.4825 26.8273 96.4825 26.8689C96.4825 26.9104 96.525 26.9759 96.5769 27.0144C96.6288 27.0529 96.6713 27.1144 96.6713 27.1512C96.6713 27.1879 96.735 27.2792 96.8129 27.3539C96.8908 27.4287 96.9545 27.52 96.9545 27.5567C96.9545 27.5935 96.997 27.655 97.0489 27.6935C97.1009 27.732 97.1433 27.7935 97.1433 27.8303C97.1433 27.867 97.2071 27.9583 97.285 28.033C97.3628 28.1078 97.4266 28.1991 97.4266 28.2358C97.4266 28.2726 97.4691 28.3341 97.521 28.3726C97.5729 28.4111 97.6154 28.4765 97.6154 28.5181C97.6154 28.5597 97.6579 28.6252 97.7098 28.6636C97.7617 28.7021 97.8042 28.7676 97.8042 28.8092C97.8042 28.8507 97.8467 28.9162 97.8986 28.9547C97.9505 28.9932 97.993 29.0547 97.993 29.0915C97.993 29.1282 98.0567 29.2195 98.1346 29.2942C98.2125 29.369 98.2762 29.4651 98.2762 29.5077C98.2762 29.5504 98.2975 29.5853 98.3234 29.5853C98.3494 29.5853 98.3706 29.6241 98.3706 29.6716C98.3706 29.7191 98.4131 29.7894 98.465 29.8278C98.517 29.8663 98.5594 29.9318 98.5594 29.9733C98.5594 30.0149 98.6019 30.0804 98.6538 30.1189C98.7058 30.1573 98.7483 30.2189 98.7483 30.2557C98.7483 30.2924 98.812 30.3837 98.8899 30.4584C98.9677 30.5332 99.0315 30.6245 99.0315 30.6612C99.0315 30.6979 99.0739 30.7595 99.1259 30.798C99.1778 30.8364 99.2203 30.898 99.2203 30.9348C99.2203 30.9715 99.284 31.0628 99.3619 31.1375C99.4398 31.2123 99.5035 31.3036 99.5035 31.3403C99.5035 31.3771 99.546 31.4386 99.5979 31.4771C99.6498 31.5155 99.6923 31.581 99.6923 31.6226C99.6923 31.6642 99.7348 31.7297 99.7867 31.7681C99.8386 31.8066 99.8811 31.8721 99.8811 31.9136C99.8811 31.9552 99.9236 32.0207 99.9755 32.0592C100.027 32.0976 100.07 32.1592 100.07 32.196C100.07 32.2327 100.134 32.324 100.212 32.3987C100.289 32.4735 100.353 32.5648 100.353 32.6015C100.353 32.6382 100.396 32.6998 100.448 32.7383C100.499 32.7767 100.542 32.847 100.542 32.8945C100.542 32.9419 100.563 32.9808 100.589 32.9808C100.615 32.9808 100.636 33.0157 100.636 33.0584C100.636 33.101 100.7 33.1971 100.778 33.2718C100.856 33.3466 100.92 33.4379 100.92 33.4746C100.92 33.5114 100.962 33.5729 101.014 33.6114C101.066 33.6499 101.108 33.7154 101.108 33.7569C101.108 33.7985 101.151 33.864 101.203 33.9024C101.255 33.9409 101.297 34.0025 101.297 34.0392C101.297 34.076 101.361 34.1672 101.439 34.242C101.517 34.3167 101.58 34.408 101.58 34.4448C101.58 34.4815 101.623 34.5431 101.675 34.5816C101.727 34.62 101.769 34.6855 101.769 34.7271C101.769 34.7686 101.812 34.8341 101.864 34.8726C101.916 34.9111 101.958 34.9765 101.958 35.0181C101.958 35.0597 102.001 35.1252 102.052 35.1636C102.104 35.2021 102.147 35.2637 102.147 35.3004C102.147 35.3371 102.211 35.4284 102.288 35.5032C102.366 35.5779 102.43 35.6692 102.43 35.706C102.43 35.7427 102.473 35.8043 102.524 35.8427C102.576 35.8812 102.619 35.9467 102.619 35.9883C102.619 36.0298 102.661 36.0953 102.713 36.1338C102.765 36.1723 102.808 36.2377 102.808 36.2793C102.808 36.3209 102.85 36.3864 102.902 36.4248C102.954 36.4633 102.996 36.5288 102.996 36.5704C102.996 36.6119 103.039 36.6774 103.091 36.7159C103.143 36.7543 103.185 36.8198 103.185 36.8614C103.185 36.903 103.228 36.9685 103.28 37.0069C103.332 37.0454 103.374 37.1069 103.374 37.1437C103.374 37.1804 103.438 37.2717 103.516 37.3465C103.594 37.4212 103.657 37.5125 103.657 37.5492C103.657 37.586 103.7 37.6476 103.752 37.686C103.804 37.7245 103.846 37.79 103.846 37.8316C103.846 37.8731 103.889 37.9386 103.941 37.9771C103.992 38.0155 104.035 38.0771 104.035 38.1139C104.035 38.1506 104.099 38.2419 104.177 38.3166C104.254 38.3914 104.318 38.4827 104.318 38.5194C104.318 38.5562 104.361 38.6177 104.413 38.6562C104.465 38.6946 104.507 38.7601 104.507 38.8017C104.507 38.8433 104.549 38.9088 104.601 38.9472C104.653 38.9857 104.696 39.0472 104.696 39.084C104.696 39.1207 104.76 39.212 104.837 39.2868C104.915 39.3615 104.979 39.4576 104.979 39.5003C104.979 39.5429 105 39.5778 105.026 39.5778C105.052 39.5778 105.073 39.6127 105.073 39.6554C105.073 39.698 105.137 39.7941 105.215 39.8689C105.293 39.9436 105.357 40.0349 105.357 40.0716C105.357 40.1084 105.399 40.1699 105.451 40.2084C105.503 40.2469 105.545 40.3124 105.545 40.3539C105.545 40.3955 105.588 40.461 105.64 40.4995C105.692 40.5379 105.734 40.6034 105.734 40.645C105.734 40.6866 105.777 40.752 105.829 40.7905C105.881 40.829 105.923 40.8894 105.923 40.9247C105.923 40.9866 106.128 41.2271 106.181 41.2271C106.195 41.2271 106.206 36.403 106.206 30.5069C106.206 23.3925 106.222 19.7868 106.253 19.7868C106.279 19.7868 106.301 19.7431 106.301 19.6898C106.301 19.6364 106.322 19.5927 106.348 19.5927C106.374 19.5927 106.395 19.559 106.395 19.5178C106.395 19.4207 106.605 19.2047 106.7 19.2047C106.74 19.2047 106.773 19.1829 106.773 19.1562C106.773 19.1295 106.836 19.1077 106.914 19.1077C106.992 19.1077 107.056 19.0858 107.056 19.0592C107.056 19.0325 107.141 19.0107 107.245 19.0107C107.349 19.0107 107.434 18.9888 107.434 18.9621C107.434 18.9352 107.559 18.9136 107.717 18.9136H108V18.6226V18.3316H105.781C104.334 18.3316 103.563 18.3484 103.563 18.3801C103.563 18.4067 103.605 18.4286 103.657 18.4286C103.709 18.4286 103.752 18.4504 103.752 18.4771C103.752 18.5038 103.815 18.5256 103.893 18.5256C103.971 18.5256 104.035 18.5474 104.035 18.5741C104.035 18.6008 104.077 18.6226 104.129 18.6226C104.181 18.6226 104.224 18.6444 104.224 18.6711C104.224 18.6978 104.266 18.7196 104.318 18.7196C104.37 18.7196 104.413 18.7414 104.413 18.7681C104.413 18.7948 104.466 18.8166 104.532 18.8166C104.665 18.8166 105.073 19.1996 105.073 19.3247C105.073 19.3654 105.095 19.3987 105.121 19.3987C105.147 19.3987 105.168 19.4424 105.168 19.4957C105.168 19.5491 105.189 19.5927 105.215 19.5927C105.241 19.5927 105.262 19.6364 105.262 19.6898C105.262 19.7431 105.283 19.7868 105.309 19.7868C105.341 19.7868 105.357 22.487 105.357 27.7905C105.357 33.094 105.341 35.7942 105.309 35.7942C105.283 35.7942 105.262 35.7554 105.262 35.7079C105.262 35.6604 105.22 35.5902 105.168 35.5517C105.116 35.5132 105.073 35.4429 105.073 35.3955C105.073 35.348 105.052 35.3092 105.026 35.3092C105 35.3092 104.979 35.2743 104.979 35.2316C104.979 35.189 104.915 35.0929 104.837 35.0181C104.76 34.9434 104.696 34.8521 104.696 34.8153C104.696 34.7786 104.653 34.717 104.601 34.6786C104.549 34.6401 104.507 34.5785 104.507 34.5418C104.507 34.5051 104.443 34.4138 104.365 34.339C104.287 34.2643 104.224 34.173 104.224 34.1362C104.224 34.0995 104.181 34.0379 104.129 33.9995C104.077 33.961 104.035 33.8994 104.035 33.8627C104.035 33.826 103.971 33.7347 103.893 33.6599C103.815 33.5852 103.752 33.4939 103.752 33.4571C103.752 33.4204 103.709 33.3588 103.657 33.3204C103.605 33.2819 103.563 33.2164 103.563 33.1748C103.563 33.1333 103.52 33.0678 103.469 33.0293C103.417 32.9908 103.374 32.9293 103.374 32.8925C103.374 32.8558 103.31 32.7645 103.233 32.6898C103.155 32.615 103.091 32.5237 103.091 32.487C103.091 32.4502 103.048 32.3887 102.996 32.3502C102.945 32.3117 102.902 32.2463 102.902 32.2047C102.902 32.1631 102.86 32.0976 102.808 32.0592C102.756 32.0207 102.713 31.9552 102.713 31.9136C102.713 31.8721 102.671 31.8066 102.619 31.7681C102.567 31.7297 102.524 31.6642 102.524 31.6226C102.524 31.581 102.482 31.5155 102.43 31.4771C102.378 31.4386 102.336 31.3771 102.336 31.3403C102.336 31.3036 102.272 31.2123 102.194 31.1375C102.116 31.0628 102.052 30.9755 102.052 30.9435C102.052 30.9115 101.989 30.8242 101.911 30.7495C101.833 30.6747 101.769 30.5834 101.769 30.5467C101.769 30.5099 101.727 30.4484 101.675 30.4099C101.623 30.3714 101.58 30.306 101.58 30.2644C101.58 30.2228 101.538 30.1573 101.486 30.1189C101.434 30.0804 101.392 30.0188 101.392 29.9821C101.392 29.9454 101.328 29.8541 101.25 29.7793C101.172 29.7046 101.108 29.6133 101.108 29.5765C101.108 29.5398 101.066 29.4782 101.014 29.4398C100.962 29.4013 100.92 29.3358 100.92 29.2942C100.92 29.2527 100.877 29.1872 100.825 29.1487C100.773 29.1102 100.731 29.0448 100.731 29.0032C100.731 28.9616 100.688 28.8961 100.636 28.8577C100.584 28.8192 100.542 28.7537 100.542 28.7121C100.542 28.6706 100.499 28.6051 100.448 28.5666C100.396 28.5282 100.353 28.4666 100.353 28.4298C100.353 28.3931 100.289 28.3018 100.212 28.2271C100.134 28.1523 100.07 28.065 100.07 28.033C100.07 28.0011 100.006 27.9138 99.9283 27.839C99.8504 27.7643 99.7867 27.673 99.7867 27.6363C99.7867 27.5995 99.7442 27.5379 99.6923 27.4995C99.6404 27.461 99.5979 27.3955 99.5979 27.3539C99.5979 27.3124 99.5554 27.2469 99.5035 27.2084C99.4516 27.1699 99.4091 27.1045 99.4091 27.0629C99.4091 27.0213 99.3666 26.9558 99.3147 26.9174C99.2628 26.8789 99.2203 26.8173 99.2203 26.7806C99.2203 26.7439 99.1565 26.6526 99.0787 26.5778C99.0008 26.5031 98.9371 26.4118 98.9371 26.3751C98.9371 26.3383 98.8946 26.2767 98.8427 26.2383C98.7907 26.1998 98.7483 26.1343 98.7483 26.0927C98.7483 26.0512 98.7058 25.9857 98.6538 25.9472C98.6019 25.9088 98.5594 25.8433 98.5594 25.8017C98.5594 25.7601 98.517 25.6946 98.465 25.6562C98.4131 25.6177 98.3706 25.5522 98.3706 25.5107C98.3706 25.4691 98.3281 25.4036 98.2762 25.3651C98.2243 25.3267 98.1818 25.2651 98.1818 25.2283C98.1818 25.1916 98.1181 25.1003 98.0402 25.0256C97.9623 24.9508 97.8986 24.8635 97.8986 24.8315C97.8986 24.7996 97.8349 24.7123 97.757 24.6375C97.6791 24.5628 97.6154 24.4715 97.6154 24.4348C97.6154 24.398 97.5729 24.3364 97.521 24.298C97.4691 24.2595 97.4266 24.194 97.4266 24.1524C97.4266 24.1109 97.3841 24.0454 97.3322 24.0069C97.2802 23.9685 97.2378 23.903 97.2378 23.8614C97.2378 23.8198 97.1953 23.7543 97.1433 23.7159C97.0914 23.6774 97.0489 23.6159 97.0489 23.5791C97.0489 23.5424 96.9852 23.4511 96.9073 23.3763C96.8295 23.3016 96.7657 23.2103 96.7657 23.1736C96.7657 23.1368 96.7233 23.0752 96.6713 23.0368C96.6194 22.9983 96.5769 22.9368 96.5769 22.9C96.5769 22.8633 96.5132 22.772 96.4353 22.6972C96.3574 22.6225 96.2937 22.5312 96.2937 22.4945C96.2937 22.4577 96.2512 22.3961 96.1993 22.3577C96.1474 22.3192 96.1049 22.2537 96.1049 22.2121C96.1049 22.1706 96.0624 22.1051 96.0105 22.0666C95.9586 22.0282 95.9161 21.9627 95.9161 21.9211C95.9161 21.8795 95.8736 21.814 95.8217 21.7756C95.7698 21.7371 95.7273 21.6716 95.7273 21.6301C95.7273 21.5885 95.6848 21.523 95.6329 21.4845C95.5809 21.4461 95.5385 21.385 95.5385 21.3488C95.5385 21.3125 95.4535 21.199 95.3496 21.0965C95.2458 20.9939 95.1608 20.8804 95.1608 20.8442C95.1608 20.808 95.1183 20.7469 95.0664 20.7084C95.0145 20.6699 94.972 20.6045 94.972 20.5629C94.972 20.5213 94.9295 20.4558 94.8776 20.4174C94.8257 20.3789 94.7832 20.3134 94.7832 20.2718C94.7832 20.2303 94.7407 20.1648 94.6888 20.1263C94.6369 20.0879 94.5944 20.0263 94.5944 19.9895C94.5944 19.9528 94.5307 19.8615 94.4528 19.7868C94.3749 19.712 94.3112 19.6207 94.3112 19.584C94.3112 19.5472 94.2687 19.4857 94.2168 19.4472C94.1649 19.4088 94.1224 19.3433 94.1224 19.3017C94.1224 19.2601 94.0799 19.1946 94.028 19.1562C93.9761 19.1177 93.9336 19.0522 93.9336 19.0107C93.9336 18.9691 93.8911 18.9036 93.8392 18.8651C93.7872 18.8267 93.7448 18.7666 93.7448 18.7315C93.7448 18.6965 93.6711 18.5922 93.5811 18.4997L93.4175 18.3316H91.2682C89.8668 18.3316 89.1189 18.3484 89.1189 18.3801ZM20.1084 27.9845C20.1084 34.3229 20.0925 37.5405 20.0612 37.5405C20.0342 37.5405 20.014 37.686 20.014 37.8801C20.014 38.0741 19.9937 38.2196 19.9668 38.2196C19.9408 38.2196 19.9196 38.3069 19.9196 38.4136C19.9196 38.5204 19.8983 38.6077 19.8724 38.6077C19.8464 38.6077 19.8252 38.6902 19.8252 38.791C19.8252 38.9187 19.7965 38.9955 19.7308 39.0442C19.6788 39.0827 19.6364 39.153 19.6364 39.2005C19.6364 39.2479 19.6151 39.2868 19.5892 39.2868C19.5632 39.2868 19.542 39.3202 19.542 39.3611C19.542 39.4519 19.2388 39.7719 19.1527 39.7719C19.1186 39.7719 19.0602 39.8155 19.0227 39.8689C18.9853 39.9222 18.9169 39.9659 18.8707 39.9659C18.8245 39.9659 18.7867 39.9877 18.7867 40.0144C18.7867 40.0411 18.7442 40.0629 18.6923 40.0629C18.6404 40.0629 18.5979 40.0847 18.5979 40.1114C18.5979 40.1381 18.5342 40.1599 18.4563 40.1599C18.3784 40.1599 18.3147 40.1817 18.3147 40.2084C18.3147 40.2351 18.251 40.2569 18.1731 40.2569C18.0952 40.2569 18.0315 40.2788 18.0315 40.3054C18.0315 40.3321 17.9677 40.3539 17.8899 40.3539C17.812 40.3539 17.7483 40.3758 17.7483 40.4024C17.7483 40.4291 17.6845 40.451 17.6066 40.451C17.5288 40.451 17.465 40.4728 17.465 40.4995C17.465 40.5261 17.4013 40.548 17.3234 40.548C17.2455 40.548 17.1818 40.5698 17.1818 40.5965C17.1818 40.6232 17.1393 40.645 17.0874 40.645C17.0355 40.645 16.993 40.6668 16.993 40.6935C16.993 40.7202 16.9602 40.742 16.9201 40.742C16.8256 40.742 16.6154 40.958 16.6154 41.0551C16.6154 41.1224 17.41 41.1301 24.3999 41.1301C30.5833 41.1301 32.1894 41.1176 32.2084 41.0694C32.2264 41.0236 32.2456 41.0266 32.2867 41.0816C32.3278 41.1365 32.347 41.1395 32.365 41.0937C32.3782 41.0604 32.4201 41.033 32.458 41.033C32.5493 41.033 32.7587 40.815 32.7587 40.7199C32.7587 40.6787 32.78 40.645 32.8059 40.645C32.8319 40.645 32.8531 40.5795 32.8531 40.4995C32.8531 40.4194 32.8744 40.3539 32.9003 40.3539C32.9263 40.3539 32.9476 40.2448 32.9476 40.1114C32.9476 39.978 32.9688 39.8689 32.9948 39.8689C33.021 39.8689 33.042 39.7395 33.042 39.5778C33.042 39.4161 33.0629 39.2868 33.0892 39.2868C33.1171 39.2868 33.1364 39.1089 33.1364 38.8502C33.1364 38.5915 33.1556 38.4136 33.1836 38.4136C33.2138 38.4136 33.2308 37.9609 33.2308 37.1524C33.2308 36.344 33.2138 35.8913 33.1836 35.8913C33.1576 35.8913 33.1364 35.8476 33.1364 35.7942C33.1364 35.7391 33.1049 35.6972 33.0634 35.6972C32.9742 35.6972 32.7587 35.9111 32.7587 35.9996C32.7587 36.0349 32.7163 36.0953 32.6643 36.1338C32.6124 36.1723 32.5699 36.2425 32.5699 36.29C32.5699 36.3375 32.5487 36.3763 32.5227 36.3763C32.4968 36.3763 32.4755 36.42 32.4755 36.4733C32.4755 36.5267 32.4543 36.5704 32.4283 36.5704C32.4024 36.5704 32.3811 36.614 32.3811 36.6674C32.3811 36.7207 32.3599 36.7644 32.3339 36.7644C32.308 36.7644 32.2867 36.808 32.2867 36.8614C32.2867 36.9148 32.2655 36.9584 32.2395 36.9584C32.2135 36.9584 32.1923 36.9973 32.1923 37.0447C32.1923 37.0922 32.1498 37.1625 32.0979 37.201C32.046 37.2394 32.0035 37.3097 32.0035 37.3572C32.0035 37.4046 31.9823 37.4435 31.9563 37.4435C31.9303 37.4435 31.9091 37.4823 31.9091 37.5298C31.9091 37.5773 31.8666 37.6476 31.8147 37.686C31.7628 37.7245 31.7203 37.786 31.7203 37.8228C31.7203 37.8595 31.6566 37.9508 31.5787 38.0256C31.5008 38.1003 31.4371 38.1876 31.4371 38.2196C31.4371 38.2516 31.3733 38.3389 31.2955 38.4136C31.2176 38.4884 31.1538 38.5739 31.1538 38.6036C31.1538 38.6857 30.4576 39.3838 30.3758 39.3838C30.3364 39.3838 30.3042 39.4056 30.3042 39.4323C30.3042 39.459 30.2617 39.4808 30.2098 39.4808C30.1579 39.4808 30.1154 39.5026 30.1154 39.5293C30.1154 39.556 30.0729 39.5778 30.021 39.5778C29.9691 39.5778 29.9266 39.5996 29.9266 39.6263C29.9266 39.653 29.8629 39.6748 29.785 39.6748C29.7071 39.6748 29.6434 39.6967 29.6434 39.7233C29.6434 39.75 29.5796 39.7719 29.5017 39.7719C29.4239 39.7719 29.3601 39.7937 29.3601 39.8204C29.3601 39.847 29.2964 39.8689 29.2185 39.8689C29.1406 39.8689 29.0769 39.8907 29.0769 39.9174C29.0769 39.944 28.9707 39.9659 28.8409 39.9659C28.7111 39.9659 28.6049 39.9877 28.6049 40.0144C28.6049 40.0427 28.4476 40.0629 28.2273 40.0629C28.007 40.0629 27.8496 40.0831 27.8496 40.1114C27.8496 40.1429 27.2203 40.1599 26.0559 40.1599C24.8916 40.1599 24.2622 40.1429 24.2622 40.1114C24.2622 40.0847 24.156 40.0629 24.0262 40.0629C23.8964 40.0629 23.7902 40.0411 23.7902 40.0144C23.7902 39.9877 23.7312 39.9659 23.659 39.9659C23.582 39.9659 23.4998 39.9258 23.4598 39.8689C23.4224 39.8155 23.354 39.7719 23.3077 39.7719C23.2616 39.7719 23.2238 39.737 23.2238 39.6943C23.2238 39.6516 23.1601 39.5556 23.0822 39.4808C22.9951 39.3972 22.9406 39.2963 22.9406 39.2188C22.9406 39.1494 22.9193 39.0927 22.8934 39.0927C22.8674 39.0927 22.8462 39.0054 22.8462 38.8987C22.8462 38.792 22.8249 38.7047 22.799 38.7047C22.773 38.7047 22.7517 38.5955 22.7517 38.4621C22.7517 38.3288 22.7305 38.2196 22.7045 38.2196C22.6757 38.2196 22.6573 37.9932 22.6573 37.6375C22.6573 37.2818 22.639 37.0554 22.6101 37.0554C22.5789 37.0554 22.5629 34.6786 22.5629 30.0218C22.5629 25.3651 22.5789 22.9883 22.6101 22.9883C22.6402 22.9883 22.6573 22.6082 22.6573 21.9451V20.9019L21.5955 19.8108C21.0116 19.2106 20.5018 18.7196 20.4626 18.7196C20.4236 18.7196 20.3916 18.6853 20.3916 18.6434C20.3916 18.6014 20.3613 18.536 20.3242 18.4979C20.2871 18.4598 20.2234 18.4286 20.1825 18.4286C20.1154 18.4286 20.1084 19.3296 20.1084 27.9845ZM41.1136 18.7196C41.0762 18.773 41.0078 18.8166 40.9616 18.8166C40.9091 18.8166 40.8776 18.853 40.8776 18.9136C40.8776 18.9977 40.9091 19.0107 41.1136 19.0107C41.2434 19.0107 41.3497 19.0325 41.3497 19.0592C41.3497 19.0858 41.4346 19.1077 41.5385 19.1077C41.6423 19.1077 41.7273 19.1295 41.7273 19.1562C41.7273 19.1829 41.8076 19.2047 41.9057 19.2047C42.0299 19.2047 42.1047 19.2341 42.1521 19.3017C42.1895 19.3551 42.2483 19.3987 42.2827 19.3987C42.3688 19.3987 42.5769 19.6202 42.5769 19.7118C42.5769 19.7531 42.5982 19.7868 42.6241 19.7868C42.6501 19.7868 42.6713 19.8304 42.6713 19.8838C42.6713 19.9371 42.6926 19.9808 42.7185 19.9808C42.7471 19.9808 42.7657 20.191 42.7657 20.5144C42.7657 20.8378 42.7471 21.048 42.7185 21.048C42.6916 21.048 42.6713 21.1935 42.6713 21.3875C42.6713 21.5815 42.6511 21.7271 42.6241 21.7271C42.5982 21.7271 42.5769 21.8144 42.5769 21.9211C42.5769 22.0278 42.5557 22.1151 42.5297 22.1151C42.5038 22.1151 42.4825 22.2024 42.4825 22.3092C42.4825 22.4159 42.4613 22.5032 42.4353 22.5032C42.4094 22.5032 42.3881 22.5905 42.3881 22.6972C42.3881 22.8039 42.3669 22.8913 42.3409 22.8913C42.3149 22.8913 42.2937 22.9567 42.2937 23.0368C42.2937 23.1168 42.2725 23.1823 42.2465 23.1823C42.2205 23.1823 42.1993 23.2478 42.1993 23.3278C42.1993 23.4079 42.1781 23.4733 42.1521 23.4733C42.1261 23.4733 42.1049 23.5388 42.1049 23.6189C42.1049 23.6989 42.0837 23.7644 42.0577 23.7644C42.0317 23.7644 42.0105 23.8299 42.0105 23.9099C42.0105 23.9899 41.9892 24.0554 41.9633 24.0554C41.9373 24.0554 41.9161 24.1427 41.9161 24.2495C41.9161 24.3562 41.8948 24.4435 41.8689 24.4435C41.8429 24.4435 41.8217 24.509 41.8217 24.589C41.8217 24.6691 41.8004 24.7345 41.7745 24.7345C41.7485 24.7345 41.7273 24.8 41.7273 24.8801C41.7273 24.9601 41.706 25.0256 41.6801 25.0256C41.6541 25.0256 41.6329 25.0911 41.6329 25.1711C41.6329 25.2511 41.6116 25.3166 41.5857 25.3166C41.5597 25.3166 41.5385 25.3821 41.5385 25.4621C41.5385 25.5422 41.5172 25.6077 41.4913 25.6077C41.4653 25.6077 41.4441 25.695 41.4441 25.8017C41.4441 25.9084 41.4228 25.9957 41.3969 25.9957C41.3709 25.9957 41.3497 26.0612 41.3497 26.1413C41.3497 26.2213 41.3284 26.2868 41.3024 26.2868C41.2765 26.2868 41.2552 26.3523 41.2552 26.4323C41.2552 26.5123 41.234 26.5778 41.208 26.5778C41.1821 26.5778 41.1608 26.6433 41.1608 26.7233C41.1608 26.8034 41.1396 26.8689 41.1136 26.8689C41.0877 26.8689 41.0664 26.9343 41.0664 27.0144C41.0664 27.0944 41.0452 27.1599 41.0192 27.1599C40.9933 27.1599 40.972 27.2254 40.972 27.3054C40.972 27.3855 40.9508 27.451 40.9248 27.451C40.8989 27.451 40.8776 27.5164 40.8776 27.5965C40.8776 27.6765 40.8564 27.742 40.8304 27.742C40.8045 27.742 40.7832 27.8293 40.7832 27.936C40.7832 28.0427 40.762 28.1301 40.736 28.1301C40.7101 28.1301 40.6888 28.1737 40.6888 28.2271C40.6888 28.2804 40.6676 28.3241 40.6416 28.3241C40.6156 28.3241 40.5944 28.4114 40.5944 28.5181C40.5944 28.6248 40.5732 28.7121 40.5472 28.7121C40.5212 28.7121 40.5 28.7776 40.5 28.8577C40.5 28.9377 40.4788 29.0032 40.4528 29.0032C40.4268 29.0032 40.4056 29.0687 40.4056 29.1487C40.4056 29.2288 40.3844 29.2942 40.3584 29.2942C40.3324 29.2942 40.3112 29.3597 40.3112 29.4398C40.3112 29.5198 40.2899 29.5853 40.264 29.5853C40.238 29.5853 40.2168 29.6726 40.2168 29.7793C40.2168 29.886 40.1955 29.9733 40.1696 29.9733C40.1436 29.9733 40.1224 30.0388 40.1224 30.1189C40.1224 30.1989 40.1011 30.2644 40.0752 30.2644C40.0492 30.2644 40.028 30.3299 40.028 30.4099C40.028 30.4899 40.0067 30.5554 39.9808 30.5554C39.9548 30.5554 39.9336 30.6427 39.9336 30.7495C39.9336 30.8562 39.9123 30.9435 39.8864 30.9435C39.8604 30.9435 39.8392 31.009 39.8392 31.089C39.8392 31.1691 39.8179 31.2345 39.792 31.2345C39.766 31.2345 39.7448 31.3 39.7448 31.3801C39.7448 31.4601 39.7235 31.5256 39.6976 31.5256C39.6716 31.5256 39.6503 31.5911 39.6503 31.6711C39.6503 31.7511 39.6291 31.8166 39.6031 31.8166C39.5772 31.8166 39.5559 31.8821 39.5559 31.9621C39.5559 32.0422 39.5347 32.1077 39.5087 32.1077C39.4828 32.1077 39.4615 32.195 39.4615 32.3017C39.4615 32.4084 39.4403 32.4957 39.4143 32.4957C39.3884 32.4957 39.3671 32.5612 39.3671 32.6413C39.3671 32.7213 39.3459 32.7868 39.3199 32.7868C39.294 32.7868 39.2727 32.8523 39.2727 32.9323C39.2727 33.0123 39.2515 33.0778 39.2255 33.0778C39.1996 33.0778 39.1783 33.1433 39.1783 33.2233C39.1783 33.3034 39.1571 33.3689 39.1311 33.3689C39.1052 33.3689 39.0839 33.4343 39.0839 33.5144C39.0839 33.5944 39.0627 33.6599 39.0367 33.6599C39.0107 33.6599 38.9895 33.7254 38.9895 33.8054C38.9895 33.8855 38.9683 33.951 38.9423 33.951C38.9163 33.951 38.8951 34.0383 38.8951 34.145C38.8951 34.2517 38.8739 34.339 38.8479 34.339C38.8219 34.339 38.8007 34.4045 38.8007 34.4845C38.8007 34.5646 38.7795 34.6301 38.7535 34.6301C38.7275 34.6301 38.7063 34.6955 38.7063 34.7756C38.7063 34.8556 38.6851 34.9211 38.6591 34.9211C38.6331 34.9211 38.6119 34.9866 38.6119 35.0666C38.6119 35.1467 38.5906 35.2121 38.5647 35.2121C38.5387 35.2121 38.5175 35.2776 38.5175 35.3577C38.5175 35.4377 38.4962 35.5032 38.4703 35.5032C38.4443 35.5032 38.4231 35.5687 38.4231 35.6487C38.4231 35.7288 38.4018 35.7942 38.3759 35.7942C38.3499 35.7942 38.3287 35.8597 38.3287 35.9398C38.3287 36.0198 38.3074 36.0853 38.2815 36.0853C38.2555 36.0853 38.2343 36.1726 38.2343 36.2793C38.2343 36.386 38.213 36.4733 38.1871 36.4733C38.1611 36.4733 38.1399 36.517 38.1399 36.5704C38.1399 36.6237 38.1186 36.6674 38.0927 36.6674C38.0667 36.6674 38.0455 36.7547 38.0455 36.8614C38.0455 36.9681 38.0242 37.0554 37.9982 37.0554C37.9723 37.0554 37.951 37.1427 37.951 37.2495C37.951 37.3562 37.9298 37.4435 37.9038 37.4435C37.8779 37.4435 37.8566 37.509 37.8566 37.589C37.8566 37.6691 37.8354 37.7345 37.8094 37.7345C37.7835 37.7345 37.7622 37.8 37.7622 37.8801C37.7622 37.9601 37.741 38.0256 37.715 38.0256C37.6891 38.0256 37.6678 38.0911 37.6678 38.1711C37.6678 38.2511 37.6466 38.3166 37.6206 38.3166C37.5947 38.3166 37.5734 38.4039 37.5734 38.5107C37.5734 38.6174 37.5522 38.7047 37.5262 38.7047C37.5003 38.7047 37.479 38.7702 37.479 38.8502C37.479 38.9302 37.4578 38.9957 37.4318 38.9957C37.4059 38.9957 37.3846 39.0612 37.3846 39.1413C37.3846 39.2213 37.3634 39.2868 37.3374 39.2868C37.3115 39.2868 37.2902 39.3523 37.2902 39.4323C37.2902 39.5123 37.269 39.5778 37.243 39.5778C37.217 39.5778 37.1958 39.6433 37.1958 39.7233C37.1958 39.8034 37.1746 39.8689 37.1486 39.8689C37.1226 39.8689 37.1014 39.9562 37.1014 40.0629C37.1014 40.1696 37.0802 40.2569 37.0542 40.2569C37.0282 40.2569 37.007 40.3224 37.007 40.4024C37.007 40.4825 36.9858 40.548 36.9598 40.548C36.9338 40.548 36.9126 40.6477 36.9126 40.7697C36.9126 40.9986 36.9888 41.1301 37.1216 41.1301C37.1624 41.1301 37.1958 41.1519 37.1958 41.1786C37.1958 41.2052 37.2808 41.2271 37.3846 41.2271C37.4885 41.2271 37.5734 41.2052 37.5734 41.1786C37.5734 41.1519 37.6159 41.1301 37.6678 41.1301C37.7308 41.1301 37.7622 41.0977 37.7622 41.033C37.7622 40.9797 37.7835 40.936 37.8094 40.936C37.8354 40.936 37.8566 40.8705 37.8566 40.7905C37.8566 40.7105 37.8779 40.645 37.9038 40.645C37.9298 40.645 37.951 40.5795 37.951 40.4995C37.951 40.4194 37.9723 40.3539 37.9982 40.3539C38.0242 40.3539 38.0455 40.2666 38.0455 40.1599C38.0455 40.0532 38.0667 39.9659 38.0927 39.9659C38.1186 39.9659 38.1399 39.8786 38.1399 39.7719C38.1399 39.6651 38.1611 39.5778 38.1871 39.5778C38.213 39.5778 38.2343 39.5123 38.2343 39.4323C38.2343 39.3523 38.2555 39.2868 38.2815 39.2868C38.3074 39.2868 38.3287 39.2213 38.3287 39.1413C38.3287 39.0612 38.3499 38.9957 38.3759 38.9957C38.4018 38.9957 38.4231 38.9084 38.4231 38.8017C38.4231 38.695 38.4443 38.6077 38.4703 38.6077C38.4962 38.6077 38.5175 38.5204 38.5175 38.4136C38.5175 38.3069 38.5387 38.2196 38.5647 38.2196C38.5906 38.2196 38.6119 38.1541 38.6119 38.0741C38.6119 37.994 38.6331 37.9286 38.6591 37.9286C38.6851 37.9286 38.7063 37.8631 38.7063 37.783C38.7063 37.703 38.7275 37.6375 38.7535 37.6375C38.7795 37.6375 38.8007 37.5502 38.8007 37.4435C38.8007 37.3368 38.8219 37.2495 38.8479 37.2495C38.8739 37.2495 38.8951 37.184 38.8951 37.1039C38.8951 37.0239 38.9163 36.9584 38.9423 36.9584C38.9683 36.9584 38.9895 36.8711 38.9895 36.7644C38.9895 36.6577 39.0107 36.5704 39.0367 36.5704C39.0627 36.5704 39.0839 36.5049 39.0839 36.4248C39.0839 36.3448 39.1052 36.2793 39.1311 36.2793C39.1571 36.2793 39.1783 36.192 39.1783 36.0853C39.1783 35.9786 39.1996 35.8913 39.2255 35.8913C39.2515 35.8913 39.2727 35.8258 39.2727 35.7457C39.2727 35.6657 39.294 35.6002 39.3199 35.6002C39.3459 35.6002 39.3671 35.5129 39.3671 35.4062C39.3671 35.2995 39.3884 35.2121 39.4143 35.2121C39.4403 35.2121 39.4615 35.1467 39.4615 35.0666C39.4615 34.9866 39.4828 34.9211 39.5087 34.9211C39.5347 34.9211 39.5559 34.8556 39.5559 34.7756C39.5559 34.6955 39.5772 34.6301 39.6031 34.6301C39.6291 34.6301 39.6503 34.5427 39.6503 34.436C39.6503 34.3293 39.6716 34.242 39.6976 34.242C39.7235 34.242 39.7448 34.1765 39.7448 34.0965C39.7448 34.0164 39.766 33.951 39.792 33.951C39.8179 33.951 39.8392 33.8636 39.8392 33.7569C39.8392 33.6502 39.8604 33.5629 39.8864 33.5629C39.9123 33.5629 39.9336 33.4974 39.9336 33.4174C39.9336 33.3373 39.9548 33.2718 39.9808 33.2718C40.0067 33.2718 40.028 33.1845 40.028 33.0778C40.028 32.9711 40.0492 32.8838 40.0752 32.8838C40.1011 32.8838 40.1224 32.8495 40.1224 32.8076C40.1224 32.589 40.0615 32.5927 43.5884 32.5927C45.7777 32.5927 46.9196 32.6094 46.9196 32.6413C46.9196 32.6679 46.9742 32.6898 47.0409 32.6898C47.1958 32.6898 47.2972 32.7939 47.2972 32.9531C47.2972 33.0217 47.3184 33.0778 47.3444 33.0778C47.3704 33.0778 47.3916 33.1433 47.3916 33.2233C47.3916 33.3034 47.4128 33.3689 47.4388 33.3689C47.4648 33.3689 47.486 33.4562 47.486 33.5629C47.486 33.6696 47.5073 33.7569 47.5332 33.7569C47.5592 33.7569 47.5804 33.8224 47.5804 33.9024C47.5804 33.9825 47.6017 34.048 47.6276 34.048C47.6536 34.048 47.6748 34.1135 47.6748 34.1935C47.6748 34.2735 47.6961 34.339 47.722 34.339C47.748 34.339 47.7692 34.4263 47.7692 34.533C47.7692 34.6398 47.7905 34.7271 47.8164 34.7271C47.8424 34.7271 47.8636 34.7926 47.8636 34.8726C47.8636 34.9526 47.8849 35.0181 47.9108 35.0181C47.9368 35.0181 47.958 35.0836 47.958 35.1636C47.958 35.2437 47.9793 35.3092 48.0052 35.3092C48.0312 35.3092 48.0524 35.3965 48.0524 35.5032C48.0524 35.6099 48.0737 35.6972 48.0996 35.6972C48.1256 35.6972 48.1469 35.7627 48.1469 35.8427C48.1469 35.9228 48.1681 35.9883 48.1941 35.9883C48.22 35.9883 48.2413 36.0538 48.2413 36.1338C48.2413 36.2138 48.2625 36.2793 48.2885 36.2793C48.3144 36.2793 48.3357 36.3666 48.3357 36.4733C48.3357 36.5801 48.3569 36.6674 48.3829 36.6674C48.4088 36.6674 48.4301 36.7329 48.4301 36.8129C48.4301 36.8929 48.4513 36.9584 48.4773 36.9584C48.5032 36.9584 48.5245 37.0239 48.5245 37.1039C48.5245 37.184 48.5457 37.2495 48.5717 37.2495C48.5976 37.2495 48.6189 37.3368 48.6189 37.4435C48.6189 37.5502 48.6401 37.6375 48.6661 37.6375C48.692 37.6375 48.7133 37.703 48.7133 37.783C48.7133 37.8631 48.7345 37.9286 48.7605 37.9286C48.7864 37.9286 48.8077 37.994 48.8077 38.0741C48.8077 38.1541 48.8289 38.2196 48.8549 38.2196C48.8809 38.2196 48.9021 38.3069 48.9021 38.4136C48.9021 38.5204 48.9233 38.6077 48.9493 38.6077C48.9753 38.6077 48.9965 38.6414 48.9965 38.6826C48.9965 38.7682 49.2023 38.9957 49.2796 38.9957C49.3078 38.9957 49.4991 39.1704 49.7045 39.3838C49.91 39.5972 50.1008 39.7719 50.1286 39.7719C50.1563 39.7719 50.4753 40.0774 50.8374 40.451C51.1996 40.8245 51.5197 41.1301 51.5489 41.1301C51.5781 41.1301 51.6615 41.1955 51.7343 41.2756C51.8631 41.4173 52.0175 41.4702 52.0175 41.3726C52.0175 41.3459 51.9962 41.3241 51.9703 41.3241C51.9443 41.3241 51.9231 41.2586 51.9231 41.1786C51.9231 41.0985 51.9018 41.033 51.8759 41.033C51.8499 41.033 51.8287 40.9676 51.8287 40.8875C51.8287 40.8075 51.8074 40.742 51.7815 40.742C51.7555 40.742 51.7343 40.6547 51.7343 40.548C51.7343 40.4413 51.713 40.3539 51.6871 40.3539C51.6611 40.3539 51.6399 40.2885 51.6399 40.2084C51.6399 40.1284 51.6186 40.0629 51.5927 40.0629C51.5667 40.0629 51.5455 39.9974 51.5455 39.9174C51.5455 39.8373 51.5242 39.7719 51.4982 39.7719C51.4723 39.7719 51.451 39.7064 51.451 39.6263C51.451 39.5463 51.4298 39.4808 51.4038 39.4808C51.3779 39.4808 51.3566 39.3935 51.3566 39.2868C51.3566 39.1801 51.3354 39.0927 51.3094 39.0927C51.2835 39.0927 51.2622 39.0273 51.2622 38.9472C51.2622 38.8672 51.241 38.8017 51.215 38.8017C51.1891 38.8017 51.1678 38.7362 51.1678 38.6562C51.1678 38.5761 51.1466 38.5107 51.1206 38.5107C51.0947 38.5107 51.0734 38.4452 51.0734 38.3651C51.0734 38.2851 51.0522 38.2196 51.0262 38.2196C51.0003 38.2196 50.979 38.1323 50.979 38.0256C50.979 37.9189 50.9578 37.8316 50.9318 37.8316C50.9059 37.8316 50.8846 37.7661 50.8846 37.686C50.8846 37.606 50.8634 37.5405 50.8374 37.5405C50.8114 37.5405 50.7902 37.475 50.7902 37.395C50.7902 37.3149 50.769 37.2495 50.743 37.2495C50.717 37.2495 50.6958 37.184 50.6958 37.1039C50.6958 37.0239 50.6746 36.9584 50.6486 36.9584C50.6226 36.9584 50.6014 36.8929 50.6014 36.8129C50.6014 36.7329 50.5802 36.6674 50.5542 36.6674C50.5282 36.6674 50.507 36.6019 50.507 36.5218C50.507 36.4418 50.4857 36.3763 50.4598 36.3763C50.4338 36.3763 50.4126 36.3108 50.4126 36.2308C50.4126 36.1508 50.3913 36.0853 50.3654 36.0853C50.3394 36.0853 50.3182 36.0198 50.3182 35.9398C50.3182 35.8597 50.2969 35.7942 50.271 35.7942C50.245 35.7942 50.2238 35.7069 50.2238 35.6002C50.2238 35.4935 50.2025 35.4062 50.1766 35.4062C50.1506 35.4062 50.1294 35.3407 50.1294 35.2607C50.1294 35.1806 50.1081 35.1151 50.0822 35.1151C50.0562 35.1151 50.035 35.0496 50.035 34.9696C50.035 34.8896 50.0137 34.8241 49.9878 34.8241C49.9618 34.8241 49.9406 34.7586 49.9406 34.6786C49.9406 34.5985 49.9193 34.533 49.8934 34.533C49.8674 34.533 49.8462 34.4676 49.8462 34.3875C49.8462 34.3075 49.8249 34.242 49.7989 34.242C49.773 34.242 49.7517 34.1765 49.7517 34.0965C49.7517 34.0164 49.7305 33.951 49.7045 33.951C49.6786 33.951 49.6573 33.8636 49.6573 33.7569C49.6573 33.6502 49.6361 33.5629 49.6101 33.5629C49.5842 33.5629 49.5629 33.4974 49.5629 33.4174C49.5629 33.3373 49.5417 33.2718 49.5157 33.2718C49.4898 33.2718 49.4685 33.2064 49.4685 33.1263C49.4685 33.0463 49.4473 32.9808 49.4213 32.9808C49.3954 32.9808 49.3741 32.9153 49.3741 32.8353C49.3741 32.7552 49.3529 32.6898 49.3269 32.6898C49.301 32.6898 49.2797 32.6243 49.2797 32.5442C49.2797 32.4642 49.2585 32.3987 49.2325 32.3987C49.2066 32.3987 49.1853 32.3114 49.1853 32.2047C49.1853 32.098 49.1641 32.0107 49.1381 32.0107C49.1121 32.0107 49.0909 31.9452 49.0909 31.8651C49.0909 31.7851 49.0697 31.7196 49.0437 31.7196C49.0177 31.7196 48.9965 31.6541 48.9965 31.5741C48.9965 31.494 48.9753 31.4286 48.9493 31.4286C48.9233 31.4286 48.9021 31.3413 48.9021 31.2345C48.9021 31.1278 48.8809 31.0405 48.8549 31.0405C48.8289 31.0405 48.8077 30.975 48.8077 30.895C48.8077 30.8149 48.7864 30.7495 48.7605 30.7495C48.7345 30.7495 48.7133 30.684 48.7133 30.6039C48.7133 30.5239 48.692 30.4584 48.6661 30.4584C48.6401 30.4584 48.6189 30.3929 48.6189 30.3129C48.6189 30.2329 48.5976 30.1674 48.5717 30.1674C48.5457 30.1674 48.5245 30.1019 48.5245 30.0218C48.5245 29.9418 48.5032 29.8763 48.4773 29.8763C48.4513 29.8763 48.4301 29.8108 48.4301 29.7308C48.4301 29.6508 48.4088 29.5853 48.3829 29.5853C48.3569 29.5853 48.3357 29.5198 48.3357 29.4398C48.3357 29.3597 48.3144 29.2942 48.2885 29.2942C48.2625 29.2942 48.2413 29.2069 48.2413 29.1002C48.2413 28.9935 48.22 28.9062 48.1941 28.9062C48.1681 28.9062 48.1469 28.8407 48.1469 28.7607C48.1469 28.6806 48.1256 28.6151 48.0996 28.6151C48.0737 28.6151 48.0524 28.5496 48.0524 28.4696C48.0524 28.3896 48.0312 28.3241 48.0052 28.3241C47.9793 28.3241 47.958 28.2586 47.958 28.1786C47.958 28.0985 47.9368 28.033 47.9108 28.033C47.8849 28.033 47.8636 27.9676 47.8636 27.8875C47.8636 27.8075 47.8424 27.742 47.8164 27.742C47.7905 27.742 47.7692 27.6765 47.7692 27.5965C47.7692 27.5164 47.748 27.451 47.722 27.451C47.6961 27.451 47.6748 27.3855 47.6748 27.3054C47.6748 27.2254 47.6536 27.1599 47.6276 27.1599C47.6017 27.1599 47.5804 27.0944 47.5804 27.0144C47.5804 26.9343 47.5592 26.8689 47.5332 26.8689C47.5073 26.8689 47.486 26.8034 47.486 26.7233C47.486 26.6433 47.4648 26.5778 47.4388 26.5778C47.4128 26.5778 47.3916 26.4905 47.3916 26.3838C47.3916 26.2771 47.3704 26.1898 47.3444 26.1898C47.3184 26.1898 47.2972 26.1243 47.2972 26.0442C47.2972 25.9642 47.276 25.8987 47.25 25.8987C47.224 25.8987 47.2028 25.8332 47.2028 25.7532C47.2028 25.6732 47.1816 25.6077 47.1556 25.6077C47.1296 25.6077 47.1084 25.5204 47.1084 25.4136C47.1084 25.3069 47.0871 25.2196 47.0612 25.2196C47.0352 25.2196 47.014 25.176 47.014 25.1226C47.014 25.0692 46.9927 25.0256 46.9668 25.0256C46.9408 25.0256 46.9196 24.9164 46.9196 24.783C46.9196 24.6496 46.8983 24.5405 46.8724 24.5405C46.8464 24.5405 46.8252 24.475 46.8252 24.395C46.8252 24.3149 46.8039 24.2495 46.778 24.2495C46.752 24.2495 46.7308 24.184 46.7308 24.1039C46.7308 24.0239 46.7095 23.9584 46.6836 23.9584C46.6576 23.9584 46.6364 23.8929 46.6364 23.8129C46.6364 23.7329 46.6151 23.6674 46.5892 23.6674C46.5632 23.6674 46.542 23.6019 46.542 23.5218C46.542 23.4418 46.5207 23.3763 46.4948 23.3763C46.4688 23.3763 46.4476 23.3108 46.4476 23.2308C46.4476 23.1508 46.4263 23.0853 46.4003 23.0853C46.3744 23.0853 46.3531 22.998 46.3531 22.8913C46.3531 22.7845 46.3319 22.6972 46.3059 22.6972C46.28 22.6972 46.2587 22.6536 46.2587 22.6002C46.2587 22.5468 46.2375 22.5032 46.2115 22.5032C46.1856 22.5032 46.1643 22.4377 46.1643 22.3577C46.1643 22.2776 46.1431 22.2121 46.1171 22.2121C46.0912 22.2121 46.0699 22.1467 46.0699 22.0666C46.0699 21.9866 46.0487 21.9211 46.0227 21.9211C45.9968 21.9211 45.9755 21.8338 45.9755 21.7271C45.9755 21.6204 45.9543 21.533 45.9283 21.533C45.9024 21.533 45.8811 21.4676 45.8811 21.3875C45.8811 21.3075 45.8599 21.242 45.8339 21.242C45.808 21.242 45.7867 21.1765 45.7867 21.0965C45.7867 21.0164 45.7655 20.951 45.7395 20.951C45.7135 20.951 45.6923 20.8855 45.6923 20.8054C45.6923 20.7254 45.6711 20.6599 45.6451 20.6599C45.6191 20.6599 45.5979 20.5944 45.5979 20.5144C45.5979 20.4343 45.5767 20.3689 45.5507 20.3689C45.5247 20.3689 45.5035 20.3034 45.5035 20.2233C45.5035 20.1433 45.4823 20.0778 45.4563 20.0778C45.4303 20.0778 45.4091 19.9905 45.4091 19.8838C45.4091 19.7771 45.3878 19.6898 45.3619 19.6898C45.3359 19.6898 45.3147 19.6243 45.3147 19.5442C45.3147 19.4642 45.2934 19.3987 45.2675 19.3987C45.2415 19.3987 45.2203 19.3332 45.2203 19.2532C45.2203 19.1732 45.199 19.1077 45.1731 19.1077C45.1471 19.1077 45.1259 19.0422 45.1259 18.9621C45.1259 18.855 45.1037 18.8166 45.0419 18.8166C44.9957 18.8166 44.9273 18.773 44.8899 18.7196C44.8238 18.6255 44.7677 18.6226 43.0017 18.6226C41.2358 18.6226 41.1797 18.6255 41.1136 18.7196ZM53.7168 18.7681C53.7168 18.7948 53.6743 18.8166 53.6224 18.8166C53.5704 18.8166 53.528 18.8385 53.528 18.8651C53.528 18.8918 53.4855 18.9136 53.4336 18.9136C53.3706 18.9136 53.3392 18.946 53.3392 19.0107C53.3392 19.064 53.3179 19.1077 53.292 19.1077C53.266 19.1077 53.2448 19.1513 53.2448 19.2047C53.2448 19.258 53.2235 19.3017 53.1975 19.3017C53.1716 19.3017 53.1503 19.4108 53.1503 19.5442C53.1503 19.6776 53.1291 19.7868 53.1031 19.7868C53.0762 19.7868 53.0559 19.9323 53.0559 20.1263C53.0559 20.3204 53.0357 20.4659 53.0087 20.4659C52.9825 20.4659 52.9615 20.5952 52.9615 20.7569C52.9615 20.9186 52.9406 21.048 52.9143 21.048C52.8881 21.048 52.8671 21.1773 52.8671 21.339C52.8671 21.5007 52.8462 21.6301 52.8199 21.6301C52.7937 21.6301 52.7727 21.7594 52.7727 21.9211C52.7727 22.0828 52.7518 22.2121 52.7255 22.2121C52.6993 22.2121 52.6783 22.3415 52.6783 22.5032C52.6783 22.6649 52.6574 22.7942 52.6311 22.7942C52.6049 22.7942 52.5839 22.9236 52.5839 23.0853C52.5839 23.247 52.563 23.3763 52.5367 23.3763C52.5105 23.3763 52.4895 23.5057 52.4895 23.6674C52.4895 23.829 52.4685 23.9584 52.4423 23.9584C52.4163 23.9584 52.3951 24.0021 52.3951 24.0554C52.3951 24.1088 52.4072 24.1524 52.4221 24.1524C52.4912 24.1524 52.5839 24.0015 52.5839 23.8891C52.5839 23.8205 52.6052 23.7644 52.6311 23.7644C52.6571 23.7644 52.6783 23.7037 52.6783 23.6296C52.6783 23.5504 52.7173 23.4659 52.7727 23.4248C52.8246 23.3864 52.8671 23.3161 52.8671 23.2686C52.8671 23.2211 52.8884 23.1823 52.9143 23.1823C52.9403 23.1823 52.9615 23.1386 52.9615 23.0853C52.9615 23.0319 52.9828 22.9883 53.0087 22.9883C53.0347 22.9883 53.0559 22.9446 53.0559 22.8913C53.0559 22.8379 53.0772 22.7942 53.1031 22.7942C53.1291 22.7942 53.1503 22.7554 53.1503 22.7079C53.1503 22.6605 53.1928 22.5902 53.2448 22.5517C53.2967 22.5132 53.3392 22.4517 53.3392 22.4149C53.3392 22.3782 53.4029 22.2869 53.4808 22.2121C53.5587 22.1374 53.6224 22.0461 53.6224 22.0094C53.6224 21.9726 53.6649 21.9111 53.7168 21.8726C53.7687 21.8341 53.8112 21.7737 53.8112 21.7384C53.8112 21.6499 54.0267 21.436 54.1159 21.436C54.1573 21.436 54.1888 21.3942 54.1888 21.339C54.1888 21.2825 54.2203 21.242 54.2643 21.242C54.3058 21.242 54.3993 21.1765 54.472 21.0965C54.5448 21.0164 54.6336 20.951 54.6693 20.951C54.7051 20.951 54.765 20.9073 54.8024 20.8539C54.8399 20.8006 54.9036 20.7569 54.9441 20.7569C54.9845 20.7569 55.0482 20.7133 55.0857 20.6599C55.1231 20.6066 55.1915 20.5629 55.2377 20.5629C55.2839 20.5629 55.3217 20.5411 55.3217 20.5144C55.3217 20.4877 55.3642 20.4659 55.4161 20.4659C55.468 20.4659 55.5105 20.444 55.5105 20.4174C55.5105 20.3907 55.553 20.3689 55.6049 20.3689C55.6568 20.3689 55.6993 20.347 55.6993 20.3204C55.6993 20.2937 55.763 20.2718 55.8409 20.2718C55.9188 20.2718 55.9825 20.25 55.9825 20.2233C55.9825 20.1967 56.0462 20.1748 56.1241 20.1748C56.202 20.1748 56.2657 20.153 56.2657 20.1263C56.2657 20.0996 56.3295 20.0778 56.4073 20.0778C56.4852 20.0778 56.549 20.056 56.549 20.0293C56.549 20.0026 56.6339 19.9808 56.7378 19.9808C56.8416 19.9808 56.9266 19.959 56.9266 19.9323C56.9266 19.9053 57.0525 19.8838 57.2098 19.8838C57.3671 19.8838 57.493 19.8623 57.493 19.8353C57.493 19.8046 57.8234 19.7868 58.3899 19.7868C58.9563 19.7868 59.2867 19.8046 59.2867 19.8353C59.2867 19.862 59.3292 19.8838 59.3811 19.8838C59.433 19.8838 59.4755 19.9056 59.4755 19.9323C59.4755 19.959 59.5081 19.9808 59.5479 19.9808C59.6668 19.9808 59.9475 20.3034 59.9475 20.44C59.9475 20.5076 59.9688 20.5629 59.9948 20.5629C60.0261 20.5629 60.042 24.0069 60.042 30.798C60.042 41.0007 60.0422 41.033 60.1364 41.033C60.1954 41.033 60.2308 41.0007 60.2308 40.9467C60.2308 40.8993 60.2733 40.829 60.3252 40.7905C60.3771 40.752 60.4196 40.6905 60.4196 40.6537C60.4196 40.617 60.4833 40.5257 60.5612 40.451C60.6391 40.3762 60.7028 40.2893 60.7028 40.2579C60.7028 40.2265 60.7878 40.1169 60.8916 40.0144C60.9954 39.9118 61.0804 39.8027 61.0804 39.7719C61.0804 39.741 61.1654 39.6319 61.2692 39.5293C61.3731 39.4268 61.458 39.3133 61.458 39.277C61.458 39.2408 61.5005 39.1797 61.5524 39.1413C61.6044 39.1028 61.6468 39.0417 61.6468 39.0055C61.6468 38.9692 61.7318 38.8557 61.8357 38.7532C61.9395 38.6506 62.0245 38.5415 62.0245 38.5107C62.0245 38.4798 62.1094 38.3707 62.2133 38.2681C62.3171 38.1656 62.4021 38.0521 62.4021 38.0158C62.4021 37.9796 62.4446 37.9185 62.4965 37.8801C62.5903 37.8106 62.5909 37.7545 62.5909 29.1002C62.5909 20.4459 62.5915 20.3898 62.6853 20.3204C62.7372 20.2819 62.7797 20.2215 62.7797 20.1862C62.7797 20.0977 62.9952 19.8838 63.0844 19.8838C63.1245 19.8838 63.1573 19.862 63.1573 19.8353C63.1573 19.8049 63.4563 19.7868 63.9598 19.7868C64.4633 19.7868 64.7622 19.8049 64.7622 19.8353C64.7622 19.8623 64.8881 19.8838 65.0455 19.8838C65.2028 19.8838 65.3287 19.9053 65.3287 19.9323C65.3287 19.959 65.4136 19.9808 65.5175 19.9808C65.6213 19.9808 65.7063 20.0026 65.7063 20.0293C65.7063 20.056 65.7913 20.0778 65.8951 20.0778C65.999 20.0778 66.0839 20.0996 66.0839 20.1263C66.0839 20.153 66.1476 20.1748 66.2255 20.1748C66.3034 20.1748 66.3671 20.1967 66.3671 20.2233C66.3671 20.25 66.4309 20.2718 66.5087 20.2718C66.5866 20.2718 66.6504 20.2937 66.6504 20.3204C66.6504 20.347 66.6928 20.3689 66.7448 20.3689C66.7967 20.3689 66.8392 20.3907 66.8392 20.4174C66.8392 20.444 66.8816 20.4659 66.9336 20.4659C66.9855 20.4659 67.028 20.4877 67.028 20.5144C67.028 20.5411 67.0705 20.5629 67.1224 20.5629C67.1743 20.5629 67.2168 20.5847 67.2168 20.6114C67.2168 20.6381 67.2593 20.6599 67.3112 20.6599C67.3631 20.6599 67.4056 20.6817 67.4056 20.7084C67.4056 20.7351 67.4434 20.7569 67.4896 20.7569C67.5358 20.7569 67.6042 20.8006 67.6416 20.8539C67.679 20.9073 67.7474 20.951 67.7936 20.951C67.8398 20.951 67.8776 20.9728 67.8776 20.9995C67.8776 21.0261 67.9097 21.048 67.9489 21.048C68.0356 21.048 69.1049 22.137 69.1049 22.2252C69.1049 22.2596 69.1474 22.3192 69.1993 22.3577C69.2512 22.3961 69.2937 22.4616 69.2937 22.5032C69.2937 22.5448 69.3362 22.6102 69.3881 22.6487C69.44 22.6872 69.4825 22.7575 69.4825 22.805C69.4825 22.8524 69.5038 22.8913 69.5297 22.8913C69.5557 22.8913 69.5769 22.9349 69.5769 22.9883C69.5769 23.0416 69.5982 23.0853 69.6241 23.0853C69.6501 23.0853 69.6713 23.1289 69.6713 23.1823C69.6713 23.2357 69.6926 23.2793 69.7185 23.2793C69.7445 23.2793 69.7657 23.323 69.7657 23.3763C69.7657 23.4297 69.787 23.4733 69.8129 23.4733C69.8389 23.4733 69.8601 23.517 69.8601 23.5704C69.8601 23.6237 69.8814 23.6674 69.9073 23.6674C69.9333 23.6674 69.9545 23.7329 69.9545 23.8129C69.9545 23.8929 69.9758 23.9584 70.0017 23.9584C70.0277 23.9584 70.049 24.0021 70.049 24.0554C70.049 24.1088 70.0702 24.1524 70.0962 24.1524C70.1221 24.1524 70.1434 24.087 70.1434 24.0069C70.1434 23.9269 70.1221 23.8614 70.0962 23.8614C70.0699 23.8614 70.049 23.732 70.049 23.5704C70.049 23.4087 70.028 23.2793 70.0017 23.2793C69.9755 23.2793 69.9545 23.1499 69.9545 22.9883C69.9545 22.8266 69.9336 22.6972 69.9073 22.6972C69.8811 22.6972 69.8601 22.5679 69.8601 22.4062C69.8601 22.2445 69.8392 22.1151 69.8129 22.1151C69.7867 22.1151 69.7657 21.9858 69.7657 21.8241C69.7657 21.6624 69.7448 21.533 69.7185 21.533C69.6923 21.533 69.6713 21.4037 69.6713 21.242C69.6713 21.0803 69.6504 20.951 69.6241 20.951C69.5972 20.951 69.5769 20.8054 69.5769 20.6114C69.5769 20.4174 69.5567 20.2718 69.5297 20.2718C69.5022 20.2718 69.4825 20.1102 69.4825 19.8838C69.4825 19.6574 69.4628 19.4957 69.4353 19.4957C69.4093 19.4957 69.3881 19.4302 69.3881 19.3502C69.3881 19.2702 69.3669 19.2047 69.3409 19.2047C69.3149 19.2047 69.2937 19.171 69.2937 19.1297C69.2937 19.0119 69.0743 18.8166 68.9418 18.8166C68.8757 18.8166 68.8217 18.7948 68.8217 18.7681C68.8217 18.736 66.2727 18.7196 61.2692 18.7196C56.2657 18.7196 53.7168 18.736 53.7168 18.7681ZM0 18.8651C0 18.8918 0.0637238 18.9136 0.141608 18.9136C0.219493 18.9136 0.283217 18.9355 0.283217 18.9621C0.283217 18.9888 0.368182 19.0107 0.472028 19.0107C0.575874 19.0107 0.660839 19.0325 0.660839 19.0592C0.660839 19.0858 0.745804 19.1077 0.84965 19.1077C0.953496 19.1077 1.03846 19.1295 1.03846 19.1562C1.03846 19.1829 1.10219 19.2047 1.18007 19.2047C1.25795 19.2047 1.32168 19.2265 1.32168 19.2532C1.32168 19.2799 1.3854 19.3017 1.46329 19.3017C1.54117 19.3017 1.60489 19.3235 1.60489 19.3502C1.60489 19.3769 1.64738 19.3987 1.6993 19.3987C1.75122 19.3987 1.79371 19.4205 1.79371 19.4472C1.79371 19.4739 1.83619 19.4957 1.88811 19.4957C1.94003 19.4957 1.98252 19.5176 1.98252 19.5442C1.98252 19.5709 2.02033 19.5927 2.06649 19.5927C2.1127 19.5927 2.1811 19.6364 2.21853 19.6898C2.25596 19.7431 2.31586 19.7868 2.35164 19.7868C2.38738 19.7868 2.47621 19.8523 2.54895 19.9323C2.62169 20.0123 2.70609 20.0778 2.73649 20.0778C2.81149 20.0778 2.92657 20.2014 2.92657 20.2819C2.92657 20.318 2.96906 20.3789 3.02098 20.4174C3.0729 20.4558 3.11538 20.5261 3.11538 20.5736C3.11538 20.6211 3.13663 20.6599 3.16259 20.6599C3.18855 20.6599 3.20979 20.7036 3.20979 20.7569C3.20979 20.8103 3.23103 20.8539 3.25699 20.8539C3.28295 20.8539 3.3042 20.8976 3.3042 20.951C3.3042 21.0043 3.32544 21.048 3.3514 21.048C3.38269 21.048 3.3986 24.4273 3.3986 31.089C3.3986 36.6116 3.41073 41.1301 3.42555 41.1301C3.47299 41.1301 3.58741 40.9934 3.58741 40.9368C3.58741 40.9067 3.71486 40.7536 3.87063 40.5965C4.0264 40.4394 4.15385 40.2856 4.15385 40.2548C4.15385 40.224 4.21757 40.1376 4.29545 40.0629C4.37334 39.9881 4.43706 39.9017 4.43706 39.8709C4.43706 39.8402 4.56451 39.6864 4.72028 39.5293C4.87605 39.3722 5.0035 39.2189 5.0035 39.1886C5.0035 39.1584 5.08846 39.0498 5.19231 38.9472C5.29615 38.8447 5.38112 38.7358 5.38112 38.7053C5.38112 38.6748 5.48732 38.5436 5.61713 38.4136L5.85315 38.1774V29.6127C5.85315 23.9352 5.86905 21.048 5.90035 21.048C5.92631 21.048 5.94755 21.0091 5.94755 20.9617C5.94755 20.9142 5.99003 20.8439 6.04196 20.8054C6.09388 20.767 6.13636 20.706 6.13636 20.67C6.13636 20.5812 6.25442 20.4659 6.34542 20.4659C6.38621 20.4659 6.41958 20.444 6.41958 20.4174C6.41958 20.3907 6.46206 20.3689 6.51399 20.3689C6.56591 20.3689 6.60839 20.347 6.60839 20.3204C6.60839 20.2937 6.65087 20.2718 6.7028 20.2718C6.75472 20.2718 6.7972 20.25 6.7972 20.2233C6.7972 20.1967 6.86093 20.1748 6.93881 20.1748C7.0167 20.1748 7.08042 20.153 7.08042 20.1263C7.08042 20.0996 7.18663 20.0778 7.31643 20.0778C7.44624 20.0778 7.55245 20.056 7.55245 20.0293C7.55245 20.0002 7.74126 19.9808 8.02448 19.9808C8.30769 19.9808 8.4965 19.9614 8.4965 19.9323C8.4965 19.9029 8.70103 19.8838 9.01573 19.8838C9.33043 19.8838 9.53496 19.9029 9.53496 19.9323C9.53496 19.9611 9.70806 19.9808 9.95979 19.9808C10.2115 19.9808 10.3846 20.0005 10.3846 20.0293C10.3846 20.056 10.4696 20.0778 10.5734 20.0778C10.6773 20.0778 10.7622 20.0996 10.7622 20.1263C10.7622 20.153 10.826 20.1748 10.9038 20.1748C10.9817 20.1748 11.0455 20.1967 11.0455 20.2233C11.0455 20.25 11.1092 20.2718 11.1871 20.2718C11.2649 20.2718 11.3287 20.2937 11.3287 20.3204C11.3287 20.347 11.3712 20.3689 11.4231 20.3689C11.475 20.3689 11.5175 20.3907 11.5175 20.4174C11.5175 20.444 11.56 20.4659 11.6119 20.4659C11.6638 20.4659 11.7063 20.4877 11.7063 20.5144C11.7063 20.5411 11.7653 20.5629 11.8375 20.5629C11.9145 20.5629 11.9967 20.603 12.0367 20.6599C12.0741 20.7133 12.1379 20.7569 12.1783 20.7569C12.2188 20.7569 12.2825 20.8006 12.3199 20.8539C12.3574 20.9073 12.4258 20.951 12.472 20.951C12.5181 20.951 12.5559 20.9728 12.5559 20.9995C12.5559 21.0261 12.5881 21.048 12.6275 21.048C12.7208 21.048 13.4056 21.7517 13.4056 21.8476C13.4056 21.888 13.4268 21.9211 13.4528 21.9211C13.4788 21.9211 13.5 21.9648 13.5 22.0181C13.5 22.0715 13.5212 22.1151 13.5472 22.1151C13.5732 22.1151 13.5944 22.1588 13.5944 22.2121C13.5944 22.2655 13.6156 22.3092 13.6416 22.3092C13.6676 22.3092 13.6888 22.3528 13.6888 22.4062C13.6888 22.4595 13.7101 22.5032 13.736 22.5032C13.762 22.5032 13.7832 22.5468 13.7832 22.6002C13.7832 22.6536 13.8045 22.6972 13.8304 22.6972C13.8564 22.6972 13.8776 22.8064 13.8776 22.9398C13.8776 23.0732 13.8989 23.1823 13.9248 23.1823C13.954 23.1823 13.972 23.441 13.972 23.8614C13.972 24.2818 13.954 24.5405 13.9248 24.5405C13.8989 24.5405 13.8776 24.6496 13.8776 24.783C13.8776 24.9164 13.8564 25.0256 13.8304 25.0256C13.8045 25.0256 13.7832 25.1129 13.7832 25.2196C13.7832 25.3263 13.762 25.4136 13.736 25.4136C13.7101 25.4136 13.6888 25.501 13.6888 25.6077C13.6888 25.7144 13.6676 25.8017 13.6416 25.8017C13.6156 25.8017 13.5944 25.8454 13.5944 25.8987C13.5944 25.9521 13.5732 25.9957 13.5472 25.9957C13.5212 25.9957 13.5 26.0612 13.5 26.1413C13.5 26.2213 13.4788 26.2868 13.4528 26.2868C13.4268 26.2868 13.4056 26.3523 13.4056 26.4323C13.4056 26.5123 13.3844 26.5778 13.3584 26.5778C13.3324 26.5778 13.3112 26.6215 13.3112 26.6748C13.3112 26.7282 13.2899 26.7718 13.264 26.7718C13.238 26.7718 13.2168 26.806 13.2168 26.8478C13.2168 26.8895 13.1106 27.03 12.9808 27.1599C12.851 27.2899 12.7448 27.4198 12.7448 27.4487C12.7448 27.517 12.1485 28.1301 12.0822 28.1301C12.0543 28.1301 11.9064 28.261 11.7535 28.4211C11.6006 28.5812 11.4472 28.7121 11.4125 28.7121C11.3779 28.7121 11.3189 28.7558 11.2815 28.8092C11.244 28.8625 11.1803 28.9062 11.1399 28.9062C11.0994 28.9062 11.0357 28.9498 10.9983 29.0032C10.9608 29.0565 10.8924 29.1002 10.8462 29.1002C10.8 29.1002 10.7622 29.122 10.7622 29.1487C10.7622 29.1754 10.7244 29.1972 10.6783 29.1972C10.6321 29.1972 10.5637 29.2409 10.5262 29.2942C10.4888 29.3476 10.4204 29.3913 10.3742 29.3913C10.328 29.3913 10.2902 29.4131 10.2902 29.4398C10.2902 29.4664 10.2477 29.4883 10.1958 29.4883C10.1439 29.4883 10.1014 29.5101 10.1014 29.5368C10.1014 29.5635 10.0589 29.5853 10.007 29.5853C9.95507 29.5853 9.91259 29.6071 9.91259 29.6338C9.91259 29.6605 9.84886 29.6823 9.77098 29.6823C9.69309 29.6823 9.62937 29.7041 9.62937 29.7308C9.62937 29.7575 9.58689 29.7793 9.53496 29.7793C9.48304 29.7793 9.44056 29.8011 9.44056 29.8278C9.44056 29.8545 9.37684 29.8763 9.29895 29.8763C9.22107 29.8763 9.15734 29.8982 9.15734 29.9248C9.15734 29.9515 9.11486 29.9733 9.06294 29.9733C9.01101 29.9733 8.96853 29.9952 8.96853 30.0218C8.96853 30.0485 8.90481 30.0704 8.82692 30.0704C8.74904 30.0704 8.68531 30.0922 8.68531 30.1189C8.68531 30.1455 8.60035 30.1674 8.4965 30.1674C8.39266 30.1674 8.30769 30.1892 8.30769 30.2159C8.30769 30.2426 8.20149 30.2644 8.07168 30.2644C7.94187 30.2644 7.83566 30.2862 7.83566 30.3129C7.83566 30.3396 7.7507 30.3614 7.64685 30.3614C7.54301 30.3614 7.45804 30.3832 7.45804 30.4099C7.45804 30.4366 7.37308 30.4584 7.26923 30.4584C7.16538 30.4584 7.08042 30.4802 7.08042 30.5069C7.08042 30.5336 7.0167 30.5554 6.93881 30.5554C6.86093 30.5554 6.7972 30.5773 6.7972 30.6039C6.7972 30.6306 6.75472 30.6524 6.7028 30.6524C6.63988 30.6524 6.60839 30.6848 6.60839 30.7495C6.60839 30.8415 6.63988 30.8465 7.22203 30.8465C7.59965 30.8465 7.83566 30.8278 7.83566 30.798C7.83566 30.7686 8.04019 30.7495 8.35489 30.7495C8.6696 30.7495 8.87413 30.7303 8.87413 30.701C8.87413 30.6722 9.04722 30.6524 9.29895 30.6524C9.55068 30.6524 9.72378 30.6327 9.72378 30.6039C9.72378 30.5773 9.80874 30.5554 9.91259 30.5554C10.0164 30.5554 10.1014 30.5336 10.1014 30.5069C10.1014 30.4802 10.2076 30.4584 10.3374 30.4584C10.4672 30.4584 10.5734 30.4366 10.5734 30.4099C10.5734 30.3832 10.6371 30.3614 10.715 30.3614C10.7929 30.3614 10.8566 30.3396 10.8566 30.3129C10.8566 30.2862 10.9416 30.2644 11.0455 30.2644C11.1493 30.2644 11.2343 30.2426 11.2343 30.2159C11.2343 30.1892 11.298 30.1674 11.3759 30.1674C11.4538 30.1674 11.5175 30.1455 11.5175 30.1189C11.5175 30.0922 11.5812 30.0704 11.6591 30.0704C11.737 30.0704 11.8007 30.0485 11.8007 30.0218C11.8007 29.9952 11.8432 29.9733 11.8951 29.9733C11.947 29.9733 11.9895 29.9515 11.9895 29.9248C11.9895 29.8982 12.0532 29.8763 12.1311 29.8763C12.209 29.8763 12.2727 29.8545 12.2727 29.8278C12.2727 29.8011 12.3152 29.7793 12.3671 29.7793C12.4191 29.7793 12.4615 29.7575 12.4615 29.7308C12.4615 29.7041 12.504 29.6823 12.5559 29.6823C12.6079 29.6823 12.6503 29.6605 12.6503 29.6338C12.6503 29.6071 12.6928 29.5853 12.7448 29.5853C12.7967 29.5853 12.8392 29.5635 12.8392 29.5368C12.8392 29.5101 12.8816 29.4883 12.9336 29.4883C12.9855 29.4883 13.028 29.4664 13.028 29.4398C13.028 29.4131 13.0658 29.3913 13.1119 29.3913C13.1582 29.3913 13.2266 29.3476 13.264 29.2942C13.3014 29.2409 13.3651 29.1972 13.4056 29.1972C13.446 29.1972 13.5098 29.1536 13.5472 29.1002C13.5846 29.0468 13.6484 29.0032 13.6888 29.0032C13.7293 29.0032 13.793 28.9595 13.8304 28.9062C13.8679 28.8528 13.9259 28.8092 13.9594 28.8092C14.0389 28.8092 15.0105 27.8107 15.0105 27.729C15.0105 27.6946 15.053 27.6349 15.1049 27.5965C15.1568 27.558 15.1993 27.4925 15.1993 27.451C15.1993 27.4094 15.2418 27.3439 15.2937 27.3054C15.3491 27.2643 15.3881 27.1798 15.3881 27.1007C15.3881 27.0266 15.4094 26.9659 15.4353 26.9659C15.4613 26.9659 15.4825 26.9222 15.4825 26.8689C15.4825 26.8155 15.5038 26.7718 15.5297 26.7718C15.5557 26.7718 15.5769 26.7282 15.5769 26.6748C15.5769 26.6215 15.5982 26.5778 15.6241 26.5778C15.6501 26.5778 15.6713 26.4905 15.6713 26.3838C15.6713 26.2771 15.6926 26.1898 15.7185 26.1898C15.7445 26.1898 15.7657 26.1024 15.7657 25.9957C15.7657 25.889 15.787 25.8017 15.8129 25.8017C15.8413 25.8017 15.8601 25.6077 15.8601 25.3166C15.8601 25.0256 15.879 24.8315 15.9073 24.8315C15.9333 24.8315 15.9545 24.7661 15.9545 24.686C15.9545 24.606 15.9333 24.5405 15.9073 24.5405C15.8787 24.5405 15.8601 24.3303 15.8601 24.0069C15.8601 23.6835 15.8415 23.4733 15.8129 23.4733C15.787 23.4733 15.7657 23.3642 15.7657 23.2308C15.7657 23.0974 15.7445 22.9883 15.7185 22.9883C15.6926 22.9883 15.6713 22.901 15.6713 22.7942C15.6713 22.6875 15.6501 22.6002 15.6241 22.6002C15.5982 22.6002 15.5769 22.5347 15.5769 22.4547C15.5769 22.3746 15.5557 22.3092 15.5297 22.3092C15.5038 22.3092 15.4825 22.2655 15.4825 22.2121C15.4825 22.1588 15.4613 22.1151 15.4353 22.1151C15.4094 22.1151 15.3881 22.0715 15.3881 22.0181C15.3881 21.9648 15.3669 21.9211 15.3409 21.9211C15.3149 21.9211 15.2937 21.8822 15.2937 21.8348C15.2937 21.7873 15.2512 21.717 15.1993 21.6786C15.1474 21.6401 15.1049 21.579 15.1049 21.5428C15.1049 21.5066 15.0199 21.393 14.9161 21.2905C14.8122 21.188 14.7273 21.0802 14.7273 21.0511C14.7273 20.976 13.939 20.1748 13.8651 20.1748C13.8316 20.1748 13.7734 20.1312 13.736 20.0778C13.6986 20.0245 13.6302 19.9808 13.584 19.9808C13.5378 19.9808 13.5 19.959 13.5 19.9323C13.5 19.9056 13.4622 19.8838 13.416 19.8838C13.3698 19.8838 13.3014 19.8401 13.264 19.7868C13.224 19.7298 13.1418 19.6898 13.0647 19.6898C12.9926 19.6898 12.9336 19.6679 12.9336 19.6413C12.9336 19.6146 12.8911 19.5927 12.8392 19.5927C12.7872 19.5927 12.7448 19.5709 12.7448 19.5442C12.7448 19.5176 12.681 19.4957 12.6031 19.4957C12.5253 19.4957 12.4615 19.4739 12.4615 19.4472C12.4615 19.4205 12.3978 19.3987 12.3199 19.3987C12.242 19.3987 12.1783 19.3769 12.1783 19.3502C12.1783 19.3235 12.1146 19.3017 12.0367 19.3017C11.9588 19.3017 11.8951 19.2799 11.8951 19.2532C11.8951 19.2265 11.8101 19.2047 11.7063 19.2047C11.6024 19.2047 11.5175 19.1829 11.5175 19.1562C11.5175 19.1295 11.4113 19.1077 11.2815 19.1077C11.1517 19.1077 11.0455 19.0858 11.0455 19.0592C11.0455 19.0315 10.9038 19.0107 10.715 19.0107C10.5262 19.0107 10.3846 18.9898 10.3846 18.9621C10.3846 18.9339 10.2273 18.9136 10.007 18.9136C9.7867 18.9136 9.62937 18.8934 9.62937 18.8651C9.62937 18.8331 7.99299 18.8166 4.81468 18.8166C1.63638 18.8166 0 18.8331 0 18.8651ZM44.3014 22.6714C44.3914 22.7638 44.465 22.873 44.465 22.9139C44.465 22.9548 44.4863 22.9883 44.5122 22.9883C44.5382 22.9883 44.5594 23.0756 44.5594 23.1823C44.5594 23.289 44.5807 23.3763 44.6066 23.3763C44.6326 23.3763 44.6538 23.4855 44.6538 23.6189C44.6538 23.7523 44.6751 23.8614 44.701 23.8614C44.727 23.8614 44.7483 23.9487 44.7483 24.0554C44.7483 24.1621 44.7695 24.2495 44.7955 24.2495C44.8214 24.2495 44.8427 24.3149 44.8427 24.395C44.8427 24.475 44.8639 24.5405 44.8899 24.5405C44.9158 24.5405 44.9371 24.6278 44.9371 24.7345C44.9371 24.8413 44.9583 24.9286 44.9843 24.9286C45.0102 24.9286 45.0315 24.994 45.0315 25.0741C45.0315 25.1541 45.0527 25.2196 45.0787 25.2196C45.1046 25.2196 45.1259 25.3069 45.1259 25.4136C45.1259 25.5204 45.1471 25.6077 45.1731 25.6077C45.199 25.6077 45.2203 25.6732 45.2203 25.7532C45.2203 25.8332 45.2415 25.8987 45.2675 25.8987C45.2934 25.8987 45.3147 25.986 45.3147 26.0927C45.3147 26.1995 45.3359 26.2868 45.3619 26.2868C45.3878 26.2868 45.4091 26.3741 45.4091 26.4808C45.4091 26.5875 45.4303 26.6748 45.4563 26.6748C45.4823 26.6748 45.5035 26.7403 45.5035 26.8204C45.5035 26.9004 45.5247 26.9659 45.5507 26.9659C45.5767 26.9659 45.5979 27.0532 45.5979 27.1599C45.5979 27.2666 45.6191 27.3539 45.6451 27.3539C45.6711 27.3539 45.6923 27.4413 45.6923 27.548C45.6923 27.6547 45.7135 27.742 45.7395 27.742C45.7655 27.742 45.7867 27.8075 45.7867 27.8875C45.7867 27.9676 45.808 28.033 45.8339 28.033C45.8599 28.033 45.8811 28.1204 45.8811 28.2271C45.8811 28.3338 45.9024 28.4211 45.9283 28.4211C45.9543 28.4211 45.9755 28.5084 45.9755 28.6151C45.9755 28.7218 45.9968 28.8092 46.0227 28.8092C46.0487 28.8092 46.0699 28.8965 46.0699 29.0032C46.0699 29.1099 46.0912 29.1972 46.1171 29.1972C46.1431 29.1972 46.1643 29.2627 46.1643 29.3427C46.1643 29.4228 46.1856 29.4883 46.2115 29.4883C46.2375 29.4883 46.2587 29.5756 46.2587 29.6823C46.2587 29.789 46.28 29.8763 46.3059 29.8763C46.3319 29.8763 46.3531 29.9418 46.3531 30.0218C46.3531 30.1019 46.3744 30.1674 46.4003 30.1674C46.4263 30.1674 46.4476 30.2547 46.4476 30.3614C46.4476 30.4681 46.4688 30.5554 46.4948 30.5554C46.5207 30.5554 46.542 30.6427 46.542 30.7495C46.542 30.8562 46.5632 30.9435 46.5892 30.9435C46.6151 30.9435 46.6364 31.009 46.6364 31.089C46.6364 31.1691 46.6576 31.2345 46.6836 31.2345C46.7095 31.2345 46.7308 31.3218 46.7308 31.4286C46.7308 31.5353 46.752 31.6226 46.778 31.6226C46.8039 31.6226 46.8252 31.6663 46.8252 31.7196C46.8252 31.8156 46.7937 31.8166 43.757 31.8166H40.6888V31.6711C40.6888 31.5911 40.7101 31.5256 40.736 31.5256C40.762 31.5256 40.7832 31.4601 40.7832 31.3801C40.7832 31.3 40.8045 31.2345 40.8304 31.2345C40.8564 31.2345 40.8776 31.1691 40.8776 31.089C40.8776 31.009 40.8989 30.9435 40.9248 30.9435C40.9508 30.9435 40.972 30.878 40.972 30.798C40.972 30.7179 40.9933 30.6524 41.0192 30.6524C41.0452 30.6524 41.0664 30.587 41.0664 30.5069C41.0664 30.4269 41.0877 30.3614 41.1136 30.3614C41.1396 30.3614 41.1608 30.2959 41.1608 30.2159C41.1608 30.1358 41.1821 30.0704 41.208 30.0704C41.234 30.0704 41.2552 29.983 41.2552 29.8763C41.2552 29.7696 41.2765 29.6823 41.3024 29.6823C41.3284 29.6823 41.3497 29.6168 41.3497 29.5368C41.3497 29.4567 41.3709 29.3913 41.3969 29.3913C41.4228 29.3913 41.4441 29.3476 41.4441 29.2942C41.4441 29.2409 41.4653 29.1972 41.4913 29.1972C41.5172 29.1972 41.5385 29.1317 41.5385 29.0517C41.5385 28.9717 41.5597 28.9062 41.5857 28.9062C41.6116 28.9062 41.6329 28.8407 41.6329 28.7607C41.6329 28.6806 41.6541 28.6151 41.6801 28.6151C41.706 28.6151 41.7273 28.5496 41.7273 28.4696C41.7273 28.3896 41.7485 28.3241 41.7745 28.3241C41.8004 28.3241 41.8217 28.2586 41.8217 28.1786C41.8217 28.0985 41.8429 28.033 41.8689 28.033C41.8948 28.033 41.9161 27.9676 41.9161 27.8875C41.9161 27.8075 41.9373 27.742 41.9633 27.742C41.9892 27.742 42.0105 27.6765 42.0105 27.5965C42.0105 27.5164 42.0317 27.451 42.0577 27.451C42.0837 27.451 42.1049 27.3855 42.1049 27.3054C42.1049 27.2254 42.1261 27.1599 42.1521 27.1599C42.1781 27.1599 42.1993 27.0944 42.1993 27.0144C42.1993 26.9343 42.2205 26.8689 42.2465 26.8689C42.2725 26.8689 42.2937 26.8034 42.2937 26.7233C42.2937 26.6433 42.3149 26.5778 42.3409 26.5778C42.3669 26.5778 42.3881 26.5123 42.3881 26.4323C42.3881 26.3523 42.4094 26.2868 42.4353 26.2868C42.4613 26.2868 42.4825 26.1776 42.4825 26.0442C42.4825 25.9108 42.5038 25.8017 42.5297 25.8017C42.5557 25.8017 42.5769 25.758 42.5769 25.7047C42.5769 25.6513 42.5982 25.6077 42.6241 25.6077C42.6501 25.6077 42.6713 25.5422 42.6713 25.4621C42.6713 25.3821 42.6926 25.3166 42.7185 25.3166C42.7445 25.3166 42.7657 25.2511 42.7657 25.1711C42.7657 25.0911 42.787 25.0256 42.8129 25.0256C42.8389 25.0256 42.8601 24.9601 42.8601 24.8801C42.8601 24.8 42.8814 24.7345 42.9073 24.7345C42.9333 24.7345 42.9545 24.6691 42.9545 24.589C42.9545 24.509 42.9758 24.4435 43.0017 24.4435C43.0277 24.4435 43.049 24.378 43.049 24.298C43.049 24.2179 43.0702 24.1524 43.0962 24.1524C43.1221 24.1524 43.1434 24.087 43.1434 24.0069C43.1434 23.9269 43.1646 23.8614 43.1906 23.8614C43.2165 23.8614 43.2378 23.7741 43.2378 23.6674C43.2378 23.5607 43.259 23.4733 43.285 23.4733C43.3109 23.4733 43.3322 23.4297 43.3322 23.3763C43.3322 23.323 43.3534 23.2793 43.3794 23.2793C43.4053 23.2793 43.4266 23.2138 43.4266 23.1338C43.4266 23.0538 43.4478 22.9883 43.4738 22.9883C43.4997 22.9883 43.521 22.9329 43.521 22.8653C43.521 22.665 43.7004 22.5096 43.9356 22.5061C44.1053 22.5037 44.164 22.5302 44.3014 22.6714ZM7.36364 52.0803V58.9683H53.6021C93.6126 58.9683 99.8497 58.959 99.9081 58.899C99.9912 58.8136 99.9954 58.6949 99.9165 58.6571C99.8693 58.6345 99.8693 58.6231 99.9165 58.6005C99.9865 58.5669 99.9964 58.3863 99.9283 58.3863C99.8523 58.3863 99.8641 45.4995 99.9401 45.463C99.9873 45.4404 99.9873 45.4291 99.9401 45.4065C99.9077 45.3909 99.8811 45.3363 99.8811 45.2852C99.8811 45.2013 99.8442 45.1922 99.5035 45.1922H99.1259V51.6229C99.1259 57.1315 99.1162 58.0636 99.0584 58.1229C99.0001 58.1829 92.8762 58.1922 53.6021 58.1922H8.21329V51.6922V45.1922H7.78846H7.36364V52.0803Z" fill="#E9BE82"/>
</svg>
