<svg width="60" height="60" viewBox="0 0 60 60" fill="none" xmlns="http://www.w3.org/2000/svg">
<rect width="60" height="60" fill="#E9BE82"/>
<path fill-rule="evenodd" clip-rule="evenodd" d="M39.25 30C39.25 24.8914 35.1086 20.75 30 20.75C24.8914 20.75 20.75 24.8914 20.75 30C20.75 35.1086 24.8914 39.25 30 39.25C35.1086 39.25 39.25 35.1086 39.25 30ZM30 19.25C35.9371 19.25 40.75 24.0629 40.75 30C40.75 35.9371 35.9371 40.75 30 40.75C24.0629 40.75 19.25 35.9371 19.25 30C19.25 24.0629 24.0629 19.25 30 19.25ZM28.4697 26.4697C28.7626 26.1768 29.2374 26.1768 29.5303 26.4697C29.8232 26.7626 29.8232 27.2374 29.5303 27.5303L27.8107 29.25H34C34.4142 29.25 34.75 29.5858 34.75 30C34.75 30.4142 34.4142 30.75 34 30.75H27.8107L29.5303 32.4697C29.8232 32.7626 29.8232 33.2374 29.5303 33.5303C29.2374 33.8232 28.7626 33.8232 28.4697 33.5303L25.4697 30.5303C25.1768 30.2374 25.1768 29.7626 25.4697 29.4697L28.4697 26.4697Z" fill="#535659"/>
</svg>
