<svg width="60" height="60" viewBox="0 0 60 60" fill="none" xmlns="http://www.w3.org/2000/svg">
<rect width="60" height="60" fill="#C9A065"/>
<path fill-rule="evenodd" clip-rule="evenodd" d="M20.75 30C20.75 24.8914 24.8914 20.75 30 20.75C35.1086 20.75 39.25 24.8914 39.25 30C39.25 35.1086 35.1086 39.25 30 39.25C24.8914 39.25 20.75 35.1086 20.75 30ZM30 19.25C24.0629 19.25 19.25 24.0629 19.25 30C19.25 35.9371 24.0629 40.75 30 40.75C35.9371 40.75 40.75 35.9371 40.75 30C40.75 24.0629 35.9371 19.25 30 19.25ZM31.5303 26.4697C31.2374 26.1768 30.7626 26.1768 30.4697 26.4697C30.1768 26.7626 30.1768 27.2374 30.4697 27.5303L32.1893 29.25H26C25.5858 29.25 25.25 29.5858 25.25 30C25.25 30.4142 25.5858 30.75 26 30.75H32.1893L30.4697 32.4697C30.1768 32.7626 30.1768 33.2374 30.4697 33.5303C30.7626 33.8232 31.2374 33.8232 31.5303 33.5303L34.5303 30.5303C34.8232 30.2374 34.8232 29.7626 34.5303 29.4697L31.5303 26.4697Z" fill="#535659"/>
</svg>
