<svg width="50" height="50" viewBox="0 0 50 50" fill="none" xmlns="http://www.w3.org/2000/svg">
<path d="M18.3497 8.83918C16.7307 8.14934 14.8591 8.90259 14.1692 10.5216L13.4198 12.2798C12.7321 13.8986 13.4844 15.7686 15.1015 16.4602C16.7205 17.1496 18.5918 16.3961 19.2814 14.7772L20.0321 13.0196C20.7218 11.4006 19.9687 9.52894 18.3497 8.83918ZM18.8589 12.5194L18.1094 14.2782C17.6955 15.2496 16.5725 15.7016 15.6012 15.2877C14.6298 14.8738 14.1778 13.7507 14.5917 12.7794L15.3412 11.0205C15.7551 10.0492 16.8781 9.59721 17.8494 10.0111C18.8208 10.4249 19.2728 11.548 18.8589 12.5194Z" fill="#C9A065"/>
<path d="M24.3321 23.2853C24.0978 22.6767 23.6872 22.152 23.1528 21.7781L17.9056 18.1056L17.8992 18.1017C17.8935 18.0979 17.8858 18.0954 17.8795 18.0915C17.8213 18.0556 17.7579 18.0292 17.6915 18.0132C17.6819 18.0132 17.6749 18.0049 17.6653 18.003L11.5839 16.7864L9.01255 12.0961L14.0266 9.30301C14.3342 9.13198 14.4448 8.74397 14.2738 8.43641C14.2738 8.43641 14.2738 8.43641 14.2738 8.43633L13.0351 6.2098C12.8652 5.904 12.4807 5.79224 12.1735 5.95936L6.29788 9.14887C4.52254 10.1115 3.86369 12.331 4.82628 14.1063C4.85926 14.1672 4.89399 14.227 4.93031 14.2859L7.98281 20.0601V24.3177L7.35447 28.7148L4.8634 40.5495L3.53789 41.4327C2.86422 41.8816 2.68204 42.7915 3.13091 43.4652C3.40271 43.8731 3.86026 44.1181 4.3504 44.1182H7.98281C8.2691 44.1183 8.52043 43.9276 8.59714 43.6517L11.6535 32.6474H11.9593L15.0182 43.6517C15.0947 43.9266 15.3447 44.1172 15.63 44.1182H19.2624C20.0719 44.1218 20.731 43.4685 20.7346 42.659C20.7367 42.1645 20.4895 41.7021 20.0768 41.4296L18.7475 40.5438L16.3711 29.8587L22.4519 27.52C24.1404 26.8698 24.9823 24.9739 24.3321 23.2853ZM17.9955 19.723L19.6664 20.893L18.7392 22.1325L17.7043 21.3767L17.9955 19.723ZM17.457 22.773L19.4606 24.2291L17.0078 25.3188L17.457 22.773ZM6.03151 13.6461C5.68149 13.0935 5.57236 12.422 5.72944 11.7872C5.89242 11.1389 6.31923 10.5885 6.90647 10.2692L12.2276 7.38046L12.8515 8.4995L7.8407 11.2907C7.5345 11.4613 7.42345 11.847 7.59217 12.1542L8.98332 14.6912L7.26589 15.9791L6.03151 13.6461ZM7.50104 42.8436H4.3504C4.24485 42.8472 4.15643 42.7646 4.15277 42.6591C4.15046 42.5906 4.18495 42.526 4.24334 42.49H4.24525L5.62493 41.5691H7.85536L7.50104 42.8436ZM8.20458 40.2946H6.21886L7.42648 34.5592H9.79966L8.20458 40.2946ZM13.058 31.8393C12.9813 31.5634 12.73 31.3726 12.4437 31.3728H11.1691C10.8828 31.3726 10.6315 31.5634 10.5548 31.8393L10.1533 33.2846H7.69477L8.49262 29.5056L11.8019 29.7815L15.1119 30.0575L15.8269 33.2846H13.4595L13.058 31.8393ZM19.3676 42.49C19.4573 42.5456 19.4851 42.6634 19.4295 42.7532C19.3939 42.8108 19.3303 42.8452 19.2625 42.8436H16.1144L15.7575 41.5691H17.988L19.3676 42.49ZM17.3818 40.2946H15.4063L13.8132 34.5592H16.1073L17.3818 40.2946ZM15.1036 28.7779L12.972 28.6001L8.7093 28.2445L9.25097 24.4534C9.25535 24.4235 9.25742 24.3932 9.25734 24.3629V19.9021C9.25726 19.7984 9.23193 19.6962 9.18342 19.6045L7.86874 17.1198L9.60147 15.8198L10.6103 17.6596C10.7007 17.8247 10.8596 17.9413 11.0442 17.9782L16.8064 19.131L15.1036 28.7779ZM21.9937 26.3308L16.4533 28.4618L16.7414 26.8323L20.9869 24.9454C21.3085 24.8026 21.4535 24.426 21.3107 24.1044C21.2653 24.0019 21.1936 23.9133 21.1028 23.8474L19.7722 22.8788L20.7109 21.6227L22.4233 22.8214C22.9586 23.1963 23.2773 23.8088 23.2772 24.4624C23.2734 25.2895 22.7645 26.0304 21.9937 26.3308Z" fill="#C9A065"/>
<path d="M40.4649 8.83918C38.846 8.14934 36.9743 8.90259 36.2845 10.5216L35.535 12.2798C34.8473 13.8986 35.5996 15.7686 37.2168 16.4602C38.8358 17.1496 40.7071 16.3961 41.3966 14.7772L42.1473 13.0196C42.8371 11.4006 42.0839 9.52894 40.4649 8.83918ZM40.9741 12.5194L40.2247 14.2782C39.8108 15.2496 38.6877 15.7016 37.7164 15.2877C36.745 14.8738 36.2931 13.7507 36.707 12.7794L37.4564 11.0205C37.8703 10.0492 38.9933 9.59721 39.9647 10.0111C40.936 10.4249 41.388 11.548 40.9741 12.5194Z" fill="#C9A065"/>
<path d="M46.4473 23.2853C46.2131 22.6767 45.8024 22.152 45.2681 21.7781L40.0208 18.1056L40.0145 18.1017C40.0087 18.0979 40.0011 18.0954 39.9947 18.0915C39.9365 18.0556 39.8731 18.0292 39.8067 18.0132C39.7971 18.0132 39.7901 18.0049 39.7806 18.003L33.6992 16.7864L31.1278 12.0961L36.1418 9.30301C36.4494 9.13198 36.5601 8.74397 36.3891 8.43641C36.3891 8.43641 36.3891 8.43641 36.3891 8.43633L35.1503 6.2098C34.9805 5.904 34.5959 5.79224 34.2887 5.95936L28.4131 9.14887C26.6378 10.1115 25.9789 12.331 26.9415 14.1063C26.9745 14.1672 27.0092 14.227 27.0455 14.2859L30.098 20.0601V24.3177L29.4697 28.7148L26.9786 40.5495L25.6531 41.4327C24.9795 41.8816 24.7973 42.7915 25.2461 43.4652C25.5179 43.8731 25.9755 44.1181 26.4656 44.1182H30.098C30.3843 44.1183 30.6357 43.9276 30.7124 43.6517L33.7687 32.6474H34.0746L37.1335 43.6517C37.2099 43.9266 37.4599 44.1172 37.7452 44.1182H41.3776C42.1871 44.1218 42.8462 43.4685 42.8498 42.659C42.852 42.1645 42.6047 41.7021 42.1921 41.4296L40.8627 40.5438L38.4864 29.8587L44.5672 27.52C46.2557 26.8698 47.0975 24.9739 46.4473 23.2853ZM40.1108 19.723L41.7817 20.893L40.8545 22.1325L39.8195 21.3767L40.1108 19.723ZM39.5723 22.773L41.5758 24.2291L39.123 25.3188L39.5723 22.773ZM28.1467 13.6461C27.7967 13.0935 27.6876 12.422 27.8447 11.7872C28.0077 11.1389 28.4345 10.5885 29.0217 10.2692L34.3429 7.38046L34.9668 8.4995L29.9559 11.2907C29.6497 11.4613 29.5387 11.847 29.7074 12.1542L31.0986 14.6912L29.3811 15.9791L28.1467 13.6461ZM29.6163 42.8436H26.4656C26.3601 42.8472 26.2717 42.7646 26.268 42.6591C26.2657 42.5906 26.3002 42.526 26.3586 42.49H26.3605L27.7402 41.5691H29.9706L29.6163 42.8436ZM30.3198 40.2946H28.3341L29.5417 34.5592H31.9149L30.3198 40.2946ZM35.1732 31.8393C35.0965 31.5634 34.8452 31.3726 34.5589 31.3728H33.2844C32.9981 31.3726 32.7468 31.5634 32.67 31.8393L32.2686 33.2846H29.81L30.6079 29.5056L33.9172 29.7815L37.2271 30.0575L37.9421 33.2846H35.5747L35.1732 31.8393ZM41.4828 42.49C41.5726 42.5456 41.6003 42.6634 41.5448 42.7532C41.5091 42.8108 41.4455 42.8452 41.3777 42.8436H38.2296L37.8728 41.5691H40.1032L41.4828 42.49ZM39.4971 40.2946H37.5216L35.9284 34.5592H38.2225L39.4971 40.2946ZM37.2189 28.7779L35.0872 28.6001L30.8245 28.2445L31.3662 24.4534C31.3706 24.4235 31.3727 24.3932 31.3726 24.3629V19.9021C31.3725 19.7984 31.3472 19.6962 31.2987 19.6045L29.984 17.1198L31.7167 15.8198L32.7255 17.6596C32.816 17.8247 32.9748 17.9413 33.1595 17.9782L38.9216 19.131L37.2189 28.7779ZM44.109 26.3308L38.5686 28.4618L38.8566 26.8323L43.1021 24.9454C43.4237 24.8026 43.5687 24.426 43.426 24.1044C43.3805 24.0019 43.3088 23.9133 43.2181 23.8474L41.8875 22.8788L42.8262 21.6227L44.5385 22.8214C45.0738 23.1963 45.3925 23.8088 45.3924 24.4624C45.3887 25.2895 44.8797 26.0304 44.109 26.3308Z" fill="#C9A065"/>
</svg>
