<svg width="50" height="50" viewBox="0 0 50 50" fill="none" xmlns="http://www.w3.org/2000/svg">
<g clip-path="url(#clip0)">
<path d="M30.7993 3.86724C28.6822 2.96517 26.2347 3.95016 25.3327 6.06721L24.3527 8.36635C23.4534 10.4832 24.4372 12.9286 26.5518 13.833C28.6689 14.7344 31.1159 13.7491 32.0176 11.6321L32.9992 9.33384C33.9012 7.21668 32.9163 4.76921 30.7993 3.86724ZM31.4651 8.67968L30.4851 10.9797C29.9439 12.2498 28.4753 12.8409 27.2051 12.2996C25.9349 11.7584 25.3439 10.2899 25.8852 9.01968L26.8651 6.71971C27.4064 5.44951 28.8749 4.85848 30.1451 5.39972C31.4153 5.94086 32.0063 7.40938 31.4651 8.67968Z" fill="#C9A065"/>
<path d="M38.8797 22.7578C38.5733 21.962 38.0364 21.2758 37.3376 20.7869L30.476 15.9845L30.4677 15.9795C30.4602 15.9745 30.4502 15.9712 30.4419 15.9662C30.3658 15.9192 30.2829 15.8846 30.196 15.8637C30.1835 15.8637 30.1744 15.8528 30.1619 15.8503L22.2095 14.2595L18.847 8.12626L25.4036 4.47381C25.8059 4.25017 25.9506 3.74278 25.7269 3.34059C25.7269 3.34059 25.7269 3.34059 25.7269 3.34049L24.107 0.428964C23.885 0.029073 23.3822 -0.117071 22.9804 0.101468L15.2972 4.27225C12.9756 5.53098 12.1141 8.43334 13.3728 10.7549C13.4159 10.8345 13.4614 10.9127 13.5089 10.9897L17.5005 18.5404V24.1078L16.6788 29.8578L13.4214 45.3334L11.688 46.4884C10.8071 47.0754 10.5689 48.2652 11.1559 49.1462C11.5113 49.6795 12.1096 49.9999 12.7505 50H17.5005C17.8748 50.0002 18.2035 49.7507 18.3038 49.39L22.3004 35.0002H22.7004L26.7003 49.39C26.8003 49.7495 27.1272 49.9988 27.5003 50H32.2503C33.3088 50.0047 34.1707 49.1504 34.1754 48.0919C34.1782 47.4452 33.8548 46.8407 33.3153 46.4842L31.577 45.3259L28.4695 31.3536L36.4211 28.2953C38.6291 27.4451 39.7299 24.9659 38.8797 22.7578ZM30.5936 18.0996L32.7786 19.6296L31.5661 21.2504L30.2128 20.262L30.5936 18.0996ZM29.8895 22.0879L32.5094 23.992L29.302 25.417L29.8895 22.0879ZM14.9488 10.153C14.4911 9.43052 14.3484 8.5524 14.5538 7.72221C14.767 6.87451 15.3251 6.15472 16.093 5.73723L23.0512 1.95978L23.8671 3.42309L17.3146 7.07305C16.9142 7.29606 16.769 7.80043 16.9896 8.2022L18.8088 11.5197L16.563 13.2038L14.9488 10.153ZM16.8705 48.3334H12.7505C12.6125 48.338 12.4969 48.23 12.4921 48.092C12.4891 48.0024 12.5342 47.9179 12.6105 47.8709H12.613L14.4172 46.6667H17.3338L16.8705 48.3334ZM17.7905 45.0001H15.1938L16.773 37.5002H19.8763L17.7905 45.0001ZM24.1371 33.9434C24.0367 33.5827 23.7081 33.3332 23.3337 33.3334H21.6671C21.2927 33.3332 20.9641 33.5827 20.8638 33.9434L20.3388 35.8334H17.1238L18.1671 30.8918L22.4946 31.2526L26.8228 31.6135L27.7578 35.8334H24.662L24.1371 33.9434ZM32.3878 47.8709C32.5052 47.9436 32.5414 48.0976 32.4688 48.215C32.4222 48.2904 32.339 48.3354 32.2504 48.3334H28.1338L27.6671 46.6667H30.5837L32.3878 47.8709ZM29.7911 45.0001H27.2078L25.1245 37.5002H28.1245L29.7911 45.0001ZM26.812 29.9403L24.0246 29.7078L18.4505 29.2428L19.1588 24.2853C19.1645 24.2462 19.1672 24.2066 19.1671 24.167V18.3337C19.167 18.1981 19.1339 18.0645 19.0704 17.9446L17.3513 14.6954L19.6171 12.9955L20.9363 15.4013C21.0546 15.6172 21.2623 15.7697 21.5038 15.8179L29.0387 17.3254L26.812 29.9403ZM35.8219 26.7403L28.577 29.5269L28.9537 27.3961L34.5053 24.9287C34.9259 24.7419 35.1155 24.2495 34.9288 23.8289C34.8693 23.6949 34.7756 23.579 34.6569 23.4928L32.9169 22.2262L34.1444 20.5837L36.3836 22.1512C37.0836 22.6414 37.5003 23.4424 37.5002 24.297C37.4953 25.3786 36.8298 26.3475 35.8219 26.7403Z" fill="#C9A065"/>
</g>
<defs>
<clipPath id="clip0">
<rect width="50" height="50" fill="white"/>
</clipPath>
</defs>
</svg>
