<svg width="50" height="50" viewBox="0 0 50 50" fill="none" xmlns="http://www.w3.org/2000/svg">
<path d="M49.1667 31.25H42.5C42.0398 31.25 41.6667 31.6231 41.6667 32.0833V37.0833H39.1667V4.58334C39.1667 4.12313 38.7935 3.75 38.3333 3.75H31.6667V2.08334H30V3.75H24.1667V2.08334H22.5V3.75H16.6667V2.08334H15V3.75H9.16667V2.08334H7.5V3.75H0.833333C0.373125 3.75 0 4.12313 0 4.58334V41.25C0 41.7102 0.373125 42.0833 0.833333 42.0833H18.3333V47.0833C18.3333 47.5435 18.7065 47.9167 19.1667 47.9167H25.8333C26.2935 47.9167 26.6667 47.5435 26.6667 47.0833V42.0833H41.6667V47.0833C41.6667 47.5435 42.0398 47.9167 42.5 47.9167H49.1667C49.6269 47.9167 50 47.5435 50 47.0833V32.0833C50 31.6231 49.6269 31.25 49.1667 31.25ZM1.66667 5.41667H7.5V7.08334H9.16667V5.41667H15V7.08334H16.6667V5.41667H22.5V7.08334H24.1667V5.41667H30V7.08334H31.6667V5.41667H37.5V11.25H1.66667V5.41667ZM30 20.4167V26.25H24.1667V20.4167H30ZM24.1667 18.75V12.9167H30V18.75H24.1667ZM37.5 35.4167V37.0833H26.6667V35.4167H37.5ZM31.6667 33.75V27.9167H37.5V33.75H31.6667ZM31.6667 26.25V20.4167H37.5V26.25H31.6667ZM31.6667 18.75V12.9167H37.5V18.75H31.6667ZM16.6667 18.75V12.9167H22.5V18.75H16.6667ZM22.5 20.4167V26.25H16.6667V20.4167H22.5ZM9.16667 26.25V20.4167H15V26.25H9.16667ZM15 27.9167V33.75H9.16667V27.9167H15ZM9.16667 18.75V12.9167H15V18.75H9.16667ZM1.66667 12.9167H7.5V18.75H1.66667V12.9167ZM1.66667 20.4167H7.5V26.25H1.66667V20.4167ZM1.66667 27.9167H7.5V33.75H1.66667V27.9167ZM18.3333 40.4167H1.66667V38.75H18.3333V40.4167ZM18.3333 37.0833H1.66667V35.4167H18.3333V37.0833ZM18.3333 32.0833V33.75H16.6667V27.9167H22.5V31.25H19.1667C18.7065 31.25 18.3333 31.6231 18.3333 32.0833ZM25 46.25H20V32.9167H25V46.25ZM25.8333 31.25H24.1667V27.9167H30V33.75H26.6667V32.0833C26.6667 31.6231 26.2935 31.25 25.8333 31.25ZM41.6667 40.4167H26.6667V38.75H41.6667V40.4167ZM48.3333 46.25H43.3333V32.9167H48.3333V46.25Z" fill="#C9A065"/>
</svg>
