<svg width="24" height="24" viewBox="0 0 24 24" fill="none" xmlns="http://www.w3.org/2000/svg">
<path fill-rule="evenodd" clip-rule="evenodd" d="M8.16957 3.25H8.2H15.8H15.8304C16.3646 3.24999 16.8104 3.24998 17.1747 3.27974C17.5546 3.31078 17.9112 3.37789 18.2485 3.54973C18.7659 3.81338 19.1866 4.23408 19.4503 4.75153C19.6221 5.08879 19.6892 5.44545 19.7203 5.82533C19.75 6.18956 19.75 6.6354 19.75 7.16955V7.2V11.2578C19.9023 11.2622 20.0438 11.269 20.1747 11.2797C20.5546 11.3108 20.9112 11.3779 21.2485 11.5497C21.7659 11.8134 22.1866 12.2341 22.4503 12.7515C22.6221 13.0888 22.6892 13.4454 22.7203 13.8253C22.7467 14.1485 22.7496 14.5359 22.75 14.9923C22.75 14.9949 22.75 14.9974 22.75 15V15.1157C22.75 15.1336 22.75 15.1515 22.75 15.1695V15.2V17V21C22.75 21.4142 22.4142 21.75 22 21.75C21.5858 21.75 21.25 21.4142 21.25 21V17.75H2.75V21C2.75 21.4142 2.41421 21.75 2 21.75C1.58579 21.75 1.25 21.4142 1.25 21V17V15.2V15.1696V15.1696C1.25 15.1524 1.25 15.1354 1.25 15.1185V15C1.25 14.9974 1.25001 14.9948 1.25004 14.9922C1.25037 14.5359 1.25334 14.1485 1.27974 13.8253C1.31078 13.4454 1.37789 13.0888 1.54973 12.7515C1.81339 12.2341 2.23408 11.8134 2.75153 11.5497C3.08879 11.3779 3.44545 11.3108 3.82533 11.2797C3.95624 11.269 4.09769 11.2622 4.25 11.2578V7.2L4.25 7.16957V7.16956V7.16956V7.16955V7.16955C4.24999 6.6354 4.24998 6.18956 4.27974 5.82533C4.31078 5.44545 4.37789 5.08879 4.54973 4.75153C4.81338 4.23408 5.23408 3.81338 5.75153 3.54973C6.08879 3.37789 6.44545 3.31078 6.82533 3.27974C7.18956 3.24998 7.63541 3.24999 8.16957 3.25ZM5.75 11.25H8.25V11V10.9748C8.24999 10.5303 8.24999 10.1592 8.27077 9.85464C8.29241 9.53754 8.33905 9.23801 8.45933 8.94762C8.73844 8.27379 9.27379 7.73844 9.94762 7.45933C10.238 7.33905 10.5375 7.29241 10.8546 7.27077C11.1592 7.24999 11.5303 7.24999 11.9747 7.25L12 7.25L12.0253 7.25C12.4697 7.24999 12.8408 7.24999 13.1454 7.27077C13.4625 7.29241 13.762 7.33905 14.0524 7.45933C14.7262 7.73844 15.2616 8.27379 15.5407 8.94762C15.661 9.23801 15.7076 9.53754 15.7292 9.85464C15.75 10.1592 15.75 10.5303 15.75 10.9747V11V11.25H18.25V7.2C18.25 6.62757 18.2494 6.24336 18.2252 5.94748C18.2018 5.66035 18.1599 5.52307 18.1138 5.43251C17.9939 5.19731 17.8027 5.00608 17.5675 4.88624C17.4769 4.8401 17.3396 4.79822 17.0525 4.77476C16.7566 4.75058 16.3724 4.75 15.8 4.75H8.2C7.62757 4.75 7.24336 4.75058 6.94748 4.77476C6.66036 4.79822 6.52307 4.8401 6.43251 4.88624C6.19731 5.00608 6.00608 5.19731 5.88624 5.43251C5.8401 5.52307 5.79822 5.66035 5.77476 5.94748C5.75058 6.24336 5.75 6.62757 5.75 7.2V11.25ZM14.25 11.25V11C14.25 10.5238 14.2496 10.2042 14.2327 9.95674C14.2163 9.71602 14.1868 9.5988 14.1549 9.52165C14.028 9.21536 13.7846 8.97202 13.4784 8.84515C13.4012 8.81319 13.284 8.78372 13.0433 8.76729C12.7958 8.75041 12.4762 8.75 12 8.75C11.5238 8.75 11.2042 8.75041 10.9567 8.76729C10.716 8.78372 10.5988 8.81319 10.5216 8.84515C10.2154 8.97202 9.97202 9.21536 9.84515 9.52165C9.81319 9.5988 9.78372 9.71602 9.76729 9.95674C9.75041 10.2042 9.75 10.5238 9.75 11V11.25H9.9H14.1H14.25ZM5.2 12.75C4.62757 12.75 4.24336 12.7506 3.94748 12.7748C3.66036 12.7982 3.52307 12.8401 3.43251 12.8862C3.19731 13.0061 3.00608 13.1973 2.88624 13.4325C2.8401 13.5231 2.79822 13.6604 2.77476 13.9475C2.75058 14.2434 2.75 14.6276 2.75 15.2V16.25H21.25V15.2C21.25 14.6276 21.2494 14.2434 21.2252 13.9475C21.2018 13.6604 21.1599 13.5231 21.1138 13.4325C20.9939 13.1973 20.8027 13.0061 20.5675 12.8862C20.4769 12.8401 20.3396 12.7982 20.0525 12.7748C19.7566 12.7506 19.3724 12.75 18.8 12.75L15.5 12.75H15H14.1H9.9H9H8.5L5.2 12.75Z" fill="#636F7E"/>
</svg>
