<svg width="24" height="24" viewBox="0 0 24 24" fill="none" xmlns="http://www.w3.org/2000/svg">
<path fill-rule="evenodd" clip-rule="evenodd" d="M10 2.75C9.30964 2.75 8.75 3.30964 8.75 4V7.25969C9.22605 7.24999 9.76171 7.25 10.367 7.25H10.367H10.4H13.6H13.633H13.633C14.2383 7.25 14.7739 7.24999 15.25 7.25969V4C15.25 3.30964 14.6904 2.75 14 2.75H10ZM7.25 4V7.35652C6.73161 7.42746 6.27175 7.54954 5.84355 7.76772C4.94978 8.22312 4.22312 8.94978 3.76772 9.84354C3.48688 10.3947 3.36527 10.9983 3.30699 11.7117C3.24999 12.4094 3.24999 13.2749 3.25 14.367V14.4V15.6V15.633C3.24999 16.7251 3.24999 17.5906 3.30699 18.2883C3.36527 19.0017 3.48688 19.6053 3.76772 20.1565C4.22312 21.0502 4.94978 21.7769 5.84355 22.2323C6.39472 22.5131 6.99834 22.6347 7.71173 22.693C8.40934 22.75 9.27481 22.75 10.3669 22.75H10.367H10.4H13.6H13.633H13.6331C14.7252 22.75 15.5907 22.75 16.2883 22.693C17.0017 22.6347 17.6053 22.5131 18.1565 22.2323C19.0502 21.7769 19.7769 21.0502 20.2323 20.1565C20.5131 19.6053 20.6347 19.0017 20.693 18.2883C20.75 17.5906 20.75 16.7252 20.75 15.633V15.6V14.4V14.367C20.75 13.2748 20.75 12.4094 20.693 11.7117C20.6347 10.9983 20.5131 10.3947 20.2323 9.84354C19.7769 8.94978 19.0502 8.22312 18.1565 7.76772C17.7283 7.54954 17.2684 7.42746 16.75 7.35652V4C16.75 2.48122 15.5188 1.25 14 1.25H10C8.48122 1.25 7.25 2.48122 7.25 4ZM7.83388 8.80201C7.21325 8.85271 6.829 8.94909 6.52453 9.10423C5.913 9.41582 5.41582 9.913 5.10423 10.5245C4.94909 10.829 4.85271 11.2133 4.80201 11.8339C4.75058 12.4633 4.75 13.2675 4.75 14.4V15.6C4.75 16.7325 4.75058 17.5367 4.80201 18.1661C4.85271 18.7867 4.94909 19.171 5.10423 19.4755C5.41582 20.087 5.913 20.5842 6.52453 20.8958C6.829 21.0509 7.21325 21.1473 7.83388 21.198C8.46327 21.2494 9.26752 21.25 10.4 21.25H13.6C14.7325 21.25 15.5367 21.2494 16.1661 21.198C16.7867 21.1473 17.171 21.0509 17.4755 20.8958C18.087 20.5842 18.5842 20.087 18.8958 19.4755C19.0509 19.171 19.1473 18.7867 19.198 18.1661C19.2494 17.5367 19.25 16.7325 19.25 15.6V14.4C19.25 13.2675 19.2494 12.4633 19.198 11.8339C19.1473 11.2133 19.0509 10.829 18.8958 10.5245C18.5842 9.913 18.087 9.41582 17.4755 9.10423C17.171 8.94909 16.7867 8.85271 16.1661 8.80201C15.5367 8.75058 14.7325 8.75 13.6 8.75H10.4C9.26752 8.75 8.46327 8.75058 7.83388 8.80201ZM12.75 14C12.75 13.5858 12.4142 13.25 12 13.25C11.5858 13.25 11.25 13.5858 11.25 14V16C11.25 16.4142 11.5858 16.75 12 16.75C12.4142 16.75 12.75 16.4142 12.75 16V14Z" fill="#636F7E"/>
</svg>
