<svg width="24" height="24" viewBox="0 0 24 24" fill="none" xmlns="http://www.w3.org/2000/svg">
<path fill-rule="evenodd" clip-rule="evenodd" d="M3 2.25C2.58579 2.25 2.25 2.58579 2.25 3V16.2V16.2321V16.2321C2.24999 17.045 2.24999 17.7006 2.29336 18.2315C2.33803 18.7781 2.43239 19.2582 2.65873 19.7025C3.01825 20.4081 3.59193 20.9817 4.29754 21.3413C4.74176 21.5676 5.2219 21.662 5.76853 21.7066C6.29944 21.75 6.95505 21.75 7.76788 21.75H7.8H19C20.5188 21.75 21.75 20.5188 21.75 19V12C21.75 11.5858 21.4142 11.25 21 11.25H17.75V3C17.75 2.58579 17.4142 2.25 17 2.25H13.5H10H6.5H3ZM16.25 11.9988V3.75H13.5H10H6.5H3.75V16.2C3.75 17.0525 3.75058 17.6467 3.78838 18.1093C3.82547 18.5632 3.8946 18.824 3.99524 19.0215C4.21095 19.4448 4.55516 19.789 4.97852 20.0048C5.17604 20.1054 5.43681 20.1745 5.89068 20.2116C6.35331 20.2494 6.94755 20.25 7.8 20.25H16.5499C16.3581 19.875 16.25 19.4501 16.25 19L16.25 12C16.25 11.9996 16.25 11.9992 16.25 11.9988ZM19 20.25C19.6904 20.25 20.25 19.6904 20.25 19V12.75H17.75V19C17.75 19.6904 18.3096 20.25 19 20.25Z" fill="#636F7E"/>
</svg>
